<?xml version="1.0" standalone="no"?>
<!DOCTYPE svg PUBLIC "-//W3C//DTD SVG 1.1//EN" "http://www.w3.org/Graphics/SVG/1.1/DTD/svg11.dtd" >
<svg>
<metadata>
Created by FontForge 20110222 at Fri Jul  8 11:25:51 2011
 By www-data
Bibliopolae
</metadata>
<defs>
<font id="Mossy" horiz-adv-x="511" >
  <font-face 
    font-family="Mossy"
    font-weight="500"
    font-stretch="normal"
    units-per-em="1000"
    panose-1="2 0 6 3 0 0 0 0 0 0"
    ascent="800"
    descent="-200"
    x-height="491"
    cap-height="692"
    bbox="-46 -223 817 904"
    underline-thickness="50"
    underline-position="-100"
    unicode-range="U+0020-20AC"
  />
    <missing-glyph />
    <glyph glyph-name="space" unicode=" " horiz-adv-x="300" 
 />
    <glyph glyph-name="exclam" unicode="!" horiz-adv-x="250" 
d="M134 85l16 -4l-3 -14v-10v-10v-11l3 -10v-11v-10h-16v10v9l-3 10v13v10v12zM142 181l-16 -4l-3 13v14v18v10v11l1 18v11v10v17v11v17v11v20v10v11l-1 18v11v11v19v11v20v11v16v19l1 18v16l2 17v16v15v13l1 14v11v11v13l2 11l2 11v10l3 11l16 -4l-3 -9v-10l-2 -11l-2 -11
v-11v-11v-11l-1 -14v-13v-15v-16l-2 -17v-16l-1 -18v-19v-16v-11v-20v-11v-19v-11v-11l1 -18v-11v-10v-20v-11v-17v-11v-17v-10v-11l-1 -18v-11v-10v-18v-12z" />
    <glyph glyph-name="quotedbl" unicode="&#x22;" horiz-adv-x="335" 
d="M59 697l16 -2l-2 -11l-1 -13v-11l-4 -21v-9l-1 -14v-16v-15v-16v-15v-16v-16v-12v-14v-17v-10v-11l3 -10v-13h-16v11l-3 10v13v10v17v14v12v16v16v15v16v15v16l1 14v11l4 21v9l1 15zM220 683l16 -2l-2 -14v-9v-11v-12v-13v-14l-1 -14v-12v-13v-14v-12v-14v-11v-13v-11
v-14v-15v-11v-11v-10h-16v10v11v11v15v14v11v13v11v14v12v14v13v12l1 14v14v13v12v11v11z" />
    <glyph glyph-name="numbersign" unicode="#" horiz-adv-x="592" 
d="M317 419h-14h-10h-15h-10h-15h-10h-15h-10h-2l-2 -8l-3 -16l-7 -15l-1 -9l-3 -18l-2 -11l-3 -14l-3 -17l-5 -15l-1 -15l10 1h11h10h17h11h17h16l3 13l4 13l5 13l3 11l3 13l5 14l1 12l5 13l3 12l5 13zM23 249v16h10l14 3l16 1l15 4l10 1l15 2h19l16 3h12l18 1h1l1 4l1 14
l5 17l3 17l3 14l2 9l3 18l1 11l7 15l3 16l1 4h-10h-14h-13h-12h-11h-13h-11h-10l-15 -2h-14h-11v16h11h12l15 2h12h11h13h11h12h13h14h14l1 7l5 14l3 16l3 18l5 19l3 11l6 18l5 18l7 18l5 14l3 13l6 13l4 12l3 11l1 11l5 12l3 12l6 11l5 9l14 -8l-5 -9l-4 -9l-3 -12l-5 -10
l-1 -9l-3 -13l-6 -14l-4 -11l-3 -13l-7 -16l-5 -16l-5 -18l-6 -18l-3 -11l-5 -19l-3 -16l-3 -18l-5 -14l-1 -3h9h15h10h15h10h15h10h18l5 16l3 12l3 13l3 12l3 13l2 11l5 14l3 11l4 12l10 28l6 18l6 18l3 13l5 14l2 11l3 12l3 13l2 10l16 -2l-2 -12l-3 -13l-3 -12l-2 -11
l-5 -14l-3 -13l-6 -18l-6 -20l-10 -28l-4 -10l-3 -11l-5 -14l-2 -11l-3 -13l-3 -12l-3 -13l-3 -12l-4 -12h1h15h16h12h13h13l13 -2h10l15 -1l15 -2h10h11h10v-16h-10h-11h-12l-15 2l-13 1h-12l-13 2h-11h-13h-12h-16h-15h-6v-2l-2 -12l-5 -13l-3 -12l-5 -13l-1 -12l-5 -14
l-3 -13l-3 -11l-5 -15l-4 -11l-3 -9h1h15h16h14h16h14h11h11h11h11h11v-16h-11h-11h-11h-11h-11h-14h-16h-14h-16h-15h-7l-1 -3l-3 -13l-5 -14l-3 -14l-4 -13l-4 -14l-4 -14l-5 -15l-3 -14l-3 -16l-5 -16l-3 -14l-5 -13l-4 -13l-3 -16l-5 -12l-3 -14l-5 -10l-2 -15l2 -10
l-16 -2l-2 12l2 19l5 12l3 12l5 12l3 16l4 15l5 11l3 14l5 16l3 16l3 14l5 15l4 14l4 14l4 13l3 14l5 14l3 12h-9h-17h-11h-17h-10h-11l-16 -2l-2 -16l-3 -15l-3 -16l-7 -15l-1 -10l-6 -15l-2 -10l-5 -14l-3 -15l-6 -15l-3 -16l-6 -10l-5 -15l-7 -17l-8 -21l-10 -18l-2 -10
l-5 -12l-7 -11l-14 8l7 11l3 10l4 10l10 18l8 21l7 17l5 15l4 10l3 14l6 15l3 15l5 14l2 10l6 15l1 10l7 15l3 16l3 13l2 14l-14 -1h-10l-16 -3h-19l-15 -2l-10 -1l-15 -4l-16 -1l-14 -3h-12z" />
    <glyph glyph-name="dollar" unicode="$" horiz-adv-x="508" 
d="M248 346v14l-2 21l-1 19v19l-2 20l-1 16v20v18v18l-2 21v20v17v21v18v17l-2 17l-1 18v14v3h-11l-14 -2l-12 -5l-13 -7l-12 -11l-12 -10l-6 -10l-8 -11l-5 -16l-6 -12l-6 -14l-6 -16l-1 -14l-3 -17v-13v-14v-14l1 -13l3 -12l7 -15l9 -14l9 -13l11 -15l12 -12l12 -12
l14 -11l8 -7l14 -10l16 -7zM264 322v-4v-21v-20v-19v-20v-20v-19v-16v-22v-18v-19v-17v-17v-21v-15v-19v-19v-13l14 2l10 2l11 1l15 4l8 5l11 6l7 5l14 10l11 13l9 12l9 15l4 11l3 9l2 15v17v10v17v17l-4 15l-4 17l-6 16l-6 15l-6 11l-8 12l-9 8l-12 9l-14 11l-13 10l-14 8
l-16 8l-15 8h-1zM243 760l14 -6l-4 -11v-11v-10v-20v-9h5l12 -5l14 -4l12 -6l10 -7l8 -7l8 -8l10 -7l8 -11l9 -9l6 -12l6 -11l6 -11l7 -13l4 -14l3 -12l3 -14v-17v-11l-6 -15l-14 6l4 11v9v15l-3 12l-3 12l-2 12l-7 11l-6 11l-6 11l-6 10l-7 9l-8 9l-8 7l-8 8l-8 7l-8 5
l-10 6l-12 2l-12 5h-1v-3v-14l1 -16l2 -19v-17v-18v-21v-17v-20l2 -21v-18v-18v-20l1 -14l2 -22v-19l1 -17l2 -23v-20v-1l7 -3l17 -8l16 -8l14 -8l15 -12l14 -11l12 -9l11 -10l10 -14l6 -13l6 -15l8 -18l4 -17l4 -17v-19v-17v-10v-17l-2 -19l-3 -11l-6 -13l-9 -17l-11 -12
l-13 -15l-14 -10l-9 -7l-11 -6l-10 -5l-19 -6l-11 -1l-10 -2l-16 -2v-5v-17v-16v-16v-11v-12v-16v-11v-11v-11h-16v11v11v11v16v12v11v16v16v17v4h-20h-13h-21l-18 6l-11 2l-10 6l-13 8l-15 10l-16 16l-6 14l-9 16l-1 17l-3 10l-4 19v19v17v15v16v14v13h16v-13v-14v-16v-15
v-17v-17l4 -17l3 -12l1 -15l7 -12l6 -14l12 -12l13 -8l13 -8l8 -4l9 -2l16 -6h19h13h20v14v19v19v15v21v17v17v19v18v22v16v19v20v20v19v20v21v10l-16 8l-18 7l-16 12l-8 7l-14 11l-14 12l-12 14l-11 15l-11 15l-9 14l-9 17l-3 16l-1 15v14v14v15l3 17l1 16l8 18l6 14l6 12
l5 16l8 13l8 12l14 12l12 11l15 9l16 7l18 2h11v9v20v10v13z" />
    <glyph glyph-name="percent" unicode="%" horiz-adv-x="827" 
d="M652 308l-2 -4l-7 3l-8 -4l-9 -9l-9 -13l-9 -17l-5 -9l-3 -11l-2 -10l-5 -13l-3 -10l-4 -13l-3 -10l-2 -11l-5 -13l-1 -9v-11v-12l-2 -11v-19l2 -18l1 -18l3 -9l4 -14l8 -11l6 -9l12 -2l10 -5h9h12l7 4l8 5l9 9l7 11l9 16l9 19l7 19l2 10l6 14v10l2 13l3 10l1 13l2 21v21
v16l-7 16l-6 15l-8 15l-7 12l-7 8l-11 8l-10 5zM652 320l3 5l9 -5l10 -5l13 -10l9 -10l9 -14l8 -17l6 -15l9 -18v-20v-21l-2 -23l-1 -13l-3 -12l-2 -11v-12l-6 -14l-2 -10l-9 -21l-9 -21l-9 -16l-9 -13l-11 -11l-10 -7l-11 -6h-16h-13l-12 5l-14 4l-12 13l-8 15l-6 16l-3 11
l-1 18l-2 20v21l2 11v10v11l1 13l5 13l2 11l3 10l4 13l3 12l5 11l2 10l5 13l5 11l9 17l11 15l13 13l16 6zM168 655v8h12l13 -6l12 -4l10 -7l9 -8l6 -10l6 -12l6 -13l5 -16l4 -14l5 -20v-20v-11v-20v-12l-2 -11l-1 -11l-3 -20l-2 -12l-6 -20l-6 -16l-3 -12l-9 -18l-10 -14
l-8 -12l-13 -8l-11 -8l-17 -1h-11l-14 2l-11 8l-8 6l-9 9l-7 13l-7 16l-2 10l-4 20l-2 12v13v14v15v13l2 14l1 13v14l3 13l2 13l3 14l3 14l6 13l6 13l5 12l6 12l9 9l7 8l8 16l14 6zM170 647l-7 -3l-6 -12l-9 -10l-7 -9l-6 -10l-5 -10l-6 -13l-4 -11l-3 -14l-3 -12l-2 -15
l-3 -11v-12l-1 -15l-2 -14v-11v-15v-14v-11l2 -11l4 -19l2 -10l5 -14l5 -9l7 -7l8 -6l7 -6h8h11l11 1l9 6l9 6l6 10l10 12l7 16l3 10l6 18l6 18l2 10l3 20l1 11l2 11v10v20v11v18l-5 18l-4 14l-5 14l-4 13l-6 10l-4 8l-7 6l-8 5l-10 4l-11 4h-6zM261 -2l-14 8l6 11l7 13
l6 14l8 14l8 12l9 16l8 15l8 18l9 15l9 16l8 21l8 16l12 24l10 17l9 20l10 16l9 16l8 19l9 18l8 16l8 19l9 18l8 16l8 13l6 15l8 15l8 17l7 15l10 15l8 15l6 16l8 14l6 16l8 13l8 14l6 11l6 14l6 11l7 12l4 10l11 17l6 14l8 10l6 8l12 -10l-6 -8l-6 -8l-6 -14l-11 -17
l-4 -10l-7 -12l-6 -11l-6 -12l-6 -13l-8 -14l-8 -13l-6 -14l-8 -14l-6 -16l-8 -17l-10 -15l-7 -13l-8 -19l-8 -13l-6 -15l-8 -15l-8 -16l-9 -16l-8 -19l-8 -18l-9 -16l-8 -19l-9 -18l-10 -16l-9 -20l-10 -17l-12 -24l-8 -14l-8 -21l-9 -18l-9 -15l-8 -18l-8 -15l-9 -16
l-8 -12l-8 -14l-6 -12l-7 -15z" />
    <glyph glyph-name="ampersand" unicode="&#x26;" horiz-adv-x="614" 
d="M237 387l-6 -5l-11 -11l-11 -11l-11 -11l-11 -11l-10 -10l-9 -12l-8 -11l-8 -12l-6 -14l-8 -12l-6 -12l-7 -14l-3 -14l-5 -11l-3 -13l-2 -14l-1 -14v-14v-17v-15v-11l1 -15l4 -15l8 -15l8 -15l8 -15l7 -5l12 -14l16 -10l15 -10l16 -5l10 -1l10 -4h16h19l16 5l9 2l16 8
l11 10l13 12l13 14l10 17l11 14l9 16l5 8l4 10l7 15l1 5l-1 2l-8 11l-6 13l-9 11l-9 12l-7 14l-7 11l-7 14l-7 10l-7 11l-8 11l-5 13l-6 11l-5 12l-6 9l-6 12l-5 11l-5 10l-8 11l-9 18l-6 10l-5 9zM241 412l5 4l13 9l11 11l12 10l12 10l9 12l12 11l10 14l10 15l8 14l5 17
l6 18l2 15v10l-2 17l-2 15l-5 15l-6 14l-8 13l-10 10l-11 9l-9 6l-10 4h-12h-16h-13l-13 -3l-13 -4l-12 -8l-13 -6l-8 -9l-9 -8l-7 -11l-5 -11l-2 -11v-12v-13l2 -13l1 -13l4 -11l6 -14l4 -13l4 -14l6 -15l6 -14l7 -13l6 -10l9 -15l7 -16zM514 1l-14 -8l-6 12l-8 7l-10 11
l-9 7l-14 17l-8 8l-8 9l-8 8l-7 11l-11 12l-10 11l-5 7l-4 -9l-4 -10l-5 -10l-9 -16l-11 -16l-12 -17l-13 -16l-15 -12l-13 -12l-18 -8l-11 -4l-18 -5h-21h-18l-12 4l-10 1l-18 7l-17 10l-18 12l-12 14l-9 7l-10 17l-8 15l-8 17l-6 19l-1 17v11v15v17v14l1 16l2 14l3 15
l5 13l5 14l7 14l6 14l8 12l6 14l8 14l10 11l9 12l10 12l11 11l11 11l11 11l13 11l8 7l-1 2l-10 17l-7 16l-9 15l-6 10l-7 15l-6 14l-6 15l-6 14l-4 13l-4 14l-6 13l-1 15l-2 13v15v14l2 13l7 15l9 13l9 10l10 11l15 6l14 8l15 6l15 3h15h16h16l14 -6l11 -6l13 -11l10 -12
l10 -15l6 -16l7 -17l2 -17l2 -19v-10l-2 -19l-6 -20l-7 -17l-8 -16l-10 -17l-12 -14l-12 -11l-9 -14l-14 -10l-12 -10l-11 -11l-13 -9l-7 -6l9 -14l5 -9l6 -10l9 -18l8 -11l5 -12l5 -9l6 -12l6 -9l5 -14l6 -11l5 -11l8 -9l7 -13l7 -10l7 -14l7 -11l7 -14l7 -10l11 -13l6 -13
l3 -4l2 5l7 19l8 16l5 9l7 17l1 10l7 15l1 9l5 20l3 17l5 15l3 13l4 12l16 -6l-4 -10l-3 -13l-5 -15l-3 -17l-5 -18l-1 -11l-7 -15l-1 -10l-9 -19l-5 -11l-8 -14l-7 -19l-6 -15l3 -5l6 -10l10 -11l11 -12l7 -11l8 -8l8 -9l8 -8l14 -15l7 -7l12 -11l8 -9z" />
    <glyph glyph-name="quotesingle" unicode="'" horiz-adv-x="222" 
d="M103 434l-16 2l1 14l2 16l3 17l3 18l3 18l3 15l2 14l2 13v10v12v11v11v11v12l-2 12l-2 14l-1 11l-2 10l-3 13l16 4l3 -13l2 -12l1 -11l2 -14l2 -12v-14v-11v-11v-11v-12v-12l-2 -13l-2 -14l-3 -15l-3 -18l-3 -18l-3 -17l-2 -16z" />
    <glyph glyph-name="parenleft" unicode="(" horiz-adv-x="382" 
d="M271 -200l-14 -8l-7 11l-4 11l-9 10l-7 10l-6 8l-6 9l-5 10l-6 10l-7 10l-6 14l-6 10l-3 10l-5 11l-6 12l-3 12l-4 12l-5 14l-5 15l-3 12l-2 10l-3 13l-1 11l-3 11l-2 11l-1 14l-4 14l-1 11l-3 14v14l-2 14l-1 13l-4 11l-1 16v11v14v10v14v10l-2 14v15v14v12v11v13v11v12
v14l2 11l1 12l2 12l3 12l2 9v14l4 15l4 12l1 10l5 14l3 14l5 15l6 16l6 14l7 18l7 12l6 10l6 13l5 11l6 13l6 8l7 13l7 11l7 10l6 11l6 10l9 12l5 8l6 8l5 9l14 -8l-5 -9l-6 -10l-7 -8l-7 -10l-6 -10l-6 -11l-7 -10l-7 -11l-7 -13l-6 -8l-6 -11l-5 -11l-6 -15l-6 -10l-7 -12
l-7 -16l-4 -14l-6 -16l-5 -13l-3 -14l-5 -14l-1 -10l-4 -12l-4 -13v-14l-2 -11l-3 -12l-2 -10l-1 -12l-2 -11v-12v-12v-11v-13v-11v-12v-14v-13l2 -14v-12v-14v-10v-14v-11l1 -12l4 -11l1 -15l2 -14v-14l3 -14l1 -11l4 -14l1 -14l2 -9l3 -13l1 -11l3 -11l2 -10l3 -12l5 -13
l5 -14l4 -14l3 -10l4 -12l5 -11l3 -10l6 -8l6 -14l7 -10l6 -10l5 -10l6 -7l6 -10l5 -8l11 -12l4 -11z" />
    <glyph glyph-name="parenright" unicode=")" horiz-adv-x="251" 
d="M11 699l12 12l9 -10l6 -11l6 -11l6 -10l7 -11l6 -13l6 -12l5 -12l6 -13l6 -12l6 -11l3 -12l2 -9l6 -12l1 -10l7 -16l1 -13l5 -15l3 -11l2 -11l4 -16l3 -11l4 -11l3 -15l3 -10l3 -13v-11l3 -10l2 -13l1 -15l2 -12v-15l1 -14v-14v-14v-16v-14v-16v-14l-1 -13l-2 -13l-3 -14
l-2 -14l-1 -12l-2 -14l-3 -11l-1 -13l-2 -11l-1 -13l-4 -11l-3 -10v-13l-3 -12l-3 -10l-2 -15l-4 -12l-2 -13l-3 -10l-3 -13l-3 -12l-6 -11l-6 -14l-5 -12l-6 -10l-2 -11l-6 -12l-5 -9l-7 -15l-7 -15l-7 -11l-5 -9l-6 -9l-7 -10l-7 -11l-5 -10l-14 6l5 12l7 11l7 12l6 7l5 9
l7 11l7 13l7 17l5 9l4 10l4 11l6 12l5 10l6 14l4 11l3 10l3 13l3 10l2 13l4 12l2 15l3 10l3 10v13l3 12l4 11l1 11l2 11l1 13l3 13l2 12l1 12l2 14l3 14l2 13l1 11v14v16v14v16v14v14l-1 14v13l-2 12l-1 15l-2 11l-3 12v11l-3 11l-3 10l-3 15l-4 11l-3 11l-4 16l-2 11l-3 11
l-5 15l-1 13l-7 16l-1 10l-4 10l-4 11l-3 10l-4 11l-6 12l-6 13l-5 12l-6 10l-6 13l-7 11l-6 10l-6 11l-4 9z" />
    <glyph glyph-name="asterisk" unicode="*" horiz-adv-x="403" 
d="M159 702l16 4l4 -15v-14v-16v-11l-1 -10v-13v-13l-3 -13v-11l-2 -11v-14v-10l13 5l14 5l15 7l14 7l11 3l13 5l12 3l10 5l11 6l10 5l8 -14l-10 -5l-11 -6l-12 -5l-12 -5l-15 -5l-9 -3l-14 -5l-15 -7l-14 -7l-16 -4l1 -1l7 -9l7 -9l8 -9l10 -11l7 -8l8 -8l7 -8l7 -8l8 -6
l8 -11l8 -9l-12 -10l-8 9l-8 9l-8 6l-7 10l-7 8l-8 8l-7 8l-10 11l-8 9l-7 9l-6 7l-1 -1l-6 -6l-10 -10l-9 -13l-10 -9l-9 -9l-8 -7l-5 -8l-6 -10l-7 -10l-8 -9l-12 10l8 9l5 8l6 10l7 10l8 9l11 9l8 7l9 13l10 10l6 7l-4 2l-14 2l-15 7l-11 5l-12 6l-14 6l-12 7l-9 4l-10 5
l-12 6l6 14l14 -6l8 -5l11 -4l12 -7l12 -6l12 -6l11 -5l13 -5l14 -2l4 -2v2v10v16l2 11v11l3 13v11v13l1 10v11v16v12z" />
    <glyph glyph-name="plus" unicode="+" horiz-adv-x="574" 
d="M30 233l-4 16l16 3h17h14h17h17h11h10h20l20 2h10l19 1l19 2l15 3h11h14l14 3h2l1 10v13v16v14v14v16v12v15l-2 14v12v12v13v20l-1 11v17l1 15l16 -2l-1 -13v-17l1 -11v-20v-13v-12v-10l2 -14v-17v-12v-16v-14v-14v-16v-15l-1 -8l12 2h17h14h14h14h14h12h15h12h11h17
l12 -2l11 -1l11 -2l-2 -16l-11 2l-11 1l-12 2h-15h-11h-12h-15h-12h-14h-14h-14h-14h-15l-14 -2h-1v-3l-1 -16l-2 -14v-14l-1 -15l-2 -14v-12l-2 -14v-12l-1 -11v-11v-11l-2 -18l-1 -17v-10v-14v-11v-12v-10h-16v10v12v11v14v10l1 19l2 16v11v11l1 11v14l2 14v12l2 14l1 13
v16l2 14l1 14v3l-13 -3h-16h-9l-15 -3l-19 -2l-21 -1h-10l-20 -2h-20h-10h-11h-17h-17h-14h-15z" />
    <glyph glyph-name="comma" unicode="," horiz-adv-x="249" 
d="M70 -141l-10 12l8 7l8 7l8 8l9 11l7 13l8 12l5 10l5 13l3 11l5 13l1 10l2 14v9l-7 2l-12 6l-11 7l-9 9l-8 13l5 18l16 5l13 -1l11 -6l11 -8l7 -12v-15v-7l5 -3l-5 -9v-10l-2 -14l-1 -12l-5 -13l-3 -13l-7 -13l-5 -12l-8 -12l-7 -13l-11 -13l-10 -10l-8 -7z" />
    <glyph glyph-name="hyphen" unicode="-" horiz-adv-x="359" 
d="M36 256l-8 14l12 6h17h11h10h12h13h14h11h14h11l12 1h13h12h9l10 2h14h12h13h11v-16h-11h-13h-12h-12l-10 -2h-11h-12h-13l-12 -1h-11h-14h-11h-14h-13h-12h-10h-11h-13z" />
    <glyph glyph-name="period" unicode="." horiz-adv-x="228" 
d="M96 26l-1 1l-7 18l4 4l3 12l19 5l15 -14l-4 -16l-10 -11h-3v-1h-16v2zM110 50h-2l1 -1zM110 50l3 -3v1z" />
    <glyph glyph-name="slash" unicode="/" horiz-adv-x="360" 
d="M15 4l-16 6l6 14l5 14l4 12l7 9l2 9l5 12l4 11l3 11l5 12l3 11l5 11l3 10l4 11l5 11l6 17l5 9l2 10l4 12l7 19l4 11l7 20l7 19l5 11l6 18l5 10l6 20l7 19l6 21l7 21l5 9l4 11l5 13l5 9l2 13l6 11l6 20l5 11l6 20l5 10l5 18l4 10l4 15l5 10l6 18l6 17l4 14l6 15l4 12l4 11
l6 11l14 -8l-6 -9l-2 -11l-6 -12l-4 -13l-4 -14l-6 -19l-8 -18l-3 -10l-4 -15l-4 -10l-7 -18l-5 -10l-6 -20l-5 -11l-6 -20l-4 -11l-4 -13l-5 -9l-5 -13l-4 -11l-5 -9l-5 -19l-6 -21l-7 -21l-8 -20l-5 -10l-6 -18l-5 -11l-5 -19l-7 -20l-4 -11l-7 -19l-4 -10l-4 -12l-5 -9
l-6 -17l-5 -11l-2 -9l-3 -12l-5 -11l-3 -11l-5 -12l-3 -11l-6 -11l-3 -10l-4 -13l-7 -9l-2 -10l-7 -14z" />
    <glyph glyph-name="zero" unicode="0" horiz-adv-x="513" 
d="M235 669h-2l-11 -4l-8 -5l-13 -11l-8 -7l-7 -12l-8 -10l-6 -11l-8 -14l-6 -12l-4 -15l-6 -16l-5 -13l-4 -17l-5 -16l-3 -15l-3 -15l-3 -19l-3 -15l-2 -18l-2 -16v-11l-1 -18l-2 -17l-1 -16v-10v-15l-2 -16v-15v-16v-17v-16v-16v-15v-16v-14l3 -14l2 -15l3 -14l2 -13
l4 -13l4 -12l6 -13l6 -11l7 -10l6 -10l8 -9l8 -8l7 -8l10 -7l10 -2l14 -7l11 -4h9h13h9l10 5l12 5l10 5l9 6l9 8l7 7l8 9l7 8l6 10l7 11l7 13l7 14l5 13l5 9l4 13l3 11l4 13l3 13l2 15l5 12l1 13l3 12l2 12l2 14v12l3 13v11l1 13v12l2 14v10v12v15l-2 14l-1 14l-3 13v13v11
l-5 12l-3 14v13l-5 11l-2 12l-3 12l-5 10l-5 13l-6 10l-6 9l-5 14l-8 13l-6 12l-8 11l-5 9l-8 7l-6 10l-7 7l-8 5l-9 6l-8 7l-7 6l-13 5l-5 2l-7 1h-7zM252 684l3 -1l5 -1l15 -7l9 -8l8 -5l9 -6l8 -7l9 -9l6 -10l8 -7l7 -11l8 -11l6 -12l8 -15l5 -12l6 -9l6 -12l5 -13l5 -10
l5 -14l2 -12l5 -11v-15l3 -12l5 -12v-15v-11l3 -13l1 -14l2 -14v-17v-12v-12l-2 -14v-10l-1 -13v-13l-3 -13v-12l-2 -14l-2 -14l-3 -10l-1 -15l-5 -12l-2 -13l-3 -15l-4 -13l-3 -11l-6 -15l-5 -9l-5 -13l-7 -16l-7 -13l-7 -11l-8 -12l-7 -8l-8 -11l-9 -7l-9 -8l-11 -8
l-12 -5l-12 -5l-12 -7h-13h-13h-13l-13 6l-14 5l-10 4l-14 9l-9 8l-8 8l-10 11l-6 12l-7 10l-6 13l-6 13l-6 12l-4 15l-2 15l-3 14l-2 15l-3 14v16v16v15v16v16v17v16v15l2 16v15v10l1 18l2 17l1 16v11l2 18l2 18l3 15l3 19l3 17l3 15l5 16l4 17l5 15l6 16l6 15l6 14l8 14
l6 11l8 12l9 12l10 9l13 11l10 7l17 6h4h11z" />
    <glyph glyph-name="one" unicode="1" horiz-adv-x="406" 
d="M74 518l10 12l6 -4h11h11h11h11l11 1l9 3l13 3l11 4l11 6l11 7l11 6l8 7l7 7l8 9l8 9l5 7l5 9l6 11l5 10l5 10l3 9v11l4 15l12 9l3 -4l11 1l2 -12v-17v-14l1 -13l2 -18v-17v-10v-10v-16v-11v-11v-20l-2 -11l-1 -19v-11v-11v-11l-2 -22v-11v-11v-12v-11v-14l-1 -11v-12
l-2 -14v-11l-1 -13v-15l-2 -13v-15l-2 -13v-13v-12v-14v-14v-13v-14l-1 -12v-13v-12l-2 -11v-10v-17v-17l-1 -16v-12v-11v-11v-11v-11h-16v11v11v11v11v12l1 16v17v17v12l2 11v10v13l1 12v14v13v14v14v12v15l2 13v15l2 13v13l1 13v13l2 14v10l1 11v14v11v12v11v11l2 22v11
v11v11l1 21l2 11v18v11v11v16v10v10v17l-2 16l-1 15v9l-5 -13l-5 -10l-5 -12l-6 -11l-5 -9l-7 -9l-8 -9l-8 -9l-7 -9l-12 -9l-11 -6l-11 -7l-13 -6l-11 -6l-15 -3l-11 -3l-13 -1h-11h-11h-11h-17z" />
    <glyph glyph-name="two" unicode="2" horiz-adv-x="510" 
d="M111 442l-16 2l1 13v14l-1 14v12v13l1 12l2 12l4 14l4 15l3 10l4 13l6 12l6 10l9 12l10 10l7 8l11 8l11 8l10 7l16 7l14 1l9 4l11 3l12 1h11h12h11h11h11l16 -1l13 -6l12 -6l9 -9l9 -9l9 -9l6 -13l5 -13l5 -11l5 -13l2 -11l1 -11v-9l2 -11v-12v-15v-13v-11v-13l-2 -13
l-1 -13l-5 -14l-1 -11l-6 -12l-5 -10l-4 -12l-8 -10l-6 -8l-9 -9l-7 -9l-11 -9l-8 -7l-8 -7l-15 -9l-11 -6l-11 -7l-9 -6l-11 -5l-11 -6l-10 -5l-14 -7l-9 -5l-9 -6l-12 -5l-9 -5l-14 -7l-14 -8l-10 -7l-8 -7l-12 -7l-10 -7l-9 -6l-11 -9l-8 -8l-8 -10l-8 -9l-5 -9l-6 -10
l-7 -11l-4 -10l-6 -10l-1 -11l-5 -13l-3 -14l-3 -11l-3 -10v-11l-2 -14l-1 -11v-10v-8l3 -6l8 -1h11l13 -3h14l11 -2h10l11 -1h12h13h11h12h13h12h11h13h14h14h12h13h14h12h13h12h11h11h11h10h10l9 1l14 2l14 1l11 2l2 -16l-11 -2l-14 -1l-14 -2l-11 -1h-10h-10h-11h-11h-11
h-12h-13h-12h-14h-13h-12h-14h-14h-13h-11h-12h-13h-12h-11h-13h-12l-11 1h-12l-11 2h-14l-13 3h-11l-16 5l-9 14v12v10l1 13l2 14v11l3 12l3 11l3 14l5 13l1 13l8 12l4 10l7 11l6 10l7 11l8 9l8 10l10 10l11 9l9 8l12 7l10 7l8 5l12 9l14 8l14 7l11 5l10 5l9 6l9 5l14 7
l10 5l11 6l11 5l9 6l11 7l11 6l13 9l8 5l8 7l9 9l7 7l9 9l6 8l6 8l4 10l5 10l4 10l1 11l5 14l1 11l2 13v11v11v13v15v10l-2 11v11l-1 9l-2 9l-3 11l-5 11l-5 13l-6 9l-7 9l-7 7l-9 7l-10 6l-9 4l-12 1h-11h-11h-11h-12h-11l-8 -1l-9 -3l-11 -4l-14 -1l-12 -5l-8 -7l-11 -7
l-9 -7l-7 -8l-10 -8l-7 -10l-6 -10l-6 -10l-2 -11l-3 -10l-4 -15l-4 -14l-2 -10l-1 -10v-13v-12l1 -14v-14z" />
    <glyph glyph-name="three" unicode="3" horiz-adv-x="502" 
d="M104 462l-16 -2l-1 12v13v11v12l1 11l2 13l3 11l3 13l3 12l6 14l5 12l6 13l6 13l9 10l8 11l12 9l12 7l10 5l14 6l15 1l15 2l11 2l12 1h10h14h12l11 -3l11 -4l13 -7l10 -11l7 -11l7 -9l7 -12l7 -13l6 -10l6 -11l6 -12l3 -13l5 -11l3 -14l1 -15v-12l2 -12v-15v-14l-3 -13
l-2 -12l-7 -11l-3 -10l-5 -10l-7 -10l-9 -10l-7 -9l-13 -12l-12 -6l-13 -6l-10 -5l-12 -4l-12 -3l-6 -1h4l16 -5l15 -3l12 -7l14 -6l13 -8l11 -9l12 -9l6 -9l8 -11l7 -12l7 -10l7 -15l3 -12l3 -10l2 -12v-12l1 -10l2 -13v-12v-12v-11l-2 -12l-3 -18l-6 -9l-4 -12l-7 -10
l-8 -10l-7 -9l-13 -11l-9 -7l-11 -9l-11 -6l-9 -7l-15 -7l-12 -3l-11 -3l-14 -2h-15l-14 -1h-14h-15h-16h-16l-13 1l-13 3l-11 6l-14 6l-13 6l-8 9l-6 10l-5 11l-6 11l-5 13l-4 16l-2 13l-1 12v13l-2 10v13v11v12v14l2 11l16 -2l-2 -11v-12v-12v-11v-11l2 -10v-15l1 -10
l2 -11l4 -16l3 -11l6 -9l5 -11l6 -8l4 -7l9 -4l14 -6l11 -4l9 -3l11 -1h16h16h15h14l14 1h13l12 2l11 3l10 3l13 5l9 7l11 6l9 7l9 7l11 11l7 7l8 10l5 8l4 10l4 9l3 14l2 12v9v12v10l-2 13l-1 12v10l-2 10l-3 10l-3 10l-5 13l-7 10l-7 12l-6 9l-6 7l-10 9l-11 7l-11 8
l-12 6l-12 5l-13 3l-16 5l-10 1l-11 2h-14h-16l-13 2v16l13 3h10l11 3l10 3l12 1l10 2l12 3l10 2l8 5l13 6l10 6l11 10l7 7l9 10l5 8l5 8l3 10l5 11l2 10l3 11v12v13l-2 12v14l-1 13l-3 10l-5 11l-3 13l-4 10l-6 11l-6 10l-7 13l-7 10l-7 9l-7 11l-6 9l-9 5l-9 2l-9 3h-10
h-14h-10l-10 -1l-11 -2l-15 -2l-13 -1l-12 -4l-8 -5l-10 -7l-10 -7l-8 -9l-7 -8l-6 -11l-6 -13l-5 -12l-4 -12l-3 -12l-3 -13l-3 -11l-2 -11l-1 -9v-12v-11v-13z" />
    <glyph glyph-name="four" unicode="4" horiz-adv-x="545" 
d="M327 204v6v14v14l2 16v14v15v16v17l2 15v15v14v14l1 14v17l2 15l1 16l2 15v17v15v17v16v16v15v16v14v12l-2 14v21v9l-3 -5l-7 -8l-9 -19l-5 -9l-11 -17l-6 -10l-6 -9l-5 -10l-5 -9l-6 -8l-5 -11l-6 -9l-7 -10l-8 -10l-5 -8l-6 -10l-5 -9l-7 -10l-7 -8l-6 -9l-11 -18
l-13 -17l-11 -17l-6 -7l-5 -9l-6 -10l-9 -15l-7 -10l-9 -14l-6 -9l-8 -14l-6 -9l-8 -12l-8 -10l-6 -11l-5 -10l-6 -11l-8 -12l-5 -12l-1 -4h5h14h15h14h15h16h17h16h15h16h14h16h15h14h14h14h13h14h4zM44 186l-2 16l7 1l4 11l5 14l8 12l6 11l5 10l6 11l8 12l8 12l6 7l8 14
l6 9l9 14l7 10l9 15l6 10l5 9l6 9l11 17l13 17l11 18l8 9l7 8l5 8l5 9l6 10l7 10l8 10l5 8l6 9l5 11l6 8l5 9l5 10l6 9l6 10l11 17l5 9l9 19l7 8l7 14l7 14l2 3l-2 9l12 2l6 4l8 -14l-7 -5l-1 -1v-8v-10l1 -20v-19l2 -14v-14v-14v-16v-15v-16v-16v-17v-15v-19l-2 -15l-1 -16
l-2 -15v-15l-1 -14v-14v-14v-17l-2 -15v-15v-16v-15v-14l-2 -16v-14v-14v-6h3h13h11l15 1h15h12h11h11h11v-16h-11h-11h-11h-12h-15l-15 -1h-11h-13h-3v-3v-11v-13v-20v-11v-15v-16v-16v-14v-14v-12v-11v-13l-1 -11v-11h-16v11l1 11v13v11v12v14v14v16v16v15v11v20v13v11v3
h-4h-14h-13h-14h-14h-14h-15h-16h-14h-16h-15h-16h-17h-16h-15h-14h-15h-14h-13v-1l-2 1z" />
    <glyph glyph-name="five" unicode="5" horiz-adv-x="531" 
d="M431 627l-4 -16l-16 5h-11h-15h-20h-11l-19 1h-10h-10l-23 2l-18 2l-10 1l-19 2h-11l-18 1l-11 2l-10 1l-15 2l-10 2h-10h-12l-7 1l-2 -6l-2 -10l-3 -13v-15l-3 -16l-3 -17l-2 -16v-11v-11l-3 -17l-1 -11l-2 -19l-3 -18v-10l-3 -19l-2 -10v-10v-10l-1 -12l-2 -11l-3 -20
l-2 -17l-3 -17l-3 -11v-1l3 3l9 9l12 6l10 6l9 7l14 5l9 3l13 5l11 2l13 3l16 4h11l11 2h11l13 2h16l12 -2l12 -2l15 -6l11 -4l14 -10l8 -12l9 -10l9 -13l6 -9l7 -14l5 -17l5 -12l1 -13l4 -12l1 -14l2 -14v-15v-14v-14v-15l-2 -13l-5 -14l-4 -14l-6 -10l-6 -11l-9 -12
l-11 -12l-12 -10l-9 -7l-10 -8l-10 -6l-10 -5l-10 -4l-9 -5l-14 -4l-12 -3l-15 -2l-14 -1l-13 -2l-16 -1h-13h-12h-14l-12 4l-13 4l-15 11l-9 9l-7 10l-5 10l-5 11l-3 14l-5 14l-2 16v11l-1 12v14v10v12l1 11l16 -2l-1 -9v-12v-10v-14l1 -12v-9l2 -14l5 -14l3 -14l3 -9l5 -8
l5 -8l7 -7l11 -9l11 -2l10 -4h12h12h13l14 1l13 2l14 1l13 2l12 3l12 2l9 5l10 4l8 5l8 6l10 6l9 7l10 10l11 10l7 10l6 11l6 8l2 12l5 14l2 11v13v14v14v13l-2 14l-1 12l-4 12l-1 13l-5 10l-3 17l-7 12l-6 9l-7 11l-9 10l-8 10l-10 8l-9 2l-13 6l-10 2l-12 2h-12l-13 -2
h-11l-11 -2h-11l-14 -4l-13 -3l-11 -2l-11 -5l-11 -3l-10 -3l-7 -7l-12 -6l-10 -6l-9 -7l-8 -8l-8 -9l-15 7l1 11l1 11l3 13l3 15l2 17l3 20l2 11l1 10v10v12l2 10l3 19v10l3 18l2 19l1 11l3 17v9v11l2 18l3 17l3 16v15l3 15l4 12l8 14l15 1h12h12l10 -2l15 -2l10 -1l11 -2
l16 -1h11l21 -2l10 -1l18 -2l21 -2h10h10l19 -1h11h20h15h13z" />
    <glyph glyph-name="six" unicode="6" horiz-adv-x="553" 
d="M90 278v-7v-10v-17v-15v-17l2 -11l1 -17l4 -15l1 -17l6 -18l4 -16l5 -15l6 -15l6 -12l7 -10l8 -7l6 -8l9 -9l13 -6l13 -4l14 -5l9 -3h10l12 -1l15 -2h9h10h10h14h13l12 3h9l10 5l11 3l11 4l14 7l9 7l11 10l10 13l7 9l7 8l6 11l5 10l4 13l4 14l4 14l3 15l3 13v14v10v17
l-2 15l-3 11l-6 19l-5 19l-10 15l-8 15l-5 7l-11 12l-11 9l-13 8l-13 8l-13 6l-14 6l-15 3h-13h-14h-14h-16h-16l-15 -2l-15 -5l-14 -3l-15 -6l-15 -7l-11 -8l-11 -6l-8 -5l-7 -7l-8 -9l-7 -8l-7 -8l-5 -8l-6 -9zM400 519h-16v11v11v11v11v11v10l-3 11l-4 10l-4 14l-2 10
l-8 10l-7 11l-8 8l-8 11l-8 8l-8 7l-9 6l-12 2l-12 2h-9l-10 -2l-10 -1l-12 -5l-12 -7l-14 -7l-12 -9l-14 -11l-11 -11l-6 -8l-13 -14l-4 -8l-11 -18l-4 -10l-5 -9l-3 -11l-6 -12l-5 -8l-4 -12l-3 -11l-3 -12l-3 -11l-3 -13l-3 -12l-3 -11l-4 -20l-3 -10l-1 -11l-2 -10
l-1 -11l-2 -10l-2 -20v-19l-1 -19l-2 -10v-11l7 8l7 8l8 9l9 9l10 7l11 6l11 8l17 7l17 8l14 3l15 5l19 2h16h16h14h14h15l17 -3l16 -8l15 -6l13 -8l15 -8l13 -11l11 -14l7 -9l8 -15l10 -17l7 -21l6 -19l3 -11l2 -19v-17v-10v-16l-3 -15l-3 -15l-4 -14l-4 -14l-6 -15l-5 -12
l-8 -13l-7 -8l-7 -9l-10 -13l-13 -12l-11 -9l-16 -7l-11 -6l-11 -3l-12 -5h-11l-12 -3h-15h-14h-10h-10h-11l-15 2l-10 1h-12l-11 3l-16 5l-13 6l-15 6l-13 13l-6 8l-8 7l-9 12l-6 14l-6 15l-7 17l-4 16l-6 18l-1 19l-4 15l-1 17l-2 11v19v11l-11 1l2 12l2 13l7 12v2v8v17
v18l2 10l1 17v19l2 22l2 10l1 11l2 10l1 11l3 12l4 20l3 11l3 12l3 13l3 11l3 12l3 11l6 14l5 10l6 10l3 11l5 9l4 10l11 20l6 10l13 14l6 8l13 13l14 11l14 11l14 7l12 7l16 7l12 1l10 2h13l12 -2l16 -4l13 -8l8 -7l10 -10l8 -11l8 -8l9 -11l8 -14l4 -12l4 -12l4 -12l3 -13
v-12v-11v-11v-11v-11v-11z" />
    <glyph glyph-name="seven" unicode="7" horiz-adv-x="574" 
d="M105 650l-4 16l12 3h13h12l15 2h17l17 2h20h18h10l11 1h10h17l19 2l17 1h20h10l17 2h11l15 1h15l12 2h12h10h16l12 -5l14 -6l1 -19l-10 -11l-8 -7l-10 -10l-8 -8l-9 -13l-8 -9l-11 -11l-9 -11l-10 -12l-9 -11l-11 -13l-8 -12l-8 -12l-8 -13l-8 -10l-7 -13l-8 -12l-8 -13
l-8 -12l-8 -16l-8 -12l-7 -15l-7 -14l-7 -16l-5 -14l-8 -14l-5 -17l-6 -13l-5 -9l-5 -16l-4 -13l-5 -15l-2 -10l-4 -14l-5 -15l-5 -18l-3 -15l-5 -15l-1 -15l-5 -17l-3 -15v-14l-2 -17l-3 -14l-1 -15v-15l-2 -15v-12v-11h-16v11v14l2 15v13l1 17l3 14l2 15v16l3 17l5 15
l1 15l5 17l3 15l5 18l5 15l4 14l2 10l5 15l4 15l7 16l5 9l4 13l7 17l8 14l5 14l7 16l7 14l7 17l8 12l8 16l8 12l8 13l8 12l7 13l8 12l8 11l8 14l10 12l11 13l9 11l10 12l9 11l11 11l8 9l9 13l8 10l12 10l8 7l6 5l1 3h-8l-10 5h-12h-10h-10l-12 -2h-17l-15 -1h-11l-17 -2h-10
h-20l-15 -1l-21 -2h-17h-10l-11 -1h-10h-18h-20l-17 -2h-15l-15 -2h-14h-11z" />
    <glyph glyph-name="eight" unicode="8" horiz-adv-x="492" 
d="M244 353l-8 -5l-11 -8l-12 -6l-8 -6l-11 -5l-7 -8l-11 -8l-11 -8l-9 -8l-8 -10l-8 -9l-5 -9l-7 -9l-6 -13l-4 -12l-3 -9l-1 -11l-2 -11v-10v-13v-14v-11v-10v-9l2 -11l3 -10l2 -10l6 -10l7 -11l7 -9l6 -10l6 -7l10 -7l9 -8l9 -6l11 -6l13 -4l10 -4l13 -4l9 -4l12 -2
l10 -3l11 -1h11h10h8l7 6l9 6l8 8l8 6l8 13l6 7l4 11l6 8l7 13l4 14l6 11l1 9l2 10l1 13l2 12v9v12v10l1 14v11l-3 10l-3 10l-3 10l-7 10l-8 11l-8 11l-8 7l-8 9l-9 8l-8 8l-8 6l-9 8l-8 7l-12 6l-10 9l-11 9zM228 362l-7 6l-8 6l-8 6l-9 6l-10 4l-9 8l-9 7l-8 8l-8 6
l-10 11l-6 8l-8 10l-5 15l-3 10l-2 12v11v9h-1l1 11v2l-1 13l1 1v9v14l2 12l3 10l1 10l2 11l1 11l5 10l2 12l4 12l5 11l8 12l9 6l8 8l12 7l11 6l10 1l11 5l12 2l13 1h11h11l13 -1l12 -2l9 -6l11 -4l10 -8l8 -6l9 -9l9 -11l9 -11l4 -12l5 -10l5 -11l5 -11l4 -11l4 -13l2 -12
l1 -14l2 -11v-15v-13v-13l-3 -12l-4 -14l-5 -10l-6 -9l-5 -10l-9 -10l-8 -9l-10 -9l-9 -8l-8 -6l-9 -8l-11 -8l-12 -9l-12 -8l-10 -7l4 -3l11 -9l8 -7l14 -6l8 -9l9 -8l8 -6l8 -8l9 -8l10 -9l8 -9l8 -11l8 -11l9 -12l5 -14l3 -10l3 -12v-13l-1 -14v-10v-12v-11l-2 -12
l-1 -13l-2 -10l-1 -11l-8 -13l-4 -14l-7 -15l-6 -8l-4 -11l-8 -9l-8 -13l-10 -8l-8 -8l-9 -6l-11 -8l-14 -2h-10h-11l-13 1l-12 3l-14 2l-9 6l-13 2l-10 6l-13 4l-13 6l-11 8l-9 8l-10 7l-8 9l-8 10l-7 11l-7 11l-6 12l-4 12l-3 10l-2 13v11v10v11v14v13v12l2 11l1 11l3 13
l6 12l6 15l7 11l7 9l8 9l8 10l11 10l11 8l11 8l7 8l13 7l8 6l12 6zM243 371l9 4l8 7l14 8l10 7l11 8l9 8l8 6l9 8l8 9l8 7l7 8l5 10l6 9l5 8l2 12l3 10v11v13v13l-2 11l-1 14l-2 10l-4 11l-4 11l-3 11l-5 11l-5 10l-4 10l-7 9l-9 11l-7 7l-8 6l-8 6l-9 4l-9 4l-8 2l-11 1
h-11h-11l-11 -1l-10 -2l-11 -5l-10 -1l-7 -4l-10 -5l-8 -8l-7 -6l-6 -8l-5 -9l-2 -10l-2 -14l-5 -8l-1 -9l-2 -11l-1 -12l-3 -10l-2 -10v-12v-12v-11v-2v-8v-12v-9l2 -10l3 -10l3 -11l6 -8l6 -8l8 -9l8 -6l8 -8l9 -7l7 -6l10 -4l11 -8l8 -6l8 -6l8 -7z" />
    <glyph glyph-name="nine" unicode="9" horiz-adv-x="514" 
d="M225 669v-5h-8l-6 -4l-7 -8l-9 -9l-10 -8l-8 -13l-11 -11l-5 -9l-4 -12l-8 -12l-7 -12l-6 -15l-5 -16l-5 -16l-6 -16l-3 -16l-3 -17l-2 -10l-1 -17v-16v-17v-16v-15l1 -12l5 -14l8 -13l7 -14l7 -11l7 -10l6 -9l9 -8l8 -7l15 -15l12 -7l11 -5l10 -2l11 -6l12 -2h10h10h9
l11 4l9 2l11 6l9 5l6 8l10 8l7 9l7 12l7 10l9 14l6 13l5 12l5 8l2 10l4 11l2 12l3 10l2 10l1 10v11v12v14v14v14l-1 14v13l-3 13l-4 16l-4 14l-5 15l-5 13l-8 10l-8 13l-6 11l-7 9l-8 9l-7 8l-7 7l-8 6l-10 7l-11 3l-12 3l-13 2h-10h-14h-9zM395 383l-2 -11l-4 -11l-4 -12
l-5 -10l-5 -10l-6 -15l-9 -14l-7 -10l-7 -12l-9 -13l-10 -8l-8 -8l-11 -7l-13 -6l-11 -4l-13 -4h-11h-10h-12l-16 2l-11 6l-10 2l-13 7l-14 9l-15 15l-8 7l-11 10l-8 9l-7 12l-7 11l-7 14l-8 15l-7 16l-1 16v15v16v17v16l1 19l2 10l3 17l3 18l6 18l5 16l7 16l6 15l7 14l8 12
l4 10l7 13l11 11l8 13l10 10l9 9l9 8l12 8h8v5h13h14h12l15 -2l12 -3l15 -5l12 -9l8 -6l9 -9l7 -8l8 -9l9 -11l6 -11l8 -11l8 -12l7 -15l5 -17l4 -14l4 -16l3 -15v-15l1 -7l14 -4l-4 -15v-11v-11v-11v-13v-14v-14v-14v-15l-2 -14v-14l-1 -19l-2 -12l-2 -13l-3 -15l-1 -13
l-2 -14l-1 -12l-4 -14l-1 -14l-3 -18l-3 -15l-5 -15l-3 -14l-5 -15l-6 -15l-6 -11l-6 -14l-5 -10l-9 -13l-9 -11l-9 -11l-8 -10l-10 -12l-11 -8l-10 -5l-8 -7l-11 -6l-11 -5l-16 -5h-13h-13h-13l-14 2l-14 5l-11 8l-12 7l-9 9l-8 10l-10 15l-8 14l-7 16l-2 11l-5 10l-3 13
l-1 15l-2 13v12h16v-10l2 -13l1 -15l3 -9l5 -12l2 -11l5 -12l8 -14l8 -13l8 -10l7 -7l10 -5l11 -8l10 -3l12 -2h11h13h11l12 5l11 3l7 4l8 9l12 5l9 6l8 10l8 10l9 11l9 11l7 11l5 8l6 16l6 9l4 15l5 13l3 14l5 15l3 13l3 18l1 14l4 14l1 12l2 14l1 13l3 15l2 13l2 12l1 17
v16l2 14v13z" />
    <glyph glyph-name="colon" unicode=":" horiz-adv-x="250" 
d="M112 51l-2 -16v15zM126 53l-1 1v-1h1zM140 40l1 -1l-2 -1l-1 -2l-1 -2v-1l-2 -4l-7 -3l-7 -2l3 -2l18 4l1 2l-15 -2l-7 -2h-1l-8 6h2l6 -5l1 5l-1 1h1l-5 8l2 2l2 1v1l1 1l1 4l-1 4l2 2v1h1l10 5l1 2h1h1v-1l3 -3l5 2l1 -6l2 -2l-2 -1v-1l1 -6l-3 2l-2 -4l-3 -1zM111 432
l-2 1v6l-3 3l2 19l14 12l18 -2l5 -17l-2 -4l4 -7l-4 -7v-2l-1 -9l-16 -11l-16 13zM142 42l-1 -1h1l1 -13l7 14v16l-14 11l-19 -1l-12 -11l-1 -18l2 -11l6 2l-2 1v1l4 -2l6 1l-6 6l2 2v1l2 1l2 2l-1 8l2 1v2l-8 -2l9 7l2 -4l10 5l1 1v1h1h1l8 -2l1 -6l2 -2l-2 -2l1 -6z" />
    <glyph glyph-name="semicolon" unicode=";" horiz-adv-x="274" 
d="M95 -142l-12 10l15 17l11 10l6 9l7 8l8 14l5 10l6 8l8 16l3 13l5 15l2 14v14v9l-12 -1l-10 8l-9 10l-8 8l-8 14v16l6 7v4h4v1l16 1l14 -4l11 -10l6 -11l4 -11l2 -13v-15v-13v-14l-2 -18l-5 -15l-5 -15l-8 -18l-6 -8l-5 -10l-10 -16l-7 -8l-6 -9l-11 -12zM117 463l16 4
l1 1l12 -4l2 -6l6 -1v-4l4 -3l-2 -18l-9 -13l-16 -6l-15 10l-1 18v1l1 2l3 12z" />
    <glyph glyph-name="less" unicode="&#x3c;" horiz-adv-x="475" 
d="M114 242l1 -1l11 -11l11 -9l11 -10l10 -11l15 -12l11 -14l16 -11l8 -7l15 -12l13 -11l9 -6l13 -13l12 -9l14 -13l13 -9l11 -11l9 -8l13 -10l12 -8l9 -8l7 -8l9 -6l9 -7l-10 -12l-9 7l-9 6l-9 8l-7 8l-12 6l-13 12l-9 8l-11 11l-13 9l-14 13l-12 9l-13 13l-9 6l-13 11
l-15 12l-8 7l-16 11l-13 14l-13 12l-12 11l-9 10l-11 9l-11 11l-10 8l5 6l-3 2l9 17l11 12l19 20l8 8l16 14l12 11l7 8l14 12l9 6l13 11l7 8l15 11l13 11l8 10l12 11l9 12l10 9l9 11l10 8l8 8l11 8l7 6l7 9l11 7l8 -14l-9 -5l-5 -7l-9 -8l-11 -8l-6 -8l-10 -8l-9 -11l-10 -9
l-9 -10l-12 -11l-8 -12l-15 -11l-13 -11l-7 -8l-15 -11l-9 -6l-12 -12l-7 -8l-14 -11l-14 -14l-8 -8l-19 -20l-11 -10z" />
    <glyph glyph-name="equal" unicode="=" horiz-adv-x="542" 
d="M72 305l-4 16l12 3h16l16 2h11l11 1h11h12h13h11h14h12h13l15 -1h16l10 -2h12l12 -1h13h12l11 -2h11h10h12h11l12 -2h15l15 -1h14l12 -2l10 -1l-2 -16l-10 1l-12 2h-12l-15 1h-17l-12 2h-9h-12h-10h-13l-11 2h-10h-13l-12 1h-14l-10 2h-14l-15 1h-13h-12h-14h-11h-13h-12
h-11l-11 -1h-11l-16 -2h-14zM98 163l-4 16l12 3h12l16 1h19h11l10 2h13h14h10l13 2h13h11h12h13h12h10l19 1h11h17h18h16h13h11h12h13l13 -1l-2 -16l-11 1h-13h-12h-11h-13h-16h-18h-17h-11l-19 -1h-10h-12h-13h-12h-11h-11l-13 -2h-12h-14h-11l-10 -2h-13h-19l-16 -1h-10z
" />
    <glyph glyph-name="greater" unicode="&#x3e;" horiz-adv-x="560" 
d="M149 497l16 4l1 -8l9 -4l14 -10l16 -9l10 -6l15 -11l17 -11l8 -7l15 -13l15 -10l16 -10l8 -8l14 -11l8 -6l13 -10l15 -11l14 -10l14 -10l13 -9l12 -10l8 -7l11 -8l11 -10l8 -7l10 -10v-18l-11 -13l-12 -12l-9 -8l-10 -9l-14 -7l-11 -10l-13 -13l-15 -11l-14 -12l-12 -11
l-13 -11l-10 -10l-11 -11l-13 -10l-11 -8l-8 -11l-12 -10l-11 -9l-11 -9l-9 -8l-9 -10l-12 -10l-9 -8l-8 -8l-9 -6l-8 -8l-7 -6l-6 -7l-12 10l6 9l9 6l8 8l9 6l8 8l9 8l10 10l11 10l9 8l11 9l11 9l10 10l10 11l11 8l13 10l9 11l12 10l13 11l12 11l14 12l15 11l11 13l15 12
l14 7l8 7l7 8l12 12l9 7v6l-6 4l-8 7l-11 10l-11 8l-8 7l-12 10l-13 7l-14 12l-14 10l-15 11l-13 10l-8 6l-14 11l-8 8l-14 8l-17 12l-15 13l-8 5l-17 11l-15 11l-8 6l-16 9l-14 10l-13 8z" />
    <glyph glyph-name="question" unicode="?" 
d="M250 61l2 -4l14 -9l-2 -13l-9 -10h-2l-1 -3l1 -1l-9 -14h-6l-2 1l-17 -2l-9 14v3v1v13l4 14l12 11h9v1l4 -1h5v-1h6zM150 484l-14 -8l-7 13v17l3 14l2 12l3 11l3 13l2 11l4 15l4 11l7 11l4 12l5 10l6 11l7 9l8 11l10 10l8 8l8 6l8 8l12 6l12 6l14 3h12l9 1l11 2h12h12
l12 -2l11 -4l12 -7l9 -8l9 -7l7 -10l5 -10l6 -12l6 -12l5 -14l3 -12l3 -10l5 -15v-11l3 -15v-12v-11v-11v-15l-3 -14l-5 -15l-4 -11l-7 -13l-7 -11l-7 -11l-8 -12l-8 -8l-8 -9l-6 -10l-10 -10l-7 -7l-8 -9l-8 -9l-8 -7l-6 -8l-10 -10l-5 -7l-6 -11l-5 -10l-6 -11l-5 -10
l-6 -11l-5 -10l-5 -12l-1 -12l-5 -13l-2 -13l-1 -13v-14v-11v-11h-16v11v11v14l1 15l2 15l5 13l1 12l7 14l5 12l6 11l5 10l6 11l5 10l6 11l7 9l10 10l6 8l8 9l8 7l8 9l7 9l10 8l6 10l8 9l8 8l6 10l7 11l7 11l7 11l2 9l5 15l3 12v13v11v11v10l-3 15v11l-5 13l-3 10l-3 12
l-3 12l-6 10l-6 12l-5 10l-5 8l-7 5l-9 8l-8 5l-9 2l-10 2h-10h-10l-11 -2l-11 -1h-10l-10 -3l-10 -4l-10 -6l-8 -6l-8 -6l-6 -8l-10 -8l-8 -11l-5 -7l-6 -11l-5 -8l-4 -14l-7 -9l-2 -9l-4 -15l-2 -11l-3 -13l-3 -11l-2 -12l-3 -12v-11z" />
    <glyph glyph-name="at" unicode="@" horiz-adv-x="916" 
d="M590 414l-6 1l3 13v11l-4 13l-5 8l-8 9l-8 8l-13 11l-11 7l-13 8l-11 6l-10 4l-13 1l-15 2h-15l-13 -4l-13 -8l-13 -8l-12 -11l-11 -12l-5 -11l-5 -9l-9 -16l-3 -10l-6 -11l-6 -18l-4 -18l-2 -11l-3 -11l-2 -9v-9l-1 -10v-20v-17v-16l1 -15l2 -12l7 -13l6 -12l8 -12l9 -8
l11 -8l8 -7l10 -3l10 -4l11 -3l12 -1h12h10l9 4l11 4l12 3l7 7l11 8l8 8l9 11l7 9l5 10l4 11l7 9l3 13l4 12l4 11l5 8v1v11l1 18l4 16l1 17l2 16l3 16zM631 532l12 -10l-7 -9l-3 -11l-5 -11l-3 -13l-5 -18l-6 -13l-3 -17l-5 -17l-3 -15l-3 -14l-2 -16l-1 -17l-4 -16l-1 -16
v-11v-17v-16v-10v-15l3 -16l3 -13l4 -13l5 -11l5 -6l7 -5l9 -4l9 -3h12l11 3l10 2l8 6l12 7l9 8l13 9l8 9l11 12l13 14l8 14l6 8l10 15l7 14l7 18l5 16l6 18l2 17l4 16l2 15v16v15l-3 14l-3 10l-5 15l-4 15l-8 13l-7 14l-7 12l-11 12l-9 12l-7 6l-13 12l-9 7l-12 14l-7 7
l-9 7l-15 10l-17 11l-15 9l-15 5l-10 3l-18 7l-17 6l-15 3l-10 3l-17 5l-15 4l-14 2l-14 2l-13 1h-14h-14l-13 -1l-16 -2l-15 -7l-17 -8l-18 -7l-8 -6l-10 -7l-10 -6l-10 -4l-7 -8l-8 -6l-8 -8l-9 -6l-7 -8l-8 -7l-8 -9l-8 -8l-5 -8l-7 -11l-8 -9l-7 -9l-6 -10l-6 -11
l-7 -12l-4 -11l-7 -12l-3 -13l-6 -12l-6 -11l-2 -12l-5 -14l-3 -12l-3 -12l-2 -14v-13l-1 -13l-2 -13v-11v-14v-13v-12v-13l2 -12l3 -11l4 -10l7 -22l3 -11l5 -8l6 -11l5 -10l7 -8l7 -12l5 -8l10 -9l8 -10l15 -17l8 -9l7 -7l11 -9l9 -8l9 -8l9 -7l11 -6l8 -6l11 -5l10 -6
l11 -4l13 -4l10 -5l11 -2l13 -5l21 -3l11 -1l12 -2l11 -1l14 -2h10h13h20l18 2l18 3l9 1l14 5l11 3l15 5l9 2l17 8l16 8l14 7l16 10l14 9l13 8l11 10l8 6l7 9l10 8l10 -12l-8 -8l-9 -9l-8 -6l-11 -10l-15 -10l-14 -9l-16 -10l-16 -7l-16 -8l-17 -8l-11 -4l-15 -5l-11 -3
l-14 -5l-11 -1l-18 -3l-20 -2h-20h-13h-12l-14 2l-11 1l-12 2l-11 1l-23 3l-13 5l-13 2l-10 7l-11 2l-15 6l-10 6l-11 5l-8 6l-11 6l-11 9l-9 8l-9 8l-11 9l-9 9l-8 9l-15 17l-8 10l-10 9l-7 10l-5 10l-9 8l-5 12l-6 11l-5 10l-5 11l-7 22l-4 12l-3 11l-2 14v15v12v13v14v13
l2 13l1 11v15l2 14l3 14l3 12l5 14l4 14l6 11l4 12l5 13l7 12l4 11l7 14l6 11l6 12l9 9l8 9l5 9l7 10l8 8l8 9l8 9l9 8l9 6l8 8l8 6l7 8l12 6l10 6l8 5l10 8l20 7l17 8l17 9l18 2l15 1h14h14l15 -1l14 -2l16 -2l15 -4l17 -5l10 -3l15 -3l19 -6l18 -7l10 -3l15 -7l17 -9
l17 -11l17 -12l9 -7l9 -7l12 -14l7 -7l13 -12l9 -6l9 -14l11 -12l9 -14l7 -14l8 -15l6 -17l5 -15l3 -10l3 -16v-17v-16l-2 -19l-4 -14l-2 -19l-6 -18l-5 -18l-9 -18l-7 -16l-10 -17l-6 -8l-10 -14l-13 -14l-11 -12l-10 -11l-13 -9l-9 -8l-14 -9l-10 -6l-12 -4l-13 -3h-18
l-11 5l-11 4l-9 7l-9 10l-5 13l-6 15l-3 13l-3 18v15l-2 -6l-7 -11l-4 -9l-5 -12l-9 -11l-9 -11l-10 -10l-11 -8l-9 -9l-14 -5l-11 -4l-13 -4h-12h-12l-14 1l-13 3l-12 4l-12 5l-10 9l-11 8l-11 10l-10 14l-6 12l-9 15l-2 16l-1 17v16v17v20l1 10v11l2 11l3 11l2 11l4 18
l8 20l6 11l3 10l9 18l5 9l5 11l13 16l14 11l15 10l15 8l17 6h17l17 -2l15 -1l12 -6l13 -6l13 -8l13 -9l13 -11l10 -10l8 -9l7 -12l2 -5l5 13l5 16l3 15l7 11l3 11z" />
    <glyph glyph-name="A" unicode="A" horiz-adv-x="549" 
d="M163 263l12 2h12h13h12h13h11h12l11 -3h11l11 -2h10h13h11h12h11h10h10h10h9l11 2l13 1h4l-2 16v12l-1 9l-2 11v12v11v9v12v9v9l-1 9v10v9v12l-1 17l-1 15l-1 10v14l-1 13l-2 14v19v9l-2 15l-2 14l-2 14l-3 14l-1 11l-4 10l-2 13l-2 8l-6 11l-3 12l-5 7l-4 6l-6 6l-5 6
l-8 4l-7 3l-6 2h-8h-11l-6 -1l-10 -3l-9 -2l-8 -2l-6 -4l-5 -4l-5 -8l-4 -8l-6 -9l-7 -13l-4 -7l-3 -8l-4 -10l-4 -8l-3 -11l-4 -11l-4 -14l-4 -11l-4 -11l-2 -10l-1 -12l-1 -9l-3 -13l-1 -15l-3 -16l-2 -16l-1 -15l-3 -11l-2 -19l-3 -13l-2 -11l-2 -12l-2 -14l-2 -13
l-2 -11l-4 -15l-3 -15l-1 -13l-2 -15zM143 10l-16 2l2 11v8l1 16v9l1 13v13l2 10v12v12l2 12v11l1 11v10l1 12v15v10l2 15l2 15l1 13l2 15l4 16l2 13l1 13l3 17l4 15l2 9l2 13l2 14l2 12l2 13l3 11l2 21l3 9l1 15l2 16l3 16l1 15l3 13l1 9l1 12l2 12l4 13l4 11l4 12l4 13
l5 11l4 8l2 10l5 10l4 7l7 13l6 9l4 8l7 10l7 6l8 6l12 4l9 2l10 3l10 1h11h10l10 -2l9 -5l10 -6l7 -8l6 -6l6 -8l5 -9l3 -12l6 -11l4 -10l2 -13l4 -10l1 -13l3 -14l2 -14l2 -14l2 -17v-9v-17l2 -14l1 -15v-14l1 -8l1 -17l1 -17v-12v-9v-10l1 -9v-9v-9v-12v-9v-11v-10l2 -11
l1 -11v-10l3 -22v-13v-12l2 -11l1 -13l1 -10l2 -12v-10l2 -12l1 -10l1 -10l1 -10l1 -10v-11l1 -10l2 -9l2 -17l1 -9l1 -13l2 -11l3 -9l1 -11l2 -10v-11h-16v9l-2 10l-1 9l-3 9l-2 13l-1 13l-1 9l-2 17l-2 9l-1 12v11l-1 8l-1 10l-1 10l-1 10l-2 12v10l-2 12l-1 10l-1 13
l-2 11v14v1h-5l-11 -1l-11 -2h-11h-10h-10h-10h-11h-12h-11h-13h-12l-11 2h-11l-11 3h-10h-11h-13h-12h-13h-10l-14 -2l-1 11l-2 -7l-2 -13l-1 -13l-2 -15l-2 -15v-8v-15l-1 -12v-10l-1 -11v-13l-2 -12v-10v-14l-2 -10v-11l-1 -13v-9l-1 -16v-10z" />
    <glyph glyph-name="B" unicode="B" horiz-adv-x="491" 
d="M287 360l10 -3l17 -3l10 -12l12 -9l7 -10l7 -6l6 -13l3 -13l3 -9l6 -10l9 -17l1 -10l5 -15l1 -12l4 -13l2 -12l1 -13v-10v-12v-9v-12v-11l-1 -14l-6 -13l-3 -15l-9 -13l-12 -11l-10 -7l-8 -8l-15 -7l-12 -5l-8 -5l-16 -4l-13 -5l-18 -4l-15 -1l-14 -3l-15 -1l-16 -1
l-14 -4h-14h-16h-10h-15h-15l-11 6l8 14l4 -2v9v17v11v15v17v12v13v14v12v10v12v12v15v11v11v12v12v10v12v13v14v10v13v17v14v13v13v15v15v14v18v16v18v17v15v13v15v14v15v14v13v16v11l4 14v12v9v13v11v11v5l-5 14l14 4h12h12h11l13 -2h9l17 -2h14l14 -1h10l15 -1l12 -5
l15 -2l13 -7l14 -6l10 -10l9 -5l8 -13l5 -8l8 -10l5 -11l4 -8l5 -14l3 -11l7 -12l3 -16l1 -14v-9v-14v-10l-1 -12l-1 -12l-4 -10l-7 -11l-3 -14l-4 -11l-4 -12l-5 -11l-7 -13l-8 -8l-10 -8l-7 -8l-8 -7l-13 -4zM137 358l11 3l50 7l69 3l11 1l11 9l13 4l4 5l9 8l10 8l6 6
l5 11l5 9l2 10l4 11l5 16l7 11l2 8l1 10l1 10v10v14v9l-1 12l-3 12l-5 12l-5 13l-3 12l-4 6l-5 11l-6 8l-7 10l-4 9l-9 3l-10 10l-12 6l-9 5l-15 2l-12 5l-11 1h-10l-14 1h-14l-17 2h-11l-13 2h-9h-12h-5v-7v-11v-11v-13v-9v-14l-4 -14v-9v-16v-13v-14v-15v-14v-15v-13v-15
v-17v-18v-16v-18v-14v-15v-15v-8zM133 339v-12v-17v-13v-10v-14v-13v-12v-10v-12v-12v-11v-11v-15v-12v-12v-10v-12v-14v-13v-12v-17v-15v-11v-17v-11h13h10h16h12l14 4l16 1l15 1l14 3l15 1l16 4l11 5l16 4l8 3l12 5l11 7l8 6l10 7l10 9l7 9l1 13l6 13l1 10v11v12v9v12v10
l-1 11l-2 10l-4 15l-1 10l-5 15l-1 10l-7 13l-6 12l-5 11l-3 11l-4 9l-5 6l-7 8l-12 9l-6 10l-13 1l-8 3h-11l-38 1l-55 -2l-40 -1l-2 -4l-3 1v-1z" />
    <glyph glyph-name="C" unicode="C" horiz-adv-x="625" 
d="M511 502l-16 -2l-2 12v11l-2 8l-5 12l-4 11l-5 12v12l-4 10l-3 11l-4 10l-3 11l-6 10l-5 9l-6 11l-5 9l-5 7l-7 7l-9 5l-11 5l-10 5l-12 6l-12 6l-9 2l-14 3l-11 4h-9l-14 1h-11h-12h-12l-9 -3l-10 -4l-8 -7l-7 -6l-4 -9l-2 -8l-1 -11l-3 -13l-3 -16l-2 -17l-5 -16
l-1 -19l-3 -17l-2 -16v-10l-1 -17v-17l-2 -16v-17v-19v-15l-2 -19v-11v-19l-1 -21l-2 -19v-11v-10v-10v-10v-11v-11l-1 -17v-11v-11v-15v-10v-20v-17l1 -18l2 -17l3 -17v-16l3 -12l3 -15l3 -11l3 -12l6 -13l7 -10l8 -7l14 -5l14 -5l11 -1l13 -4l10 -3l10 -1l10 -2h10h12h11
h10h11l13 2l12 3l11 4l10 4l8 10l11 9l8 10l7 10l8 13l5 8l4 11l8 11l3 10l4 9l1 10l4 11l1 14l2 14v12v12v13v11v11v11h16v-11v-11v-11v-13v-12v-14l-2 -14l-1 -16l-4 -11l-1 -10l-6 -11l-3 -10l-8 -13l-4 -9l-5 -10l-8 -13l-9 -12l-8 -10l-11 -11l-12 -12l-12 -4l-11 -6
l-16 -3l-13 -2h-13h-10h-11h-12h-12l-10 2l-10 1l-12 3l-13 4l-11 1l-16 5l-16 7l-12 11l-9 12l-8 15l-3 14l-3 11l-3 15l-3 14v16l-3 17l-2 17l-1 20v17v20v10v15v11v11l1 17v11v11v10v10v10v11l2 21l1 19v19v11l2 19v15v19v17l2 16v17l1 17v10l2 18l3 17l1 19l5 18l2 15
l3 18l3 11l1 11l2 12l8 13l9 8l10 9l12 6l13 3h14h12h11l14 -1h11l13 -4l14 -3l11 -4l12 -6l14 -6l8 -5l13 -5l11 -7l9 -9l7 -9l5 -9l6 -11l5 -9l6 -12l3 -11l6 -10l3 -13l4 -12v-10l5 -10l2 -11l7 -12l2 -12v-11z" />
    <glyph glyph-name="D" unicode="D" horiz-adv-x="570" 
d="M153 26l-16 4l3 14v10v16v11v18v11v18v15v16v12v11v13v10l-2 11v12v10v11l-1 14v13v16v17v17v17v10v17v17v16v17v17v17v17v17v10l1 18l2 17l1 14l2 14v12v12l2 11v11v11v10l1 10v11v11v13v11l2 16l18 6h12h10h10h11h12l13 -3l10 -2l13 -3l12 -6l11 -6l8 -5l10 -3l10 -6
l9 -5l13 -6l9 -5l10 -6l9 -7l7 -8l8 -6l8 -6l10 -11l7 -8l9 -9l9 -9l6 -12l6 -10l5 -9l5 -10l3 -10l6 -12l4 -11l5 -14l1 -12l4 -10l1 -12l2 -10v-10l3 -11l1 -13v-9l2 -11v-13v-14v-10v-12v-12l-2 -14l-1 -13l-3 -10v-11l-3 -12l-2 -10l-2 -13l-1 -14l-3 -12l-3 -12l-2 -11
l-3 -13l-3 -11l-2 -12l-7 -12l-4 -11l-3 -11l-6 -13l-6 -10l-6 -12l-7 -9l-7 -8l-6 -8l-7 -9l-9 -6l-8 -8l-9 -7l-6 -7l-9 -8l-9 -7l-12 -8l-12 -6l-12 -4l-11 -3l-12 -2l-11 -1l-12 -2h-12l-11 -1h-12l-12 -2h-14h-12h-11h-13l-13 4l-9 7l10 12l7 -5l7 -2h11h11h12h12l12 2
h14l11 1h10l12 2l11 1l10 2l11 3l10 2l10 6l10 8l9 5l7 6l6 9l11 7l8 8l9 6l5 7l6 8l7 8l5 7l6 12l6 10l4 11l3 11l6 11l5 12l2 10l3 11l3 13l2 11l3 12l3 10l1 14l2 13l2 12l3 10v11l3 10l1 13l2 14v10v12v10v14v11l-2 11v11l-1 11l-3 11v10l-2 10l-1 10l-4 10l-1 12l-5 14
l-2 9l-6 12l-3 10l-5 8l-5 9l-6 10l-6 10l-7 9l-9 9l-7 8l-8 9l-8 6l-8 6l-7 8l-7 5l-10 6l-9 5l-13 6l-9 5l-8 6l-10 3l-10 5l-11 6l-10 4l-11 3l-10 2l-11 3h-10h-11h-10h-10h-10h-8l2 -6v-11v-13v-11v-11l-1 -10v-10v-11v-13l-2 -11v-10v-14l-2 -14l-1 -14l-2 -17l-1 -16
v-10v-17v-17v-17v-17v-17v-16v-17v-17v-10v-17v-17v-17v-16v-13l1 -14v-11v-10v-10l2 -11v-12v-13v-11v-12v-16v-15v-18v-11v-18v-11v-16v-12z" />
    <glyph glyph-name="E" unicode="E" horiz-adv-x="506" 
d="M137 353v-1v-19v-12v-10v-11v-9l2 -11v-12v-10v-11v-11l1 -20v-11v-11l2 -11v-15v-10v-12l1 -11v-11v-17v-13v-15v-14v-15v-12v-11l-1 -11l-2 -6h6h10h12h11h11h10h12h13h10h11h10h11h12h11h10h12h13h12h14h11h13h10h10h11v-16h-11h-10h-10h-13h-11h-14h-12h-13h-12h-10
h-11h-12h-11h-10h-11h-10h-13h-12h-10h-11h-11h-12h-12l-16 6l-2 16l1 11v11v12v15v14v15v13v17v11l-1 11v12v10v13l-2 11v13v11l-1 20v11v11v10v10l-2 11v11v11v10v12v19v11v20v19v17v10v11v17v18v10v19v11v18v11l2 11v17v11v11l1 17v11l2 20l1 16v11l2 16v16l3 12l5 -1v4
h16h12h10h12h13h15l11 -2l10 -1l13 -2h15h15l10 -1h14h15l11 -2h10h12l10 -2h9v-16h-11l-10 2h-10h-12l-11 2h-13h-14l-10 1h-15h-17l-13 2l-10 1l-11 2h-13h-13h-12h-10h-12h-8v-1v-14l-2 -16v-11l-1 -18l-2 -18v-11l-1 -17v-11v-11v-19l-2 -11v-9v-18v-11v-19v-10v-18v-17
v-11v-10v-17v-19v-13l5 1h11h12h11h11h13h10h15h14h12h14h14h14h13h11h11v-16h-11h-11h-13h-14h-14h-14h-12h-14h-15h-10h-13h-11h-11h-12h-9z" />
    <glyph glyph-name="F" unicode="F" horiz-adv-x="479" 
d="M138 -5h-16v12v11v15v11v13v11l-3 10v12v13v9v14v10v13v11v11v15v11v12v10v12v16v12v17v14v17v14l-1 16v16v16v16v16v15v16v16v16v14v17v19v13l1 17v15l3 12v12v13v14l1 13l1 16l2 10v13v10v10v9h16h4l9 1l14 1h12l10 2h14h11h13h9h14h11h13h13h10h14h11h12h9h12h11h11
v-16h-11h-11h-12h-9h-12h-11h-14h-10h-13h-13h-11h-14h-9h-13h-11h-12l-10 -2h-14l-12 -1l-9 -1h-6v-3v-10v-15l-2 -10l-1 -16l-1 -11v-14v-13v-14l-3 -12v-13l-1 -17v-13v-19v-17v-14v-16v-16v-16v-15v-11h1l12 2h9l11 2h13h14h15h12h11h11h15h11h11h14h15h11v-16h-11h-15
h-14h-11h-11h-15h-11h-11h-12h-15h-14h-11l-11 -2h-9l-12 -2h-3v-5v-16v-16l1 -16v-14v-17v-14v-17v-12v-16v-12v-10v-12v-11v-15v-11v-11v-13v-10v-14v-9v-13v-10l3 -10v-13v-13v-11v-15v-11v-12z" />
    <glyph glyph-name="G" unicode="G" horiz-adv-x="708" 
d="M435 235l-4 16l17 5h12l11 1l11 2h14h12l10 1h11h12h13h10h10h11h12h11v-16h-11h-12h-11h-10h-10h-13h-12h-4v-7v-11v-11v-13v-12v-14l-2 -14l-1 -16l-4 -11l-1 -10l-6 -11l-3 -10l-8 -13l-4 -9l-5 -10l-8 -13l-9 -12l-8 -10l-11 -11l-12 -12l-12 -4l-11 -6l-16 -3
l-13 -2h-13h-10h-11h-12h-12l-10 2l-10 1l-12 3l-13 4l-11 1l-16 5l-16 7l-12 11l-9 12l-8 15l-3 14l-3 11l-3 15l-3 14v16l-3 17l-2 17l-1 20v17v20v10v15v11v11l1 17v11v11v10v10v10v11l2 21l1 19v19v11l2 19v15v19v17l2 16v17l1 17v10l2 18l3 17l1 19l5 18l2 15l3 18
l3 11l1 11l2 12l8 13l9 8l10 9l12 6l13 3h14h12h11l14 -1h11l13 -4l14 -3l11 -4l12 -6l14 -6l8 -5l13 -5l11 -7l9 -9l7 -9l5 -9l6 -11l5 -9l6 -12l3 -11l6 -10l3 -13l4 -12v-10l5 -10l2 -11l7 -12l2 -12v-11l2 -12l-16 -2l-2 12v11l-2 8l-5 12l-4 11l-5 12v12l-4 10l-3 11
l-4 10l-3 11l-6 10l-5 9l-6 11l-5 9l-5 7l-7 7l-9 5l-11 5l-10 5l-12 6l-12 6l-9 2l-14 3l-11 4h-9l-14 1h-11h-12h-12l-9 -3l-10 -4l-8 -7l-7 -6l-4 -9l-2 -8l-1 -11l-3 -13l-3 -16l-2 -17l-5 -16l-1 -19l-3 -17l-2 -16v-10l-1 -17v-17l-2 -16v-17v-19v-15l-2 -19v-11v-19
l-1 -21l-2 -19v-11v-10v-10v-10v-11v-11l-1 -17v-11v-11v-15v-10v-20v-17l1 -18l2 -17l3 -17v-16l3 -12l3 -15l3 -11l3 -12l6 -13l7 -10l8 -7l14 -5l14 -5l11 -1l13 -4l10 -3l10 -1l10 -2h10h12h11h10h11l13 2l12 3l11 4l10 4l8 10l11 9l8 10l7 10l8 13l5 8l4 11l8 11l3 10
l4 9l1 10l4 11l1 14l2 14v12v12v13v11v11v6h-1h-12h-12l-11 -2l-13 -1h-10z" />
    <glyph glyph-name="H" unicode="H" horiz-adv-x="582" 
d="M474 3h-16l1 17v17v11v11v12v11v12v13v11v13v14v11v13v10v14v14l2 16v12v15l2 15v12l1 15v15v15v12l2 14v5h-5h-14h-13h-11h-12h-11h-11h-13h-14h-16h-11h-18h-13h-15h-16h-15h-15h-13h-14h-13l-15 2v-3v-10v-12v-12v-12v-13v-14v-11v-15l1 -9l2 -13v-14l1 -11v-14v-15
l2 -11l2 -13v-16l1 -16v-15v-12v-16v-12l2 -13v-22v-16l-2 -12l-16 2l2 12v14v20l-2 13v14v16v12v15l-1 16v14l-2 13l-2 11v17v14l-1 11v12l-2 13l-1 11v15v11v14v13v12v12v12v10v13v12v18l1 19l2 20v22l1 12v18l2 23l3 17v17l2 19l1 16v17l4 16l3 17l1 16l2 15l3 15l2 13
l3 12v13l7 14l14 -8l-5 -10v-11l-3 -14l-2 -11l-3 -15l-2 -15l-1 -16l-3 -19l-4 -14v-15l-1 -18l-2 -17v-19l-3 -17l-2 -21v-18l-1 -12v-22l-2 -22l-1 -17v-18v-6l15 -2h13h14h13h15h15h16h15h13h18h11h16h14h13h11h11h12h11h13h14h5v3v13v13v11v13v20v12v19v18l-2 18v12
l-1 18v19v20v17v11l-2 17l-2 15v14v12l-1 12v9l-2 13l16 2l2 -13v-11l1 -12v-12v-12l2 -15l2 -19v-11v-17v-20v-19l1 -18v-12l2 -18v-18v-19v-12v-20v-13v-11v-13v-13v-13v-13l-2 -14v-10v-15v-15l-1 -15v-14l-2 -15v-13v-12l-2 -16v-14v-14v-10v-13v-11v-14v-13v-11v-13
v-12v-11v-12v-11v-11v-17z" />
    <glyph glyph-name="I" unicode="I" horiz-adv-x="251" 
d="M130 692h16v-11v-11v-14l-1 -11v-11v-11v-11v-14v-16v-15v-11v-11v-11v-13v-15v-13v-12v-13v-15v-14v-16l1 -15l2 -19v-10v-17l1 -11v-11v-15v-10v-20v-16v-15v-16v-14v-14v-12l2 -14v-15v-12v-13v-12v-11v-12l-2 -14v-10l-1 -14v-10v-14v-15l-2 -11l-1 -10v-11l-2 -11
l-16 4l2 9v9l1 12l2 11v13v14v10l1 14v12l2 14v10v11v12v13v12v13l-2 14v14v14v14v16v15v16v20v10v15v11l-1 11v17v10l-2 17l-1 17v16v14v15v13v12v13v15v13v11v11v11v15v16v14v11v11v11l1 11v14v11v11z" />
    <glyph glyph-name="J" unicode="J" horiz-adv-x="419" 
d="M304 695l16 -4l-5 -18v-12l-1 -12v-13v-12v-15l-2 -13v-12l-3 -14v-10v-14l-1 -14l-4 -15l-1 -15v-14v-17v-10v-15v-14v-14v-14v-15l3 -14l2 -17v-14l1 -15v-16v-16v-15v-14v-14v-14v-15v-14v-12v-14v-14v-13v-12v-14l-1 -13l-4 -11l-3 -11l-3 -11l-5 -14l-3 -10l-5 -11
l-7 -11l-8 -13l-10 -9l-7 -8l-16 -7l-15 -6l-11 -3l-14 -3h-12h-13l-18 4l-11 7l-8 7l-9 6l-6 9l-8 9l-7 10l-6 16l-4 14l-3 10l-4 13v11v14v12v13v11v11v11v13l2 11v10h16v-12l-2 -11v-11v-11v-11v-11v-13v-12v-14v-9l4 -11l3 -10l4 -14l4 -12l5 -8l8 -9l6 -7l7 -6l8 -7
l7 -5l14 -2h11h10l12 3l11 3l13 4l12 5l5 8l10 7l6 11l7 11l3 9l3 10l5 12l3 11l3 11l4 11l1 9v14v12v13v14v14v12v14v15v14v14v14v15v16v16l-1 15v14l-2 15l-3 14v17v14v14v14v15v10v17v14l1 17l4 15l1 12v14v12l3 14v12l2 13v13v12v13l1 12v14z" />
    <glyph glyph-name="K" unicode="K" horiz-adv-x="569" 
d="M146 695l16 -2l-1 -13v-11v-15v-10v-11v-22v-20v-12v-11v-11v-11v-13v-14v-13l-2 -13l-1 -11v-11v-14v-13v-22v-11v-11v-10v-7l10 11l16 12l6 8l9 7l10 6l15 14l10 6l9 8l16 12l13 13l7 8l11 14l13 14l10 15l9 14l10 14l7 14l9 11l11 13l12 11l8 6l7 10l10 7l8 10l10 9
l8 7l6 9l10 9l7 7l6 9l9 6l10 -12l-7 -6l-6 -7l-9 -9l-8 -7l-6 -9l-8 -9l-10 -9l-10 -10l-8 -7l-7 -10l-10 -6l-10 -11l-11 -11l-7 -9l-7 -14l-10 -14l-9 -14l-12 -17l-13 -14l-11 -14l-1 -1l1 -10l3 -11l4 -13l3 -11l7 -12l7 -15l7 -15l4 -10l5 -15l6 -16l8 -17l8 -15l6 -8
l6 -18l5 -9l6 -16l7 -15l6 -14l7 -16l5 -16l6 -17l6 -16l5 -18l5 -18l4 -16l5 -15l5 -15l4 -14l4 -13l6 -11l3 -12l4 -11l4 -10l4 -11l-16 -6l-4 11l-2 10l-6 11l-3 12l-4 11l-6 15l-4 14l-5 13l-5 17l-4 16l-5 18l-5 16l-6 16l-6 17l-5 16l-5 16l-6 14l-7 15l-6 16l-5 9
l-6 16l-6 8l-8 17l-8 17l-6 16l-7 15l-2 10l-7 15l-7 13l-7 14l-5 13l-4 13l-2 10l-7 -7l-16 -12l-9 -8l-10 -6l-15 -14l-10 -6l-7 -7l-8 -8l-16 -12l-10 -12l-8 -10l-2 2v-4v-11v-11v-11l1 -12v-23v-11v-11v-13l2 -10v-13v-19v-19v-17v-16v-15v-16v-14v-14v-12v-13v-14v-13
v-11l-2 -10v-11l-3 -12l-16 4l3 10v11l2 10v9v13v14v13v12v14v14v16v15v16v17v19v19v11l-2 10v15v11v11v23l-1 12v11v11v11v10v11v11v10v11v11v22v13v14v11l1 13l2 13v11v14v13v11v11v11v12v20v22v11v10v15v11z" />
    <glyph glyph-name="L" unicode="L" horiz-adv-x="541" 
d="M130 692h16v-11v-11v-14l-1 -11v-11v-11v-11v-14v-16v-15v-11v-11v-11v-13v-15v-13v-12v-13v-15v-14v-16l1 -15l2 -19v-10v-17l1 -11v-11v-15v-10v-20v-16v-15v-16v-14v-14v-12l2 -14v-15v-12v-13v-12v-11v-12l-2 -14v-10l-1 -14v-10v-14v-15l-2 -11l-1 -10v-11h5h12h13
h10h10h11h11h12h11h10h14h11h10h11h11h10h11h14h12h14h10h4h10h11h1h10h12h15v-16h-15h-12h-10h-1h-11h-10h-4h-10h-14h-12h-14h-11h-10h-11h-11h-10h-11h-14h-10h-11h-12h-11h-11h-10h-10h-13h-12h-10l-9 -3l-3 11l-1 1v1v3h1l1 5v9l1 12l2 11v13v14v10l1 14v12l2 14v10v11
v12v13v12v13l-2 14v14v14v14v16v15v16v20v10v15v11l-1 11v17v10l-2 17l-1 17v16v14v15v13v12v13v15v13v11v11v11v15v16v14v11v11v11l1 11v14v11v11z" />
    <glyph glyph-name="M" unicode="M" horiz-adv-x="735" 
d="M136 -3l-16 4l3 12v15v14v12v10v19v17v32v16v19v16l-3 15v18v17v16v13v16v15v16v17v16v16v18v19v11v18v11l-1 10v12v13v12v10v12v20v12v12v10l1 12v11v18v16l3 14l3 12v11v12v10v11v10v10h7l12 5l4 -9l7 -12l10 -18l4 -10l7 -12l4 -14l8 -16l6 -16l7 -17l7 -17l8 -17
l8 -23l7 -23l7 -21l5 -17l10 -22l6 -18l7 -20l6 -20l5 -19l8 -16l6 -15l8 -16l4 -15l5 -14l5 -13l4 -12l4 -13l5 -12l5 -11l3 -11l4 -11l4 -12l3 -11l4 -10l3 -13l5 -8l5 -11l6 -12l6 -12l4 -13l4 -12l6 -14l2 2l2 15l5 13l1 10l2 15l4 12l2 14l3 11l5 13l3 12l3 11l3 14
l3 13l3 14l5 12l3 14l6 15l2 14l5 14l3 14l3 12l3 14l6 11l6 18l5 11l3 11l5 11l6 10l3 12l5 9l4 10l5 12l5 8l4 11l5 9l2 10l6 12l4 11l3 10l4 11l4 14l7 11l2 12l6 11l7 17l5 10l6 14l5 12l5 10l3 10l6 11l5 9l10 -5l1 1l3 -4l5 -6v-14v-15v-11v-17l-2 -12v-10v-18l-1 -11
v-11v-18v-14v-12v-12v-10l1 -12v-14v-11v-11l2 -14l2 -12l1 -15l2 -13l1 -12l2 -15l1 -14l2 -13l1 -14v-14v-15v-15v-13l2 -15v-15v-15v-15v-14v-16v-12v-14v-14v-11v-14l-2 -14v-12v-13v-16v-15l-1 -11v-12l-2 -12v-10l-1 -11l-16 2l1 9v12l2 12v10l1 11v15v16v13v14l2 14
v12v11v14v14v12v16v14v15v15v13l-2 15v15v15v15v14l-1 12l-2 13l-1 14l-2 15l-1 12l-2 13l-1 15l-2 12l-2 14v13v11v14l-1 12v10v12v12v14v18v11l1 11v18v12l2 12v15v11v15l-3 -8l-5 -10l-5 -12l-6 -14l-5 -10l-7 -17l-4 -11l-4 -12l-7 -11l-2 -12l-4 -11l-3 -12l-6 -11
l-4 -12l-4 -10l-5 -9l-4 -11l-5 -10l-5 -10l-4 -10l-5 -9l-3 -12l-6 -10l-3 -11l-5 -11l-5 -11l-6 -18l-4 -11l-3 -12l-3 -12l-3 -14l-5 -14l-2 -14l-6 -15l-3 -14l-5 -12l-3 -14l-3 -13l-3 -14l-3 -11l-3 -12l-5 -13l-3 -11l-2 -14l-4 -12l-2 -13l-1 -12l-5 -13l-4 -19
l-11 -12l-16 2l-3 10l-6 14l-6 12l-4 13l-4 12l-6 10l-5 11l-5 10l-5 13l-4 12l-3 11l-4 10l-4 13l-3 9l-3 11l-5 12l-6 13l-4 12l-5 13l-5 16l-4 13l-6 16l-6 15l-8 16l-7 21l-6 18l-7 20l-6 18l-8 22l-7 17l-7 23l-7 23l-6 21l-8 17l-7 17l-7 17l-6 16l-8 16l-4 14l-7 10
l-4 12l-10 16v-7v-10v-12v-13l-3 -14l-3 -12v-14v-18v-11l-1 -12v-10v-12v-12v-20v-12v-10v-12v-13v-12l1 -10v-11v-18v-11v-19v-18v-16v-16v-17v-16v-15v-16v-13v-16v-17v-16l3 -15v-18v-19v-16v-32v-17v-19v-10v-12v-14v-17z" />
    <glyph glyph-name="N" unicode="N" horiz-adv-x="596" 
d="M496 5l-14 -6l-6 15v6l-1 1l-6 11l-5 11l-7 11l-5 11l-6 10l-8 14l-6 12l-8 11l-8 14l-8 16l-9 14l-8 14l-6 12l-8 15l-6 15l-8 13l-8 14l-8 14l-8 16l-4 13l-8 13l-8 16l-8 16l-3 10l-5 8l-7 17l-8 16l-10 14l-7 17l-10 16l-9 15l-9 14l-10 17l-9 16l-6 7l-10 17l-9 14
l-5 11l-8 15l-6 8l-8 17l-6 15l-8 19l-9 17l-6 14l-8 16l-3 8v-10v-11v-10v-9l2 -11v-11l2 -12v-12v-14v-10l1 -14l2 -14v-14l1 -11v-10l2 -11l1 -12v-9l2 -11v-12v-13v-11v-12v-12l-2 -11v-12l-1 -12v-11v-14v-13v-12v-13v-11v-11v-10v-10v-14v-12v-10v-12v-14v-12l-2 -14
v-13l-1 -13v-12v-14v-10v-12v-14v-10v-12v-13v-15l-2 -14l-16 2l2 14v13v13v12v10v14v12v10v14v12l1 13v15l2 14v10v14v12v10v12v14v10v10v11v11v13v12v13v14v11l1 12v14l2 11v10v12v11v13v10l-2 11v11l-1 10l-2 11v12l-1 11v12l-2 14l-1 16v10v14v10l-2 12v11l-2 11v11v10
v11v10v11v11h2l1 9l21 -5l7 -18l2 -10l8 -16l6 -14l9 -17l8 -19l6 -15l8 -15l6 -8l8 -15l5 -11l9 -14l10 -15l6 -9l9 -16l10 -17l9 -14l9 -15l10 -16l7 -17l10 -14l8 -18l7 -15l5 -10l3 -10l8 -14l8 -16l8 -15l4 -13l8 -14l8 -14l8 -14l8 -15l6 -15l8 -13l6 -12l8 -14l9 -14
l8 -16l8 -14l8 -11l6 -12l8 -14l6 -10l5 -11l5 -8v7v16v13v10v15v10v12l-2 11v12v10l-3 19v21v19v20v18l3 20l2 10v16v19l1 19l2 10v14v10v15v16v16v15v10v14l-2 14v11l-1 15v19v10v15v11v16v14l-2 14v14l-1 14v11v11v11v11v11h16v-11v-11v-11v-11v-11l1 -14v-12l2 -14v-16
v-16v-11v-15v-10v-19l1 -15v-9l2 -14v-16v-10v-15v-16v-16v-15v-10v-16l-2 -10l-1 -17v-19v-18l-2 -10l-3 -20v-16v-20v-19v-19l3 -19v-12v-10l2 -11v-14v-10v-15v-10v-13v-16v-11v-10v-11v-4l3 -4l-3 -3v-2z" />
    <glyph glyph-name="O" unicode="O" horiz-adv-x="633" 
d="M470 680l5 -5l8 -11l4 -12l8 -8l5 -10l10 -15l4 -12l3 -11l2 -12l1 -13l1 -11l2 -11l2 -11l1 -15v-14v-14l2 -11l1 -12v-10v-10l2 -12v-15v-12l2 -12v-11v-14v-14v-11v-11v-11v-10v-11v-13v-11v-12v-10v-12v-10v-13l-2 -15l-3 -11l-2 -10l-1 -14l-3 -12l-5 -13v-11
l-5 -15l-3 -13l-1 -11l-5 -12l-4 -14l-7 -11l-4 -10l-7 -10l-9 -6l-10 -8l-10 -9l-15 -6l-12 -6l-11 -6l-12 -1l-11 -3l-11 -2h-16h-10h-12h-10h-12l-12 2l-13 4l-13 6l-13 5l-10 6l-11 9l-10 8l-9 8l-7 11l-8 12l-4 12l-6 10l-3 13l-3 13l-3 15l-2 10l-5 14l-1 17v10l-3 11
v13l-2 11v16v11v11l-1 16v14v15v14v10v14l1 15v15v15v14v10v12v11l2 17l1 14l2 11l1 14l2 11l2 15l3 11l1 11l2 14l4 12l2 10l4 15l5 10l5 11l7 12l5 10l6 12l8 8l7 10l9 9l10 8l11 7l10 5l10 6l10 3l9 5l12 4l11 3l11 2h6l8 3h8h9h5h8h10l14 -5l7 -3l9 -2l5 -5l7 -2l4 -5
l7 -4l10 -5zM435 685l-5 1l-6 -2l-2 7l-6 4l-10 3h-8h-8h-5h-9h-6l-8 -3h-6l-9 -2l-11 -3l-10 -2l-9 -5l-10 -3l-8 -6l-10 -5l-9 -7l-10 -6l-7 -7l-7 -10l-6 -8l-6 -10l-5 -10l-7 -12l-5 -11l-5 -8l-2 -13l-2 -10l-4 -12l-2 -12l-1 -11l-3 -13l-2 -13l-2 -11l-1 -14l-2 -11
l-1 -14l-2 -15v-11v-12v-10v-14v-15v-15l-1 -15v-14v-10v-14v-15v-14l1 -16v-11v-11v-14l2 -11v-13l3 -11v-12l1 -13l5 -14l2 -10l3 -15l3 -13l3 -11l4 -10l4 -10l8 -12l5 -9l7 -6l10 -8l11 -7l8 -6l11 -5l13 -4l11 -4l10 -2h10h10h12h10h14l9 2l13 3l10 1l7 4l14 6l13 6
l8 7l10 8l7 6l5 6l4 10l7 9l2 12l5 12l1 9l3 15l5 13v11l5 15l3 10l1 14l2 12l3 11l2 13v11v10v12v10v12v11v13v11v10v11v11v11v14v14v9l-2 12v14v13l-2 12v12v10l-1 10l-2 11v16v14l-1 13l-2 11l-2 11l-1 11l-1 13l-2 10l-3 11l-2 10l-10 13l-5 8l-8 10l-4 12l-6 9l-9 6
l-8 6l-2 2l-8 5z" />
    <glyph glyph-name="P" unicode="P" horiz-adv-x="481" 
d="M135 342h9l12 -3l11 -2h12h12h10l11 2h15h14h9l14 3l11 2l14 3l12 3l9 7l11 7l8 7l8 10l5 7l5 8l3 11l6 10l2 11l5 10l2 10l1 10v10v11l-1 14v10v14v11l-2 13l-5 13l-1 11l-4 7l-6 10l-5 8l-9 9l-6 12l-7 8l-8 6l-6 8l-7 6l-8 8l-9 5l-11 3l-9 5l-10 2l-12 5l-10 3l-12 3
l-10 3h-13l-12 2h-10l-13 1h-12l-9 2v-2v-11v-11v-14v-9v-15l-4 -14v-9v-17v-13v-15v-15v-15v-15v-13v-16v-17v-19v-16v-19v-14v-16v-15v-14v-5zM125 688l8 14l8 -6l9 -1h10l13 -1h12l12 -2h13l12 -3l12 -3l12 -3l12 -5l10 -4l9 -5l11 -3l13 -7l8 -8l9 -6l6 -8l8 -6l9 -12
l6 -10l7 -9l7 -10l6 -10l6 -11l1 -11l5 -13l2 -15v-13v-14v-10l1 -14v-11v-10l-1 -12l-2 -12l-5 -12l-4 -11l-6 -10l-3 -11l-5 -10l-7 -9l-8 -12l-10 -7l-11 -9l-13 -7l-14 -5l-14 -3l-11 -2l-16 -3h-11h-14h-13l-11 -2h-12h-12h-14l-13 2l-10 3h-7v-7v-17v-14v-10v-14v-14
v-12v-10v-13v-12v-12v-11v-15v-13v-12v-10v-13v-14v-14v-12v-18v-15v-11v-18v-17h-16v17v18v11v15v18v12v14v14v13v10v12v13v15v11v12v12v13v10v12v14v14v10v14v17v15v13v14v15v16v14v19v16v19v17v16v13v15v15v15v15v13v17v11l4 14v13v9v14v11v11v9h2z" />
    <glyph glyph-name="Q" unicode="Q" horiz-adv-x="708" 
d="M499 75l-7 -10l-4 -10l-7 -10l-9 -6l-10 -8l-10 -9l-15 -6l-12 -6l-11 -6l-12 -1l-11 -3l-11 -2h-16h-10h-12h-10h-12l-12 2l-13 4l-13 6l-13 5l-10 6l-11 9l-10 8l-9 8l-7 11l-8 12l-4 12l-6 10l-3 13l-3 13l-3 15l-2 10l-5 14l-1 17v10l-3 11v13l-2 11v16v11v11l-1 16
v14v15v14v10v14l1 15v15v15v14v10v12v11l2 17l1 14l2 11l1 14l2 11l2 15l3 11l1 11l2 14l4 12l2 10l4 15l5 10l5 11l7 12l5 10l6 12l8 8l7 10l9 9l10 8l11 7l10 5l10 6l10 3l9 5l12 4l11 3l11 2h6l8 3h8h9h5h8h10l14 -5l7 -3l9 -2l5 -5l7 -2l4 -5l7 -4l10 -5l-1 -3l5 -5
l8 -11l4 -12l8 -8l5 -10l10 -15l4 -12l3 -11l2 -12l1 -13l1 -11l2 -11l2 -11l1 -15v-14v-14l2 -11l1 -12v-10v-10l2 -12v-15v-12l2 -12v-11v-14v-14v-11v-11v-11v-10v-11v-13v-11v-12v-10v-12v-10v-13l-2 -15l-3 -11l-2 -10l-1 -14l-3 -12l-5 -13v-11l-5 -15l-3 -13l-1 -11
l-4 -10l1 -1l13 -14l11 -11l13 -13l14 -13l9 -13l11 -11l8 -8l11 -8l6 -9l7 -6l-10 -12l-9 8l-6 7l-9 8l-10 8l-11 13l-9 13l-12 11l-15 13l-11 13zM416 162l14 8l6 -8l5 -8l10 -9l8 -9l11 -9l11 -14l9 -10h1l1 3l1 9l3 15l5 13v11l5 15l3 10l1 14l2 12l3 11l2 13v11v10v12
v10v12v11v13v11v10v11v11v11v14v14v9l-2 12v14v13l-2 12v12v10l-1 10l-2 11v16v14l-1 13l-2 11l-2 11l-1 11l-1 13l-2 10l-3 11l-2 10l-10 13l-5 8l-8 10l-4 12l-6 9l-9 6l-8 6l-2 2l-8 5l-1 1l-5 1l-6 -2l-2 7l-6 4l-10 3h-8h-8h-5h-9h-6l-8 -3h-6l-9 -2l-11 -3l-10 -2
l-9 -5l-10 -3l-8 -6l-10 -5l-9 -7l-10 -6l-7 -7l-7 -10l-6 -8l-6 -10l-5 -10l-7 -12l-5 -11l-5 -8l-2 -13l-2 -10l-4 -12l-2 -12l-1 -11l-3 -13l-2 -13l-2 -11l-1 -14l-2 -11l-1 -14l-2 -15v-11v-12v-10v-14v-15v-15l-1 -15v-14v-10v-14v-15v-14l1 -16v-11v-11v-14l2 -11
v-13l3 -11v-12l1 -13l5 -14l2 -10l3 -15l3 -13l3 -11l4 -10l4 -10l8 -12l5 -9l7 -6l10 -8l11 -7l8 -6l11 -5l13 -4l11 -4l10 -2h10h10h12h10h14l9 2l13 3l10 1l7 4l14 6l13 6l8 7l10 8l7 6l5 6l4 10l7 9l1 4l-6 5l-11 12l-11 12l-11 9l-8 11l-10 9l-7 8z" />
    <glyph glyph-name="R" unicode="R" horiz-adv-x="505" 
d="M285 346l4 1l12 3l9 7l11 7l8 7l8 10l5 7l5 8l3 11l6 10l2 11l5 10l2 10l1 10v10v11l-1 14v10v14v11l-2 13l-5 13l-1 11l-4 7l-6 10l-5 8l-9 9l-6 12l-7 8l-8 6l-6 8l-7 6l-8 8l-9 5l-11 3l-9 5l-10 2l-12 5l-10 3l-12 3l-10 3h-13l-12 2h-10l-13 1h-12l-9 2v-2v-11v-11
v-14v-9v-15l-4 -14v-9v-17v-13v-15v-15v-15v-15v-13v-16v-17v-19v-16v-19v-14v-16v-15v-14v-5h9l12 -3l11 -2h12h12h10l11 2h15h14h9l14 3l8 1l5 3h8zM125 688l8 14l8 -6l9 -1h10l13 -1h12l12 -2h13l12 -3l12 -3l12 -3l12 -5l10 -4l9 -5l11 -3l13 -7l8 -8l9 -6l6 -8l8 -6
l9 -12l6 -10l7 -9l7 -10l6 -10l6 -11l1 -11l5 -13l2 -15v-13v-14v-10l1 -14v-11v-10l-1 -12l-2 -12l-5 -12l-4 -11l-6 -10l-3 -11l-5 -10l-7 -9l-8 -12l-10 -7l-11 -9l-7 -3l9 -7l9 -9l7 -8l8 -10l5 -13l3 -12l4 -11l1 -12l2 -11l1 -10l2 -14v-12l1 -11l2 -11l1 -14v-12v-13
l2 -13v-15v-13l2 -12l1 -11v-13l2 -10l3 -12l1 -9l3 -9l6 -11l6 -10l5 -6l7 -6l-10 -12l-9 6l-7 10l-6 10l-6 13l-5 11l-1 11l-3 10l-2 12v15l-1 9l-2 12v15v13l-2 13v15v12l-1 12l-2 11l-1 13v10l-2 14l-1 10l-2 11l-1 10l-4 11l-3 12l-3 9l-6 8l-7 8l-7 7l-7 5l-7 4h-9h-2
l-8 -2h-3l-5 -3l-1 2l-2 -1l-16 -3h-11h-14h-13l-11 -2h-12h-12h-14l-13 2l-10 3h-7v-7v-17v-14v-10v-14v-14v-12v-10v-13v-12v-12v-11v-15v-13v-12v-10v-13v-14v-14v-12v-18v-15v-11v-18v-17h-16v17v18v11v15v18v12v14v14v13v10v12v13v15v11v12v12v13v10v12v14v14v10v14v17
v15v13v14v15v16v14v19v16v19v17v16v13v15v15v15v15v13v17v11l4 14v13v9v14v11v11v9h2z" />
    <glyph glyph-name="S" unicode="S" horiz-adv-x="568" 
d="M468 520l-16 -4l-3 15l-1 15l-3 10l-3 13l-4 11l-6 10l-7 11l-5 10l-11 11l-8 9l-7 10l-9 6l-10 7l-11 7l-11 6l-10 2l-13 5l-11 3h-10h-13h-14l-13 -3l-15 -6l-15 -7l-11 -9l-14 -11l-12 -10l-8 -11l-8 -14l-8 -11l-3 -12l-3 -14l-4 -13l-1 -10v-13v-14v-11l3 -13l3 -12
l5 -11l7 -10l9 -12l5 -9l9 -8l9 -8l11 -9l8 -6l9 -8l8 -8l7 -4l11 -3l8 -6l9 -5l11 -6l14 -6l8 -7l13 -6l14 -6l15 -4l10 -5l10 -5l10 -5l10 -6l8 -6l12 -9l11 -9l7 -9l8 -9l6 -13l6 -10l3 -17l4 -15v-12v-14v-12v-10v-10v-11l-1 -12l-5 -12l-5 -15l-9 -12l-7 -8l-7 -12
l-7 -8l-7 -9l-9 -9l-10 -7l-9 -6l-9 -7l-18 -8l-16 -6l-11 -6l-13 -3l-13 -3l-11 -3l-13 -1l-11 -2l-11 -2h-12h-13l-12 2l-14 4l-11 7l-9 7l-10 7l-10 12l-7 14l-5 10l-6 14l-3 15l-3 11l-2 11l-1 12l-2 10l-1 15v14v11l1 13l3 11v10h16v-12l-3 -11l-1 -11v-11v-14l1 -13
l2 -10l1 -12l2 -9l3 -11l3 -15l4 -12l5 -8l7 -14l6 -8l10 -7l9 -7l7 -5l12 -2l10 -2h11h10l11 2l11 2l13 1l9 3l13 3l11 3l11 4l16 6l16 8l7 5l9 8l10 5l7 7l7 9l7 8l7 12l7 8l7 10l3 13l5 10l1 8v11v10v10v12v14v10l-4 13l-3 15l-4 8l-6 13l-6 7l-7 7l-9 9l-12 7l-8 6l-8 6
l-10 5l-8 5l-10 3l-15 6l-14 6l-15 6l-8 7l-12 6l-13 6l-9 5l-8 6l-9 3l-11 6l-8 8l-9 8l-8 6l-11 9l-9 8l-11 10l-7 11l-7 10l-9 12l-7 13l-3 14l-3 15v13v14v13l1 14l4 13l3 14l5 16l8 11l8 14l10 13l14 12l14 11l13 11l17 7l17 8l15 3h16h13h12l13 -3l13 -5l12 -4l13 -6
l11 -7l12 -7l11 -10l7 -10l8 -9l11 -11l7 -12l7 -11l6 -12l6 -13l3 -13l3 -12l1 -15z" />
    <glyph glyph-name="T" unicode="T" horiz-adv-x="566" 
d="M88 692l-2 16l13 2h18h18h11h11h14h11h13h11h12h10h12h11h13h15h11h11h11h14l10 -2h10l12 -1l13 -2l14 -1h14l11 -2h10h11h11h10l12 2l2 -16l-12 -2h-12h-11h-11h-12l-11 2h-12l-16 1l-13 2l-10 1h-12l-10 2h-12h-11h-11h-2l-1 -5v-9v-10l2 -14l1 -16v-10v-19v-17v-17
v-17l2 -16l1 -19v-18v-11v-10v-20v-11v-11v-20v-13l-1 -12v-12l-2 -14l-1 -14l-2 -13v-13l-1 -13l-2 -14l-1 -13l-2 -11l-2 -11v-10v-11l-1 -18v-10l-2 -17v-17v-11v-17v-20v-10v-10l2 -11v-12v-12l1 -10v-12v-19v-17v-12v-11h-16v11v12v17v19v12l-1 10v12v10l-2 11v12v10
v20v17v11v17l2 17v10l1 18v11v12l2 11l2 11l1 13l2 14l1 11v15l2 13l1 14l2 14v10l1 12v13v20v11v11v20v10v11v18l-1 17l-2 18v17v17v17v19v10l-1 14l-2 14v12v11l1 3h-8h-13h-11h-12h-10h-12h-11h-13h-11h-14h-11h-11h-18h-16z" />
    <glyph glyph-name="U" unicode="U" horiz-adv-x="592" 
d="M177 696l16 -6l-4 -9v-12v-14v-17v-16v-17v-17v-16v-15v-16v-16v-15v-14v-16v-15v-16l1 -17v-16l3 -16l2 -18v-17l2 -16v-16l3 -17v-17l1 -15l2 -15v-15l1 -15l2 -16l2 -15l3 -16l1 -19l2 -15l3 -17l1 -14l5 -15l3 -14l5 -13l4 -13l4 -10l7 -10l9 -10l10 -6l10 -8l9 -4
l11 -3l10 -3l13 -2l11 -1h10h15h10l10 1l11 6l9 8l7 7l8 8l8 9l6 9l9 11l6 10l5 10l6 17l3 10l5 13l3 13l2 12l3 15l3 13v15l2 18l1 15v15v11l2 15l1 14v15v17l2 15v15v11v16v17v16l-3 16l-2 18l-1 16l-2 18v16v17l-1 11v16l-2 14v16l-2 15v15l-1 11v13v16v10v11v11v10v11
h16v-11v-10v-11v-11v-10v-16v-13l1 -11v-13l2 -15v-16l2 -14v-18l1 -11v-17v-16l2 -16l1 -16l2 -18l3 -16v-18v-17v-16v-11v-17l-2 -15v-15v-15l-1 -16l-2 -15v-9v-15l-1 -17l-2 -16v-17l-3 -15l-3 -13l-2 -12l-3 -15l-5 -13l-3 -12l-8 -17l-5 -12l-6 -12l-11 -11l-6 -9
l-8 -9l-8 -8l-7 -9l-13 -10l-15 -8l-14 -1h-10h-15h-10l-13 1l-15 2l-10 3l-13 3l-11 6l-12 8l-10 8l-11 12l-9 12l-4 12l-6 13l-5 15l-3 14l-5 15l-1 16l-3 17l-2 15l-1 19l-3 16l-2 15l-2 16l-1 17v13l-2 15l-1 17v15l-3 17v18l-2 16v17l-2 16l-3 16v18l-1 17v16v15v16v14
v15v16v16v15v16v17v17v16v17v14v14z" />
    <glyph glyph-name="V" unicode="V" horiz-adv-x="566" 
d="M150 695l16 -6l-4 -9v-9l4 -10l2 -14l5 -19l1 -18l5 -16l3 -17l5 -19l3 -20l1 -9l5 -15l2 -11l3 -11l4 -18l4 -12l3 -12l1 -11l3 -10l5 -21l5 -12l1 -11l2 -11l5 -21l1 -11l5 -21l1 -10l7 -18l1 -12l3 -10l5 -17l2 -20l4 -17l3 -16l5 -19l3 -15l2 -10l4 -18l4 -15l4 -16
l3 -17l3 -12l4 -14l4 -14l2 -13l3 -11l2 -13v-4l2 2v11l3 12l4 12l1 15l5 13l1 15l3 18l4 13l3 16l3 16l1 17l4 17l4 16l2 19l4 17l4 17l1 10l5 20l3 11l3 11l2 11l3 12l4 20l2 12l3 10l3 18l2 11l3 14l2 19l3 19l1 11l2 13l1 12l3 21l5 21v9l5 21l3 10l2 11l4 18l3 19l7 19
l4 13l3 16l5 12l4 12l5 10l14 -8l-5 -8l-2 -12l-5 -10l-3 -16l-4 -15l-7 -17l-3 -17l-4 -20l-2 -11l-3 -10l-5 -19v-9l-5 -21l-3 -21l-1 -12l-2 -13l-1 -11l-3 -19l-2 -19l-3 -16l-2 -9l-3 -20l-3 -10l-2 -10l-4 -22l-3 -12l-2 -11l-3 -11l-3 -11l-5 -18l-1 -10l-4 -19
l-4 -15l-2 -19l-4 -18l-4 -15l-1 -17l-3 -16l-3 -18l-4 -13l-3 -16l-1 -17l-5 -13l-1 -13l-4 -14l-3 -10l-2 -17l-20 -10l-10 14l-4 15l-3 11l-2 13l-4 14l-4 14l-3 12l-3 17l-4 16l-4 15l-4 18l-2 10l-3 15l-5 19l-3 16l-4 19l-2 18l-5 17l-3 12l-1 10l-7 18l-1 12l-5 21
l-1 11l-5 19l-2 13l-1 9l-5 12l-5 21l-3 12l-1 11l-3 10l-4 12l-4 18l-3 11l-2 11l-5 15l-1 11l-3 18l-5 19l-3 17l-5 18l-1 18l-5 17l-2 14l-4 12v13z" />
    <glyph glyph-name="W" unicode="W" horiz-adv-x="854" 
d="M131 689l16 -6l-4 -9v-9l4 -10l2 -14l5 -19l1 -18l5 -16l3 -17l5 -19l3 -20l1 -9l5 -15l2 -11l3 -11l4 -18l4 -12l3 -12l1 -11l3 -10l5 -21l5 -12l1 -11l2 -11l5 -21l1 -11l5 -21l1 -10l7 -18l1 -12l3 -10l5 -17l2 -20l4 -17l3 -16l5 -19l3 -15l2 -10l4 -18l4 -15l4 -16
l3 -17l3 -12l4 -14l4 -14l2 -13l3 -11l2 -13v-4l2 2v11l3 12l4 12l1 15l5 13l1 15l3 18l4 13l3 16l3 16l1 17l4 17l4 16l2 19l4 17l4 17l1 10l5 20l3 11l3 11l2 11l3 12l4 20l2 12l3 10l3 18l2 11l3 14l2 19l3 19l1 11l2 13l1 12l3 21l5 21v9l5 21l3 10l2 11l4 18l3 19l7 19
l4 13l3 16l5 12l4 12l5 10l4 -3v1l16 -6l-4 -9v-9l4 -10l2 -14l5 -19l1 -18l5 -16l3 -17l5 -19l3 -20l1 -9l5 -15l2 -11l3 -11l4 -18l4 -12l3 -12l1 -11l3 -10l5 -21l5 -12l1 -11l2 -11l5 -21l1 -11l5 -21l1 -10l7 -18l1 -12l3 -10l5 -17l2 -20l4 -17l3 -16l5 -19l3 -15
l2 -10l4 -18l4 -15l4 -16l3 -17l3 -12l4 -14l4 -14l2 -13l3 -11l2 -13v-4l2 2v11l3 12l4 12l1 15l5 13l1 15l3 18l4 13l3 16l3 16l1 17l4 17l4 16l2 19l4 17l4 17l1 10l5 20l3 11l3 11l2 11l3 12l4 20l2 12l3 10l3 18l2 11l3 14l2 19l3 19l1 11l2 13l1 12l3 21l5 21v9l5 21
l3 10l2 11l4 18l3 19l7 19l4 13l3 16l5 12l4 12l5 10l14 -8l-5 -8l-2 -12l-5 -10l-3 -16l-4 -15l-7 -17l-3 -17l-4 -20l-2 -11l-3 -10l-5 -19v-9l-5 -21l-3 -21l-1 -12l-2 -13l-1 -11l-3 -19l-2 -19l-3 -16l-2 -9l-3 -20l-3 -10l-2 -10l-4 -22l-3 -12l-2 -11l-3 -11l-3 -11
l-5 -18l-1 -10l-4 -19l-4 -15l-2 -19l-4 -18l-4 -15l-1 -17l-3 -16l-3 -18l-4 -13l-3 -16l-1 -17l-5 -13l-1 -13l-4 -14l-3 -10l-2 -17l-20 -10l-10 14l-4 15l-3 11l-2 13l-4 14l-4 14l-3 12l-3 17l-4 16l-4 15l-4 18l-2 10l-3 15l-5 19l-3 16l-4 19l-2 18l-5 17l-3 12
l-1 10l-7 18l-1 12l-5 21l-1 11l-5 19l-2 13l-1 9l-5 12l-5 21l-3 12l-1 11l-3 10l-4 12l-4 18l-3 11l-2 11l-5 15l-1 11l-3 18l-5 19l-3 17l-5 18l-1 18l-5 17l-2 14l-1 4l-1 -2l-3 -16l-4 -15l-7 -17l-3 -17l-4 -20l-2 -11l-3 -10l-5 -19v-9l-5 -21l-3 -21l-1 -12l-2 -13
l-1 -11l-3 -19l-2 -19l-3 -16l-2 -9l-3 -20l-3 -10l-2 -10l-4 -22l-3 -12l-2 -11l-3 -11l-3 -11l-5 -18l-1 -10l-4 -19l-4 -15l-2 -19l-4 -18l-4 -15l-1 -17l-3 -16l-3 -18l-4 -13l-3 -16l-1 -17l-5 -13l-1 -13l-4 -14l-3 -10l-2 -17l-20 -10l-10 14l-4 15l-3 11l-2 13
l-4 14l-4 14l-3 12l-3 17l-4 16l-4 15l-4 18l-2 10l-3 15l-5 19l-3 16l-4 19l-2 18l-5 17l-3 12l-1 10l-7 18l-1 12l-5 21l-1 11l-5 19l-2 13l-1 9l-5 12l-5 21l-3 12l-1 11l-3 10l-4 12l-4 18l-3 11l-2 11l-5 15l-1 11l-3 18l-5 19l-3 17l-5 18l-1 18l-5 17l-2 14l-4 12v13
z" />
    <glyph glyph-name="X" unicode="X" horiz-adv-x="591" 
d="M121 -1l-12 12l13 12l8 13l5 9l6 8l9 20l7 10l7 19l7 12l4 10l5 11l4 11l4 11l6 13l5 9l6 13l6 10l2 10l5 12l9 23l6 9l5 12l5 11l6 10l3 11l5 11l6 11l3 11l6 12l6 9l5 12v1l-1 2l-6 12l-11 17l-7 10l-8 21l-9 17l-11 17l-4 10l-5 11l-11 25l-7 17l-9 15l-8 17l-7 15
l-6 15l-4 13l-7 11l-6 15l-8 13l-6 15l-7 13l-5 13l-5 12l-2 18l12 9l8 -14l-6 -1l4 -6l5 -12l3 -13l7 -11l6 -15l8 -13l6 -15l7 -11l6 -15l4 -15l7 -15l8 -15l9 -15l7 -19l11 -25l5 -11l4 -8l11 -17l9 -19l8 -19l7 -10l11 -17l2 -4l1 1l2 11l10 20l5 8l4 10l8 17l8 16l8 18
l8 14l7 16l8 16l8 18l9 17l10 17l9 19l5 9l9 17l8 15l8 15l6 11l6 12l8 8l6 9l9 7l10 -12l-7 -5l-6 -9l-6 -8l-6 -10l-6 -11l-8 -15l-8 -15l-9 -17l-5 -9l-9 -19l-10 -17l-9 -17l-8 -16l-8 -16l-7 -16l-8 -16l-8 -16l-8 -16l-8 -17l-4 -10l-5 -10l-8 -18l-4 -11l-6 -12
l8 -16l6 -10l10 -19l5 -10l8 -16l6 -9l5 -12l9 -17l11 -19l11 -18l5 -11l10 -17l6 -11l5 -10l6 -10l10 -19l5 -10l11 -17l5 -13l5 -8l7 -14l8 -15l8 -13l5 -11l3 -13l8 -11l1 -13l4 -7l-14 -8l-6 11l-1 11l-6 11l-5 13l-3 9l-8 13l-8 15l-7 14l-5 10l-5 11l-11 17l-5 10
l-10 19l-6 10l-5 10l-6 11l-10 17l-5 11l-11 18l-11 19l-9 19l-5 10l-6 9l-8 16l-5 10l-10 19l-6 10l-2 4l-1 -2l-6 -9l-6 -10l-3 -11l-6 -11l-3 -11l-5 -11l-6 -12l-5 -9l-5 -14l-6 -9l-9 -21l-3 -10l-4 -12l-6 -12l-6 -13l-5 -9l-6 -11l-2 -11l-6 -11l-5 -11l-4 -12
l-7 -10l-7 -21l-7 -10l-9 -20l-6 -8l-5 -9l-10 -15z" />
    <glyph glyph-name="Y" unicode="Y" horiz-adv-x="632" 
d="M522 699l10 -12l-11 -10l-8 -11l-11 -12l-8 -10l-5 -8l-6 -10l-8 -10l-8 -14l-10 -12l-7 -11l-10 -13l-7 -9l-6 -10l-9 -11l-6 -9l-7 -10l-7 -11l-6 -10l-6 -7l-6 -12l-8 -8l-5 -10l-6 -9l-5 -9l-9 -16l-5 -9l-8 -14l-6 -10l-5 -8l-3 -12l-3 -10v-10v-14v-12v-11v-13v-15
v-14v-16v-17l-2 -15l-2 -14l-1 -16l-2 -15l-1 -16l-3 -14l-2 -15v-17l-1 -17v-16v-15v-10v-14v-15v-11v-11v-10h-16v10v11v11v15v14v10v15v16l1 17v17l2 17l3 14l1 16l2 15l1 16l2 14l2 15v15v16v14v15v13v11v12v14v12l-2 10l-5 8l-5 11l-7 14l-7 11l-6 11l-8 11l-6 13
l-8 11l-8 12l-7 14l-8 11l-8 13l-6 12l-7 10l-7 10l-5 10l-6 9l-5 10l-6 12l-6 11l-5 11l-6 10l-7 8l-6 13l-3 11l-6 8l-5 11l-5 10l-10 7l10 12l12 -9l7 -12l5 -11l6 -10l3 -11l6 -9l7 -8l6 -12l5 -11l6 -11l6 -12l5 -10l6 -9l5 -10l7 -8l7 -12l6 -12l8 -13l8 -11l7 -14
l8 -10l8 -13l6 -13l8 -11l6 -11l7 -11l7 -16l5 -9v-1l1 1l5 10l6 10l8 14l5 9l9 16l5 9l6 9l5 10l8 10l6 10l6 9l6 8l7 11l7 12l8 9l7 11l8 10l7 9l8 13l9 11l8 12l8 12l8 12l6 8l7 10l8 10l11 12l8 11z" />
    <glyph glyph-name="Z" unicode="Z" horiz-adv-x="560" 
d="M134 694l2 16l13 -2h16h11h11h13h9l11 2h12h10l13 2h15h14h14l14 1h14h13h15h14h14h11h13h11h12h10h9h2h10v-16h-7l-3 -3l-8 -10l-6 -12l-6 -15l-11 -16l-6 -13l-9 -14l-8 -13l-8 -12l-13 -19l-7 -14l-8 -16l-10 -18l-7 -16l-13 -17l-9 -18l-7 -19l-9 -19l-6 -19l-9 -17
l-9 -20l-8 -19l-10 -23l-10 -16l-8 -18l-8 -18l-7 -21l-8 -21l-11 -18l-7 -19l-11 -20l-9 -17l-13 -18l-7 -16l-9 -21l-10 -14l-8 -17l-9 -17l-6 -12l-5 -15l-10 -17l-2 -7h7h13h10h15h14h14h17h14h11h12h11h13h14h11h14h14h16h14h15h13h12h13h14h11v-16h-11h-14h-13h-12
h-13h-15h-14h-16h-14h-14h-11h-14h-13h-11h-12h-11h-14h-17h-14h-14h-15h-10h-13h-13l-13 2l1 9l-1 1l2 4v2h1l4 11l10 17l5 15l6 14l9 17l8 17l10 14l9 19l7 18l13 18l9 17l11 18l7 19l11 18l6 21l9 21l8 18l8 20l10 16l10 21l8 19l9 22l9 15l6 19l9 19l7 19l9 20l13 17
l7 16l10 18l8 16l7 14l13 19l8 12l8 13l9 14l6 13l11 16l6 13l6 14l4 5h-3h-12h-11h-13h-11h-14h-14h-15h-13h-14l-14 -1h-14h-14h-13l-13 -2h-12h-10l-11 -2h-11h-13h-11h-11h-18z" />
    <glyph glyph-name="bracketleft" unicode="[" horiz-adv-x="331" 
d="M232 707l-2 -16l-9 1h-11h-15h-14h-14h-12l-12 2l-8 3l-4 -2v-6l-2 -13l-1 -16l-2 -14v-17v-11v-10v-11v-11l-1 -18v-10v-18v-11v-10v-20l-2 -19v-22v-22v-23v-11v-12l-1 -15v-10v-15v-10v-13v-15l-2 -13v-13v-14v-11v-15v-11v-16v-14v-15l-2 -14v-11l-1 -15v-13l-2 -13
v-11l-1 -13v-12v-14l-2 -14v-11v-11v-14v-14v-10l-1 -15l-2 -11v-11v-11l-1 -12l-2 -19v-11v-16v-12l-2 -9l4 -12v-12v-13v-11v-12l-1 -7l6 -2l14 -2l17 -4l10 -2h10h15h11h11h11v-16h-11h-11h-11h-15h-12l-12 2l-15 4l-18 2l-14 10l-1 15v12v11v13v10l-4 12l2 13v10v16v11
l2 21l1 10v11v13l2 11l1 13v10v14v14v11v13l2 14v12v12l1 13v13l2 13v11l1 15v13l2 14v13v14v16v11v15v11v14v15l2 13v13v13v10v15v10l1 15v12v11v23v22v22l2 19v20v10v11v18v10l1 18v11v11v10v11v19l2 14l1 16l2 13l4 14l14 8l14 -3l10 -2h10h14h14h15h11z" />
    <glyph glyph-name="backslash" unicode="\" horiz-adv-x="378" 
d="M-22 697l16 6l4 -13l4 -14l5 -16l4 -10l8 -17l7 -19l6 -17l7 -19l7 -18l4 -11l8 -19l9 -19l5 -21l3 -18l6 -9l2 -11l5 -16l8 -18l7 -18l5 -17l9 -20l2 -10l6 -8l8 -19l5 -10l4 -11l5 -12l2 -10l6 -10l5 -10l4 -11l5 -9l3 -10l6 -10l5 -11l11 -21l3 -11l5 -8l6 -11l3 -11
l6 -8l5 -12l5 -12l8 -18l9 -16l8 -15l8 -17l5 -13l5 -13l2 -12l6 -10l1 -12l-16 -2l-1 10l-4 8l-4 14l-5 11l-3 13l-8 15l-8 15l-9 18l-8 18l-5 12l-5 10l-6 10l-3 11l-6 9l-5 10l-3 11l-11 19l-5 11l-6 12l-3 10l-5 9l-4 11l-5 8l-6 12l-4 10l-5 12l-2 11l-5 8l-8 19l-6 10
l-4 10l-7 20l-7 17l-5 18l-8 18l-7 18l-2 9l-4 9l-5 20l-5 19l-7 19l-8 19l-4 11l-7 18l-7 19l-8 17l-5 19l-8 17l-4 10l-7 18l-4 14z" />
    <glyph glyph-name="bracketright" unicode="]" horiz-adv-x="234" 
d="M14 692l-4 16l14 4h16h11h14l11 -2l12 -2h10l14 -1l12 -9l7 -16l3 -15v-13v-16v-19v-12l-3 -17l-2 -11l-1 -11l-2 -13l-3 -12l-1 -11l-2 -11v-12l-2 -14l-1 -10l-2 -14l-1 -14l-2 -23l-1 -13l-2 -11v-11l-1 -14l-2 -12v-12v-13l-2 -14v-12v-12v-14v-13v-14v-11v-14v-12
v-13v-12v-13v-13l2 -11l2 -12v-12v-14v-11l1 -13v-12v-11v-10l2 -11v-20v-11v-17v-16l1 -17v-17v-17v-17v-16v-16v-13l2 -14v-15v-12l1 -13v-11l-1 -15l-15 -10l-13 -3h-10l-10 -2l-13 -1h-14h-11h-10h-12v16h12h10h11h14l11 1l10 2h10l9 1l7 4l-1 7v11l-1 13v12v13l-2 14
v15v16v16v17v17v17l-1 17v16v17v11v18l-2 11v12v11v12l-1 13v11v14v10l-2 12l-2 11v15v13v12v13v12v14v11v14v13v14v12v14l2 14v11v14l2 12l1 12v13l2 11l1 13l2 23l1 14l2 14l1 10l2 14v12l2 11l1 11l3 14l2 11l1 11l2 11l3 17v10v19v16v11l-3 13l-3 10l-6 3l-8 1h-12
l-12 2l-11 2h-12h-11h-14z" />
    <glyph glyph-name="asciicircum" unicode="^" horiz-adv-x="477" 
d="M250 685l-3 -5l-5 -11l-4 -11l-6 -12l-5 -9l-3 -11l-7 -11l-2 -10l-5 -12l-5 -10l-6 -14l-7 -17l-6 -17l-8 -19l-3 -10l-2 -12l-6 -9l-3 -16l-7 -20l-5 -9l-2 -9l-8 -26l-6 -19l-5 -17l-5 -21l-6 -21l-3 -11l-5 -20v-16l-15 -2l-4 13l3 1v6l5 22l3 11l6 21l5 21l5 17
l6 19l8 26l4 11l5 9l5 18l5 18l4 9l2 10l5 12l8 19l6 17l7 17l6 14l5 10l3 10l4 12l7 11l3 11l5 11l6 10l4 11l5 11l5 11l5 9h16l4 -10l4 -15l3 -13l3 -14l3 -14l3 -17l2 -10l5 -17l4 -15l3 -10l5 -20l5 -17l6 -19l5 -17l3 -10l2 -10l6 -11l1 -10l5 -11l6 -20l3 -11l7 -20
l1 -10l6 -20l5 -20l5 -14l4 -14l4 -10l4 -12l2 -10l-16 -4l-2 10l-4 10l-4 12l-4 14l-5 14l-5 20l-6 20l-1 10l-7 20l-3 11l-6 18l-5 13l-1 10l-4 9l-4 12l-3 10l-5 17l-6 19l-5 17l-5 20l-3 10l-4 15l-5 17l-2 12l-3 15l-3 14l-3 14l-3 13z" />
    <glyph glyph-name="underscore" unicode="_" horiz-adv-x="650" 
d="M4 -134l-10 12l10 8l16 1h15h11h13h16h10h11h10h12h11h13h12h13h12h16h15h16h14h17l14 -2h14h14l12 -2l14 -1h10h12l13 -2h10h11h11h15h14h10l14 -1h11h14h14h12l11 -2h11h10h12h10v-16h-10h-12h-10h-13l-11 2h-10h-14h-14h-11l-14 1h-10h-14h-15h-11h-11h-12l-13 2h-10
h-10l-16 1l-12 2h-12h-16l-14 2h-15h-14h-16h-15h-16h-12h-13h-12h-13h-11h-12h-10h-11h-10h-16h-13h-11h-15l-10 1z" />
    <glyph glyph-name="grave" unicode="`" horiz-adv-x="261" 
d="M40 718l16 -4l-3 -8l5 -7l8 -9l6 -12l8 -13l6 -11l7 -9l8 -10l8 -11l7 -9l7 -7l10 -8l11 -9l9 -6l9 -8l-12 -12l-7 8l-9 6l-11 9l-10 8l-9 9l-7 9l-8 11l-8 10l-9 11l-6 11l-8 13l-6 10l-8 9l-7 15z" />
    <glyph glyph-name="a" unicode="a" horiz-adv-x="532" 
d="M345 265l-8 -8l-11 -6l-11 -4l-11 -5l-13 -6h-11l-9 -4l-14 -4h-11l-13 -3l-11 -3l-11 -1l-14 -5l-11 -2l-12 -3l-8 -5l-12 -6l-7 -6l-8 -6l-7 -8l-8 -8l-5 -9l-8 -9v-9l-2 -13v-11v-9l2 -11l1 -11l5 -9l7 -14l5 -7l7 -7l8 -7l9 -8l8 -6l10 -4l11 -4l12 -3h9h11h11h10h12
l12 2l10 1l9 4l11 4l9 7l10 6l10 6l8 7l8 8l11 -9l-3 9l-4 12v15v12v14v16v15v16v17l2 16v17l2 14l1 15l2 14v6zM125 357l-16 2l1 10l3 13l2 10l2 14l3 12l5 12l5 11l5 11l4 12l7 10l7 10l9 8l10 6l11 6l9 5l12 5l11 4l12 1l12 2l10 2l12 1l11 2h13h11l13 -4l10 -5l11 -7
l8 -9l8 -9l6 -14l6 -13l3 -13l3 -15l1 -14l2 -11v-16v-14v-11v-13v-13l-2 -13l-1 -12l-2 -13v-9h2l-2 -10v-5l-1 -12v-14l-2 -14l-1 -15l-2 -14v-15l-2 -16v-17v-16v-15v-16v-14v-12v-13l4 -10l3 -12l1 -9l4 -7l5 -8l9 -6l8 -6l8 -1l12 -2l13 -1l11 -2l-2 -16l-11 2l-13 1
l-12 2l-12 3l-12 6l-11 10l-7 10l-6 11l-1 10l-7 -9l-10 -9l-12 -6l-8 -6l-11 -7l-13 -4l-11 -6l-12 -1l-12 -2h-14h-10h-11h-11h-11l-16 3l-11 6l-12 4l-10 8l-9 8l-8 7l-9 9l-7 9l-7 14l-7 13l-1 13l-2 11v11v13l2 13l2 13l8 13l7 9l8 8l9 10l8 6l9 8l12 6l10 5l14 5l11 2
l14 5l13 1l9 3l15 3h11l10 4l13 4h9l11 4l11 5l11 4l7 4l7 7l6 8l6 7v5v13l2 13l1 12l2 13v11v13v11v14v14l-2 11l-1 14l-3 13l-3 13l-4 11l-6 12l-6 7l-6 7l-9 5l-8 5l-9 2h-9h-11l-11 -2l-12 -1l-10 -2l-12 -2l-10 -1l-9 -2l-10 -5l-9 -5l-11 -6l-8 -6l-7 -4l-5 -10l-7 -8
l-4 -10l-5 -11l-5 -11l-3 -10l-3 -12l-2 -12l-2 -12l-3 -11z" />
    <glyph glyph-name="b" unicode="b" horiz-adv-x="506" 
d="M122 179h3v-11v-10l1 -11l2 -9l3 -11l2 -9l5 -11l4 -10l7 -11l3 -11l5 -8l6 -8l8 -8l5 -7l13 -8l10 -5l7 -6l14 -2l15 -4h11h13h11l13 4l10 1l10 5l10 7l11 4l9 7l7 8l8 11l7 10l5 10l8 11l2 11l4 9l3 12l4 11l3 11l1 13l3 14l2 14v12v14v12v14v15l-2 15l-3 15l-1 14
l-2 11l-3 13l-3 13l-5 11l-2 11l-6 8l-6 8l-6 10l-7 9l-8 9l-6 7l-8 4l-11 8l-10 4l-10 4l-10 2h-10h-14l-14 -2l-10 -1l-10 -4l-11 -3l-9 -2l-12 -6l-8 -5l-8 -8l-9 -7l-6 -11l-7 -8l-6 -10l-5 -14l-3 -10l-5 -15l-5 2l-1 -8v-10l-2 -22v-20v-11v-11l-1 -13v-22l-2 -10
l-1 -19v-6zM121 704l16 -4l-3 -11v-10v-11l-1 -13v-15l-2 -16v-16v-14v-15v-16v-14v-17v-17v-18v-17v-17v-19v-17v-20v-11v-21v-5l2 4l6 12l7 10l8 11l11 9l8 8l10 7l14 6l11 4l9 3l12 4l12 1l14 2h16h12l12 -2l12 -6l12 -4l11 -8l10 -6l8 -9l8 -9l7 -9l8 -10l6 -10l6 -10
l4 -11l5 -11l3 -15l3 -13l2 -13l1 -14l3 -15l2 -15v-17v-14v-12v-14v-14l-2 -14l-3 -14l-1 -13l-3 -13l-4 -11l-3 -12l-4 -11l-4 -11l-8 -13l-5 -10l-9 -12l-8 -11l-7 -10l-13 -9l-11 -4l-10 -7l-14 -7l-10 -1l-15 -4h-13h-13h-13l-17 4l-16 4l-9 6l-10 5l-15 10l-7 9l-8 8
l-8 10l-5 10l-3 11l-7 9l-4 12l-5 11l-1 -5v-13l-1 -12v-13v-11v-11v-15v-14v-10h-16v10v14v15v11v11v13l1 12v15l2 14v17v17l2 18v10l1 21l2 10v20l1 13v11v11v20l2 22v12l3 20v10v20v21v11v20v17v19v17v17v18v17v17v14v16v15v14v16l2 16v15l1 13v11v12z" />
    <glyph glyph-name="c" unicode="c" horiz-adv-x="466" 
d="M367 337l-16 -4l-3 13v11l-2 14l-1 13l-3 11l-4 10l-1 11l-4 8l-6 16l-5 8l-6 11l-6 8l-7 11l-6 7l-9 8l-8 7l-11 4l-8 7h-11l-12 2h-10h-9l-13 -2l-13 -8l-9 -5l-9 -8l-12 -10l-7 -10l-8 -10l-10 -11l-8 -13l-9 -13l-8 -15l-5 -15l-5 -16l-6 -17l-5 -13l-3 -16v-10
l-2 -14l-1 -16v-17l-2 -15v-15v-14v-14v-15l2 -15l1 -16l2 -15l1 -14l2 -16l3 -14l2 -12l3 -12l4 -10l3 -13l7 -12l8 -10l8 -6l10 -9l10 -6l7 -6l12 -3l12 -4l16 -6l11 -1l11 -2h13h12l9 2l11 6l10 4l6 8l10 5l10 11l7 10l7 12l5 12l4 8l1 10l5 12l2 10l3 11l3 13l1 14l4 14
l1 11l2 11l16 -2l-2 -11l-1 -11l-4 -14l-1 -14l-3 -15l-3 -11l-2 -10l-5 -12l-1 -10l-6 -10l-5 -12l-7 -14l-9 -12l-12 -13l-10 -5l-6 -8l-14 -6l-11 -6l-13 -4h-14h-15l-11 2l-13 1l-18 6l-10 4l-16 5l-9 8l-10 6l-10 9l-8 6l-12 12l-7 16l-5 13l-4 12l-3 12l-2 14l-3 14
l-2 16l-1 14l-2 15l-1 16l-2 15v17v14v14v17l2 15v15l1 18l2 14v10l3 18l5 15l6 17l5 16l7 15l8 17l9 13l10 15l10 11l8 10l7 10l14 12l9 8l11 7l15 8l17 4h11h12l12 -2l15 -2l10 -7l11 -4l10 -9l11 -8l6 -9l9 -11l6 -10l6 -11l5 -10l6 -16l6 -10l1 -11l4 -10l3 -13l1 -13
l2 -14v-11z" />
    <glyph glyph-name="d" unicode="d" horiz-adv-x="487" 
d="M362 355l-7 9l-6 15l-6 10l-7 10l-7 6l-9 8l-8 6l-9 6l-13 8l-11 2l-10 3l-10 3h-13h-14h-14h-14l-14 -4l-13 -8l-13 -7l-10 -8l-6 -8l-10 -14l-10 -13l-7 -16l-7 -16l-2 -11l-8 -19l-1 -10l-3 -12l-3 -19l-2 -11l-2 -11v-10v-12l-1 -10v-20v-11v-17l1 -19l4 -17l3 -18
l3 -17l7 -11l6 -13l6 -10l5 -9l8 -7l9 -9l10 -7l10 -6l10 -4l13 -3l10 -3l11 -2l10 -1h13h11h12l9 1l9 4l9 5l13 6l8 7l10 8l7 6l5 7l6 10l5 8l4 14l5 10l5 10l4 10l5 12l4 10v1v11v17v11v19v10v18v10v11v11v10v11v11v13v11v12v13v9zM371 700h16v-15v-14v-16v-17v-11v-17
v-17v-10v-11v-17v-17l-1 -11v-17v-10v-10v-10l-2 -20v-11l-1 -11v-12l-2 -11v-12l-2 -11v-10v-13l-1 -11v-12v-13v-12v-11v-13v-11v-11v-10v-11v-11v-10v-18v-10v-19v-11v-12l7 -4l-5 -8l-2 -8v-13v-17v-16v-17v-14v-11v-11v-12v-13l1 -10l-16 -2l-1 12v13v12v11v11v14v17v8
l-4 -9l-5 -8l-4 -14l-5 -10l-6 -10l-7 -9l-9 -8l-10 -8l-10 -9l-13 -6l-9 -5l-13 -6l-13 -1h-12h-11h-13l-12 1l-13 2l-10 3l-15 3l-12 6l-10 6l-12 9l-11 9l-8 9l-7 11l-6 10l-6 13l-7 13l-5 19l-3 18l-4 19l-1 21v17v11v20l1 10v12v12l2 11l2 11l3 21l3 10l1 12l8 19l2 11
l9 18l7 18l12 15l10 14l6 8l12 12l15 7l15 8l18 6h16h14h14h15l12 -3l10 -3l13 -4l15 -8l11 -8l8 -6l9 -8l9 -8l9 -12l6 -11v8l2 11v12l2 11v10l1 11v11l2 20v10v10v10v17l1 11v17v17v11v10v17v17v11v17v16v14v15z" />
    <glyph glyph-name="e" unicode="e" 
d="M123 301l5 1h14h15h10h12h11h13l16 -1l14 -2h12h12h14h14h13h11h12h13h11l12 -1h13h14l10 -4l3 -2l-2 5v14v10v16l-3 10l-4 16l-3 13l-5 8l-5 10l-5 11l-2 9l-7 10l-10 12l-7 9l-7 8l-6 7l-6 5l-9 5l-11 6l-8 5l-9 2l-10 2l-15 1l-15 2h-15l-9 -3l-10 -4l-12 -8l-8 -5
l-9 -8l-8 -8l-6 -10l-7 -11l-6 -11l-5 -12l-4 -11l-7 -12l-2 -13l-6 -14l-1 -13l-5 -17l-2 -13zM122 284v-10v-14v-16v-15v-14v-15l1 -13l3 -12l2 -16l3 -13l4 -13l6 -14l6 -12l3 -13l8 -13l6 -8l7 -11l10 -9l9 -11l9 -5l8 -6l9 -2l11 -3l10 -2l11 -3l11 -3l9 -2h10h11h9
l13 6l13 6l8 7l8 6l7 7l9 11l9 9l6 10l6 11l4 10l3 10l3 13l5 10v9v11v11h16v-11v-11v-13l-5 -12l-3 -11l-3 -12l-6 -12l-6 -11l-8 -12l-9 -9l-9 -11l-9 -9l-8 -6l-10 -9l-15 -6l-15 -8h-13h-11h-12l-11 2l-11 3l-11 3l-10 2l-11 3l-13 4l-8 6l-11 7l-11 11l-10 11l-9 11
l-6 10l-8 15l-5 13l-4 12l-6 14l-6 15l-3 15l-2 16l-3 12l-1 15v15v14v15v16v14v14l1 15l3 14l2 15l5 15l1 15l6 14l4 15l7 12l2 11l7 14l6 11l7 11l8 12l8 10l11 8l10 7l12 8l12 6l13 3h17l17 -2l15 -1l12 -2l11 -4l10 -5l11 -6l9 -5l10 -7l6 -9l7 -8l7 -9l10 -12l9 -12
l4 -11l3 -11l5 -8l5 -10l5 -15l4 -16l3 -12v-18v-10v-14l-2 -17l-19 -2l-10 4h-10h-13l-12 1h-11h-13h-12h-11h-13h-14h-14h-12h-14l-14 2l-14 1h-13h-11h-12h-10h-15h-12z" />
    <glyph glyph-name="f" unicode="f" horiz-adv-x="334" 
d="M35 433v16h11h13h11l12 -1l15 -2h10l14 -2h11h2v13l1 11v11v17v17v17l2 19v17v20l1 19l2 17l2 15l4 13l6 13l6 12l11 16l13 8l11 9h17h11l14 -1l-2 -16l-12 1h-11h-11l-7 -5l-11 -8l-9 -12l-6 -10l-4 -13l-4 -11l-2 -13l-2 -17l-1 -17v-20v-17l-2 -19v-17v-17v-17v-11
l-1 -11v-13h6h15h14h11h11h10h11v-16h-11h-10h-11h-11h-14h-15h-6v-13v-11v-13v-12l-2 -14v-11l-1 -13v-13l-2 -13v-11l-2 -12v-10l-1 -13v-12v-13v-12l-2 -11v-10v-12l-1 -23l-2 -21v-20v-11v-17v-13v-17v-16v-15v-14v-11v-11v-10v-10h-16v10v10v11v11v14v15v16v17v13v17
v11v20l2 23l1 21v12v12l2 11v10v13v12l1 13v12l2 12v11l2 13v11l1 13v13l2 14v10v13v11v13h-2h-13l-14 2h-10l-15 2l-10 1h-11h-13h-11z" />
    <glyph glyph-name="g" unicode="g" horiz-adv-x="492" 
d="M370 422l-1 -1l-6 16l-7 12l-8 6l-8 10l-7 7l-12 6l-10 5l-9 5l-10 1l-12 3l-11 2l-12 3l-10 2l-12 1h-10h-13h-12l-9 -1l-9 -3l-11 -4l-9 -7l-11 -8l-11 -10l-7 -11l-9 -13l-8 -13l-6 -15l-5 -10l-4 -16l-4 -19l-2 -10l-2 -11l-1 -10l-2 -15v-9l-1 -10v-14v-12v-11v-11
v-13v-11v-11v-12v-11l1 -10l3 -20l2 -10l3 -17l3 -10l3 -15l4 -9l4 -14l4 -11l8 -13l6 -9l5 -9l10 -11l8 -5l11 -8l11 -6l9 -5l13 -4l13 -3l14 -2l13 -1h11h11h11l9 3l13 4l13 8l12 7l9 6l7 7l7 7l8 10l6 9l6 8l6 11l5 9l2 6v6l1 11l2 19v17v20v10v11v11v11v11v11v12v11v12
v10v12v10v11v11l-2 18v16l-1 15l-2 14l-1 15v13v2zM371 499l16 -4l-3 -10v-13v-14v-11v-13l2 -12v-15l1 -13l2 -14l1 -17v-16l2 -18v-11v-11v-10v-12v-10v-12v-11v-12v-11v-11v-11v-11v-11v-10v-20v-17l-2 -19l3 -1l-1 -13l-3 -7v-2l-2 -11l-1 -16v-11v-18l-2 -14l-1 -11
v-14l-2 -12l-3 -13l-2 -15l-4 -13l-3 -11l-6 -11l-5 -11l-6 -10l-7 -8l-7 -8l-7 -9l-7 -10l-9 -10l-6 -8l-8 -9l-11 -8l-7 -8l-9 -7l-11 -6l-10 -3l-10 -6l-16 -3l-16 -5h-16l-13 -1l-13 1l-13 4l-10 5l-9 7l-9 6l-8 11l-9 10l-5 13l-2 11l-3 11l-2 14l-1 13v11v11v12h16
v-12v-11v-11l1 -11l2 -12l3 -11l2 -11l3 -9l7 -8l8 -9l7 -6l7 -5l8 -5l9 -2l11 -1l13 1h14l14 5l14 3l10 4l10 3l9 6l7 5l7 8l11 8l6 7l6 8l9 10l7 10l7 9l7 8l5 8l6 8l5 11l6 9l1 9l4 13l2 13l3 15l2 10v12l1 13l2 14v16v5l-4 -5l-6 -9l-8 -10l-7 -9l-9 -7l-11 -8l-12 -7
l-15 -8l-15 -6l-11 -3h-13h-11h-11l-15 1l-14 2l-15 3l-15 6l-11 5l-11 6l-13 8l-8 7l-12 13l-7 11l-6 9l-8 13l-6 13l-4 14l-4 11l-3 15l-3 10l-3 19l-2 10l-3 20l-1 12v11v12v11v11v13v11v11v12v14l1 10v11l2 15l1 10l2 11l2 12l4 19l6 18l5 10l6 15l8 15l9 14l9 12l13 12
l11 8l11 9l13 6l11 3l13 1h12h13h10l14 -1l12 -2l12 -3l11 -2l10 -3l12 -1l13 -7l10 -5l12 -6l11 -9l8 -10l8 -8v13v15z" />
    <glyph glyph-name="h" unicode="h" horiz-adv-x="483" 
d="M110 708l16 4l2 -11v-16v-13v-11v-15v-16v-15v-16v-16v-15v-18v-17v-15v-19v-19v-15v-19v-17v-19v-16v-19v-15v-10l4 11l4 11l7 14l8 10l7 9l7 10l11 10l9 7l9 5l9 6l11 4l12 5l11 2l15 3h12h15h12l13 -6l15 -6l11 -7l9 -12l7 -11l7 -12l8 -16l1 -10l8 -16l5 -20l1 -11
l2 -10v-12l1 -10l2 -11l2 -11v-15v-12v-14v-11v-11v-14v-11v-13v-10v-11v-10v-12v-11l-2 -12v-9v-12v-12l-2 -11v-18v-15v-10l-1 -12l-16 2l1 10v10v15v20l2 11v10v12v11l2 12v9v12v10v11v10v13v11v14v11v11v14v12v13l-2 11l-2 11l-1 12v10l-2 10l-1 11l-5 16l-8 18l-1 10
l-6 12l-7 12l-7 11l-5 8l-9 5l-13 6l-11 4h-8h-15h-10l-13 -3l-11 -2l-10 -3l-9 -4l-9 -6l-9 -5l-7 -5l-9 -8l-7 -10l-7 -9l-6 -8l-7 -12l-2 -11l-7 -15l-4 -12l-3 -10l-1 -11v-12l-6 -12h-1v-3v-14v-16v-15v-14v-14v-16v-14v-14v-11v-13l2 -14v-12v-11v-20v-10v-17l1 -14
v-12v-10h-16v10v12l-1 14v17v10v20v11v10l-2 14v15v11v14v14v16v14v14v15v16v14v17v16l2 16v15v16v15v19v16v19v17v19v15v19v19v15v17v18v15v16v16v15v16v15v11v13v14z" />
    <glyph glyph-name="i" unicode="i" horiz-adv-x="237" 
d="M112 504l16 -4l-3 -11v-12v-16v-18l1 -17l2 -20l3 -19l2 -11v-11l1 -11v-10l2 -11v-12v-11v-13v-22l1 -18v-11v-10v-18v-10v-18l-3 -19v-17l-3 -17l-3 -19l-2 -16v-18l-3 -16v-13l-1 -13l-2 -13v-10v-11v-11h-16v11v11v12l2 13l1 11v15l3 16v16l2 18l3 19l3 17v17l3 19
v16v10v18v10v11l-1 18v22v13v11v10l-2 11v12l-1 11v9l-2 11l-3 19l-2 20l-1 19v18v16v14zM111 701l14 -8l-5 -10v-11v-14v-11v-11h-16v11v11v14v15z" />
    <glyph glyph-name="j" unicode="j" horiz-adv-x="225" 
d="M111 707l14 -6l-3 -9v-9v-12v-10v-12l-2 -10v-9h-16v11l2 10v10v10v12v13zM107 509l16 -4l-3 -10v-13v-10v-17v-11v-20v-13v-14v-11v-12v-11v-13v-10v-11v-13v-10l2 -11v-12v-11v-11v-11v-10v-19v-11v-11v-11v-11v-20v-11v-11v-11v-19l-2 -20v-19v-19l-2 -17v-11l-1 -17
v-17l-2 -15l-1 -16l-2 -15v-15l-1 -15l-3 -15l-4 -11l-1 -13l-6 -11l-6 -13l-6 -14l-9 -10l-9 -10l-10 -8l-12 -5l-11 -3l-11 -4l-11 -6l-14 -3h-12h-12l-10 2l-10 1l2 16l10 -1l10 -2h10h10l10 3l11 4l11 6l13 3l8 3l8 6l7 8l7 8l6 12l6 15l4 7l1 13l4 11l3 13l1 13v17
l2 15l1 16l2 15v15l1 17v11l2 17v19v19l2 20v19v11v11v11v20v11v11v11v11v19v10v11v11v11v10l-2 11v12v13v11v10v13v11v12v11v14v13v20v11v17v10v15z" />
    <glyph glyph-name="k" unicode="k" horiz-adv-x="530" 
d="M199 309l14 8l14 14l8 7l12 12l7 8l15 14l7 7l9 9l7 6l6 7l9 9l8 6l14 12l8 7l12 12l8 6l13 10l9 9l11 11l12 11l12 7l7 5l10 -12l-9 -7l-10 -5l-10 -11l-11 -11l-11 -9l-13 -10l-8 -6l-12 -12l-8 -7l-14 -12l-8 -6l-7 -7l-6 -9l-9 -6l-7 -7l-7 -9l-15 -14l-7 -8l-14 -12
l-8 -7l-14 -14l-2 -2l4 -9l7 -11l7 -13l8 -14l8 -16l9 -15l8 -16l8 -14l6 -7l8 -13l9 -13l8 -12l8 -14l6 -11l6 -10l10 -12l6 -11l8 -10l6 -9l8 -12l6 -10l7 -11l6 -11l6 -9l5 -9l5 -7l-12 -10l-7 9l-5 9l-6 9l-6 11l-7 11l-6 10l-8 10l-6 9l-8 12l-6 11l-8 10l-8 12l-6 11
l-8 14l-8 12l-9 13l-8 11l-6 9l-8 14l-8 16l-9 15l-8 16l-8 14l-7 13l-7 11l-2 5l-5 -6l-13 -14l-12 -11l-6 -8l-11 -13l-8 -8l-6 -9l-13 -12l-6 -9l-12 -8v-5v-14v-13v-11v-12v-11v-11v-20v-11v-10v-18v-10v-15v-12l-2 -10v-10h-16v12l2 10v10v15v10v18v10v11v20v11v11v12
v11v13v14v6l-3 3l3 2v1l1 15v15v16v15v16l2 17v16v14v17l2 15v15v17l1 14v17l2 15v15l1 16v17v17v17v16v15v16v14v14v13v14v12v18l2 11l1 13l1 16l9 11l12 -10l-7 -7l1 -10l-1 -15l-2 -11v-16v-12v-14v-13v-14v-14v-16v-15v-16v-17v-17v-17l-1 -16v-17l-2 -15v-15l-1 -14
v-17v-17l-2 -15v-15v-14v-16l-2 -17v-16v-15v-16v-15v-2l5 7l13 12l6 9l8 8l11 13l6 8l12 13l13 12l9 11z" />
    <glyph glyph-name="l" unicode="l" horiz-adv-x="205" 
d="M90 701l16 -2l-2 -14v-13v-11v-18v-11l-1 -19v-11v-20l-2 -20l-1 -30l-2 -12v-10v-11l-1 -11v-13v-14v-12v-13v-11v-14v-14l-2 -25v-14v-12v-15l-2 -14v-12v-15v-15v-12v-14v-14v-13l-1 -15v-11v-13v-16l-2 -13v-10v-12v-13v-11v-12v-14v-11v-10v-17v-15v-13v-12v-10h-16
v10v12v13v15v17v10v11v14v12v11v13v12v12l2 13v14v13v11l1 15v13v14v14v12v15v15v14l2 14v13v12v14l2 25v14v14v11v13v12v14v13l1 11v11v12l2 12l1 30l2 18v20v11l1 19v11v18v11v15z" />
    <glyph glyph-name="m" unicode="m" horiz-adv-x="805" 
d="M109 508h16v-11v-12l-2 -15v-10l-1 -12l-2 -21v-12v-12l-2 -13l-1 -13v-11v-16v-14v-6l4 9l6 14l8 16l8 15l10 11l9 12l10 12l9 8l8 11l10 11l10 6l9 8l10 9l11 4l10 5l11 6l9 6l15 6l14 5l13 3l14 1h14l16 -1l15 -6l12 -13l6 -13l4 -14l7 -15l4 -11l3 -11l2 -12v-1l9 9
l8 9l8 11l9 11l10 10l10 8l9 8l8 8l10 7l10 5l11 6l14 8l10 6l17 6l15 3h13l11 1h10h10h10l15 -1l12 -8l12 -8l7 -10l6 -11l6 -14l6 -16l5 -17l3 -10l3 -11l2 -12l1 -12l2 -11l1 -11l2 -16l1 -15v-15v-14v-16v-14v-16v-14v-15v-15v-14v-14v-14v-12v-14v-11v-14v-13v-12v-13
v-11v-12v-10v-11v-15v-12l2 -11l-16 -2l-2 11v14v15v11v10v12v11v13v12v13v14v11v14v12v14v14v14v15v15v14v16v14v16v14v15l-1 13l-2 16l-1 11l-2 11l-1 12l-2 10l-3 11l-3 10l-5 17l-4 14l-6 12l-6 11l-5 6l-8 6l-10 6l-9 1h-10h-10h-10l-11 -1h-11l-13 -3l-15 -4l-8 -6
l-14 -8l-11 -6l-10 -5l-8 -5l-8 -8l-9 -8l-10 -8l-8 -8l-9 -11l-8 -11l-8 -9l-14 -15l-4 3l4 -12v-16l2 -15l3 -16l2 -16l1 -15v-15v-16v-16v-17v-14v-15v-16v-16l-1 -16l-2 -14l-2 -16l-1 -16l-2 -14v-14v-13l-1 -12l-2 -19v-17v-11l-1 -12l-16 2l1 10v11v17l2 21l1 10v13
v16l2 14l1 16l2 16l2 14l1 14v16v16v15v14v17v16v16v15l-1 13l-2 16l-3 16l-2 15v16l-4 11l-3 13l-2 12l-3 11l-2 9l-7 15l-4 14l-6 9l-8 9l-9 4l-12 1h-14l-12 -1l-11 -3l-12 -5l-13 -4l-9 -6l-11 -6l-12 -5l-9 -4l-8 -7l-9 -8l-10 -6l-8 -9l-8 -11l-9 -10l-10 -10l-9 -12
l-8 -11l-8 -13l-8 -14l-6 -14l-5 -12l-4 -9l2 -9l-11 -2v-11v-15v-17v-15v-14v-16v-14l-2 -16v-14v-11v-12v-13v-12v-13v-20v-19v-11v-15v-13v-10l2 -11v-12h-16v10l-2 11v12v13v15v11v19v20v13v12v13v12v11v14l2 16v14v16v14v15v17v15v15v16v15v14v16v11l1 15l2 13v10v12
l2 23l1 10v12l2 15v10v11z" />
    <glyph glyph-name="n" unicode="n" horiz-adv-x="528" 
d="M77 498l14 8l6 -11v-15v-17v-11v-20v-10v-11v-12l-2 -10v-1l5 7l8 10l9 11l8 9l8 7l6 9l10 9l11 10l11 9l9 9l12 6l13 8l9 6l12 5l11 5l12 4l11 3l14 3l12 1l14 2h15h10h14l14 -7l9 -10l7 -9l5 -10l4 -9l7 -13l4 -10l4 -10l4 -14l3 -12l3 -15l5 -14l3 -16l1 -10l3 -15
v-11l2 -16l3 -19l2 -10l1 -11v-11v-20v-11v-21l2 -11v-13l1 -11v-11v-11v-13l2 -20v-12v-19v-19v-16v-14v-15v-11v-11h-16v11v11v15v14v16v19v19v12l-2 20v13v11v11l-1 11v11l-2 11v23v11v20v11l-1 9l-2 10l-3 19l-2 18v9l-3 15l-1 10l-3 14l-5 14l-3 15l-3 12l-4 12l-4 10
l-2 10l-7 11l-4 11l-5 8l-5 7l-7 8l-8 3h-10h-10h-13l-14 -2l-12 -1l-12 -3l-11 -3l-10 -4l-11 -3l-10 -5l-9 -6l-13 -8l-10 -6l-9 -7l-11 -9l-11 -10l-8 -7l-6 -9l-8 -9l-8 -7l-9 -11l-8 -10l-7 -10l-5 -10l-5 -13v-9l-2 -11v-11l-1 -11v-13v-13l-2 -11v-10v-11l-1 -14v-20
v-11v-11v-13v-20v-19v-11v-11v-15v-10v-11v-17v-14v-12l1 -13v-12v-10h-16v10v12l-1 13v12v14v17v11v10v15v11v11v19v20v13v11v11v20l1 14v11v12l2 11v11v13l1 11v13l2 11v10v11v13v12l2 10v10v11v10v20v11v17v11z" />
    <glyph glyph-name="o" unicode="o" horiz-adv-x="500" 
d="M249 520l-2 -13l-18 3l-12 -3l-13 -6l-7 -6l-13 -8l-8 -5l-11 -10l-9 -11l-8 -8l-8 -12l-9 -11l-9 -13l-5 -15l-5 -15l-6 -16l-5 -15l-4 -16l-2 -19l-3 -17l-2 -17l-1 -15v-15v-10v-15v-14v-18v-15v-15l3 -14l5 -16l3 -16l4 -11l4 -13l5 -11l6 -10l5 -9l8 -8l6 -10l9 -8
l8 -5l11 -8l9 -5l12 -6l10 -4l15 -3l12 -3h16h11h11h15l10 2l10 3l8 5l8 6l7 5l8 9l5 9l8 10l6 13l6 11l8 14l7 11l2 10l4 14l3 13l4 12l3 12v11l1 13v14v12v13l-1 14v13l-2 12l-1 14l-4 13v14l-3 13l-3 14l-3 14l-3 14l-4 12l-6 14l-6 16l-4 15l-6 13l-7 11l-7 12l-10 12
l-7 9l-8 10l-9 8l-11 9l-13 7l-10 2zM220 524v16h15l15 -3l11 -4l12 -4l15 -7l13 -11l11 -10l8 -10l7 -9l10 -12l9 -14l7 -11l8 -15l4 -17l4 -14l6 -14l6 -14l3 -14l3 -14l3 -14l3 -15v-14l4 -13l1 -14l2 -12v-15l1 -14v-13v-12v-14l-1 -13v-13l-3 -14l-4 -12l-3 -13l-4 -14
l-4 -12l-7 -13l-8 -14l-6 -11l-6 -13l-8 -12l-7 -9l-8 -11l-9 -7l-10 -6l-10 -5l-12 -5l-12 -2h-17h-11h-11h-18l-14 3l-15 3l-12 6l-14 6l-9 5l-13 8l-8 7l-11 10l-6 10l-8 8l-7 11l-6 10l-5 13l-6 13l-4 13l-3 16l-5 16l-3 16v17v15v18v14v15v10v15l1 17l2 17l3 17l2 19
l4 18l5 17l6 16l5 15l7 17l11 15l9 11l8 12l8 8l9 11l13 12l8 7l13 8l9 6l15 8z" />
    <glyph glyph-name="p" unicode="p" horiz-adv-x="547" 
d="M117 123l4 -12l6 -13l8 -11l11 -14l10 -14l12 -12l10 -11l7 -5l14 -8l14 -7l13 -3h13h14l14 2l12 1l14 5l13 2l13 8l10 7l12 9l12 11l11 13l8 6l5 7l8 17l6 10l8 14l4 11l8 19l5 9l2 10l2 11l3 10l1 10l3 13l4 10v10v12v11v11v10v11v12v9l-2 10l-3 19l-2 11l-1 19l-3 10
l-3 11l-5 14l-5 16l-8 15l-8 14l-6 10l-7 9l-8 8l-11 10l-10 7l-10 5l-12 3l-14 2h-13h-11h-9l-12 -2l-10 -2l-13 -3l-11 -4l-13 -4l-11 -6l-11 -7l-12 -7l-11 -9l-11 -9l-9 -8l-8 -9l-8 -8l-8 -7l-7 -11l-6 -8l-2 -4v-9v-22v-21v-23v-24v-25v-23v-23v-22v-24v-23v-22v-15z
M102 516l16 -2l-1 -12v-11v-11v-12v-14v-14v-12l3 4l8 9l8 8l10 9l9 8l11 9l11 11l14 7l11 7l13 6l13 6l13 4l13 3l12 2l12 2h11h11h15l14 -2l16 -3l12 -7l12 -9l13 -10l8 -10l9 -9l6 -12l8 -14l8 -17l7 -16l5 -16l3 -11l3 -12l1 -19l2 -11l3 -19l2 -10v-11v-12v-11v-10v-11
v-11v-12v-12l-4 -12l-3 -11l-1 -10l-3 -12l-2 -11l-4 -12l-5 -9l-8 -19l-4 -11l-8 -16l-6 -10l-8 -17l-7 -9l-8 -8l-11 -13l-14 -11l-12 -9l-12 -9l-15 -8l-15 -4l-14 -5l-14 -1l-14 -2h-16h-15l-17 3l-16 9l-14 8l-9 7l-12 11l-12 14l-10 14l-11 14l-6 8v-13v-18v-19v-16
v-17v-16v-15v-16v-12v-16v-14v-11v-12v-10v-12v-10l-2 -18l-1 -11v-10h-16v10l1 13l2 16v10v12v10v12v11v14v16v12v16v15v16v17v16v19v18v21v22v6l-5 15l-1 13l-2 11v12h8v11v24v22v23v23v25v24v23v21v22v10l-1 1l1 2v4v17v16v14v14v12v11v11z" />
    <glyph glyph-name="q" unicode="q" horiz-adv-x="524" 
d="M399 371l-4 -5l-13 12l-4 15l-7 15l-8 17l-7 8l-6 9l-11 14l-7 9l-14 8l-13 11l-13 6l-13 4l-15 3l-17 3l-16 2h-11h-17l-14 -2l-15 -5l-14 -8l-9 -5l-5 -7l-6 -8l-8 -11l-7 -10l-4 -9l-5 -13l-5 -11l-3 -11l-4 -14l-3 -15l-3 -13l-1 -15l-2 -16l-3 -14l-2 -17l-1 -16
v-14v-19v-17v-16v-16v-10v-16l1 -10l2 -10l3 -11l2 -10l5 -9l3 -11l5 -9l9 -15l10 -16l11 -13l5 -7l10 -6l15 -7l11 -3l10 -4l14 -1l10 -2l16 -1h17l14 1l10 4l11 6l11 7l10 6l8 10l11 12l10 9l9 12l9 9l9 13l8 11l9 13l6 13l5 13l2 4v8l2 27v26l1 28l2 30v27l1 26l3 23v4z
M409 517l16 -4l-3 -9v-31l-2 -11v-16v-17l-3 -22l-2 -19v-23l-3 -23l-1 -24v-27l-2 -30l-1 -28v-26l-1 -11l5 -1l-1 -10l-4 -13l-2 -4l-1 -19l-1 -30l-2 -31l-1 -27v-23v-23l-2 -21v-22v-17v-17v-17v-16v-11v-14v-19v-17v-12v-13v-12h-16v12v13v12v17v19v14v11v16v17v17v17
v22l2 21v23v23l1 27l2 31v10l-5 -8l-8 -13l-11 -13l-9 -9l-9 -12l-10 -11l-11 -10l-10 -12l-12 -8l-11 -7l-13 -6l-12 -6l-18 -1h-17l-18 1l-10 2l-16 1l-10 4l-13 3l-17 9l-12 8l-7 9l-11 13l-12 18l-9 15l-5 11l-3 11l-5 9l-4 12l-3 11l-2 12l-1 12v16v10v16v16v17v19v14
l1 18l2 17l3 14l2 16l1 15l3 15l3 15l4 14l5 13l5 11l5 13l4 11l9 12l8 11l6 8l7 9l11 7l16 8l17 7l18 2h17h11l18 -2l17 -3l17 -3l15 -6l15 -6l15 -11l14 -10l9 -11l11 -14l6 -9l9 -10l8 -19l7 -15l4 -13l3 -3v5l2 21l3 22v15v18l2 11v31z" />
    <glyph glyph-name="r" unicode="r" horiz-adv-x="391" 
d="M110 504l14 -8l-4 -8v-17l-3 -18v-11l-2 -11v-10v-11v-14v-11v-1l4 6l5 11l6 11l9 12l8 10l11 12l7 10l11 8l11 8l12 9l12 6l12 4l16 5h11h11l12 -4l11 -7l7 -9l-12 -10l-5 7l-7 5l-8 2h-9h-9l-14 -5l-10 -2l-10 -6l-10 -7l-11 -8l-9 -8l-7 -8l-11 -12l-8 -10l-7 -10
l-6 -11l-5 -11l-8 -11l-3 -14l-5 -12l-2 -11v-4v-14v-14v-14v-14v-14v-16v-15v-14v-15v-10l-1 -16v-13v-12v-13v-14v-11v-11v-12v-11v-17v-11v-14v-11v-11h-16v11v11v14v11v17v11v12v11v11v14v13v12v13l1 16v10v15v14v15v16v14v14v14v14v3h-3l3 17v7v14v12v16v11v14v11v12
l2 11v11l3 18v19z" />
    <glyph glyph-name="s" unicode="s" horiz-adv-x="464" 
d="M351 357l-16 -4l-4 14v11l-2 12l-2 12l-3 11l-4 11l-4 12l-6 9l-5 11l-8 8l-5 11l-8 5l-10 8l-11 7l-11 4l-10 3l-11 1l-14 4l-10 1h-12l-8 -1l-10 -4l-8 -8l-11 -5l-9 -9l-8 -12l-8 -12l-8 -14l-6 -11l-4 -13l-3 -13v-10v-13v-11v-12l5 -9l8 -11l9 -14l11 -11l7 -10
l10 -8l9 -7l14 -8l12 -3l14 -3l12 -3l13 -4l12 -3l12 -5l13 -5l12 -5l11 -6l11 -6l9 -5l10 -7l10 -10l10 -8l4 -12l7 -14l4 -13l1 -15l2 -11v-12v-10v-12l-4 -14l-7 -14l-6 -12l-8 -14l-10 -12l-8 -7l-10 -10l-14 -10l-13 -6l-11 -3l-11 -1l-12 -4l-15 -3h-14h-12h-14h-14
l-12 2l-14 3l-13 6l-14 6l-10 9l-9 9l-7 11l-5 12l-4 11l-3 12l-2 11l-3 14l-1 12v12v13v11h16v-11v-13v-12l1 -10l3 -12l2 -11l3 -12l2 -9l5 -10l5 -9l7 -7l8 -7l12 -6l11 -4l14 -3l10 -2h12h14h12h12l13 3l12 4l11 1l9 3l11 4l12 8l8 10l8 7l8 10l8 12l6 12l7 12l2 10v10
v10v10l-2 11l-1 15l-2 9l-7 14l-4 8l-6 6l-10 10l-8 5l-9 5l-11 6l-11 6l-10 5l-13 5l-10 3l-12 3l-13 4l-12 3l-14 3l-14 5l-16 8l-11 9l-12 10l-7 10l-11 11l-11 14l-8 13l-7 13v16v11v13v12l3 15l6 15l6 13l8 14l8 14l10 12l11 11l11 7l10 8l14 6l12 1h12l12 -1l14 -4
l11 -1l12 -3l15 -6l13 -9l10 -8l10 -7l7 -11l8 -10l5 -11l6 -9l6 -14l4 -13l3 -11l2 -14l2 -12v-11z" />
    <glyph glyph-name="t" unicode="t" horiz-adv-x="334" 
d="M21 471l-2 16l16 1h13h12h16h14h2l1 17l2 18l1 17v15v16v14v14v11v11v11v12h16v-12v-11v-11v-11v-14v-14v-16v-15l-1 -19l-2 -18l-1 -15h10h16h12h13h12l14 -1l11 -2l-2 -16l-11 2l-12 1h-12h-13h-12h-16h-10v-1l-2 -18l-2 -18v-16l-1 -20v-16l-2 -18l-1 -17l-2 -19v-16
v-19l-1 -17v-17v-16v-15v-16v-16l1 -14l2 -14l1 -14l2 -13l1 -12l2 -12l3 -11l3 -12l2 -10l6 -16l5 -16l7 -11l6 -8l5 -7l6 -5l8 -5l10 -2l12 -3l16 -2h12h9l12 5l6 -14l-14 -7h-13h-12l-18 2l-14 3l-12 4l-10 5l-10 7l-7 9l-6 10l-7 13l-7 16l-6 18l-2 10l-3 12l-3 11
l-2 14l-1 12l-2 13l-1 14l-2 14l-1 16v16v16v15v16v17l1 17v19v16l2 21l1 17l2 16v16l1 20v16l2 20l2 16v1h-2h-14h-16h-12h-13z" />
    <glyph glyph-name="u" unicode="u" horiz-adv-x="509" 
d="M121 513l16 -2l-1 -11l-2 -10v-12l-1 -13l-4 -12l-1 -13l-2 -13v-12v-14v-14l-1 -12v-17v-12v-13v-13v-16v-15v-14v-15v-16v-16v-16v-18v-14l1 -17v-14l3 -14l4 -16l1 -13l3 -12l3 -9l4 -12l5 -9l8 -13l6 -9l7 -6l10 -7l9 -6l9 -5l13 -3l10 -2h11l11 -1h13h12l9 1l8 2
l9 7l7 8l8 9l7 10l6 9l6 12l7 11l4 10l7 12l3 10l6 12l4 13l3 12l5 14l3 15l4 15l3 9v12l4 12l1 15l2 11v13l3 15l1 11v12v11l2 10v10v12v10v12v11v15v14v13v11v11v14l-2 10v5l-1 4v17h16l1 -15v-5l2 -7l2 -13v-13v-13v-15l1 -14v-12v-12v-14v-12v-14l-1 -14v-14v-14l-2 -14
v-14v-15l-2 -13l-1 -12v-14l-2 -17v-14v-14v-14v-13v-14v-14v-11v-14v-12l-1 -11v-11v-15v-14v-12v-11h-16v11v12v14v15v11l1 11v12v14v11v14v14v13v14v5l-2 -11l-5 -14l-3 -12l-6 -15l-6 -12l-3 -10l-7 -12l-4 -12l-7 -11l-6 -12l-6 -11l-9 -10l-8 -9l-7 -10l-13 -9l-12 -4
l-13 -1h-12h-13l-11 1h-13l-12 2l-15 5l-11 5l-11 6l-10 9l-9 8l-8 11l-8 13l-5 11l-6 12l-3 11l-3 14l-1 13l-4 14l-3 16v16l-1 17v14v18v16v16v16v15v14v15v16v13v13v12v17l1 12v14v14v14l2 13l1 13l4 14l1 9v14l2 10z" />
    <glyph glyph-name="v" unicode="v" horiz-adv-x="490" 
d="M66 493l14 6l6 -11l3 -15l8 -21l4 -14l3 -14l8 -26l3 -14l5 -17l5 -15l4 -15l5 -17l5 -14l4 -17l7 -15l3 -15l4 -15l6 -12l5 -15l5 -15l3 -12l5 -12l5 -15l4 -13l5 -13l2 -13l4 -12l3 -11l4 -11l3 -11l4 -17l3 -10l4 -11l1 -5l1 6l5 18l3 11l3 13l3 11l4 14l3 12l3 13
l3 14l3 13l2 16l4 15l5 17l5 14l4 15l5 17l5 12l4 17l6 16l4 11l3 12l6 15l4 11l7 12l3 12l4 12l5 9l5 19l8 17l6 16l6 13l5 9l6 15l5 9l7 9l12 -10l-5 -7l-5 -9l-6 -13l-5 -11l-6 -11l-6 -16l-6 -17l-7 -19l-5 -9l-2 -10l-5 -14l-7 -12l-2 -11l-6 -13l-3 -14l-6 -11l-4 -14
l-4 -17l-5 -14l-5 -15l-4 -15l-5 -14l-5 -17l-4 -15l-2 -14l-3 -15l-3 -14l-3 -13l-3 -12l-4 -14l-3 -11l-3 -13l-3 -11l-5 -18l-4 -18l-8 -10l-16 4l-2 11l-4 10l-4 13l-3 10l-4 17l-3 11l-4 11l-3 11l-4 12l-2 13l-5 11l-4 15l-5 13l-5 14l-3 12l-5 15l-3 13l-6 12l-6 17
l-3 13l-7 15l-4 19l-5 14l-5 17l-4 15l-5 15l-5 17l-3 14l-8 26l-3 14l-4 12l-8 23l-3 13z" />
    <glyph glyph-name="w" unicode="w" horiz-adv-x="747" 
d="M12 476l14 6l6 -11l3 -15l8 -21l4 -14l3 -14l8 -26l3 -14l5 -17l5 -15l4 -15l5 -17l5 -14l4 -17l7 -15l3 -15l4 -15l6 -12l5 -15l5 -15l3 -12l5 -12l5 -15l4 -13l5 -13l2 -13l4 -12l3 -11l4 -11l3 -11l4 -17l3 -10l4 -11l1 -5l1 6l5 18l3 11l3 13l3 11l4 14l3 12l3 13
l3 14l3 13l2 16l4 15l5 17l5 14l4 15l5 17l5 12l4 17l6 16l4 11l3 12l6 15l4 11l7 12l3 12l4 12l5 9l5 19l8 17l6 16l6 13l5 9l6 15l5 9l6 8l1 1v-1l13 6l6 -11l3 -15l8 -21l4 -14l3 -14l8 -26l3 -14l5 -17l5 -15l4 -15l5 -17l5 -14l4 -17l7 -15l3 -15l4 -15l6 -12l5 -15
l5 -15l3 -12l5 -12l5 -15l4 -13l5 -13l2 -13l4 -12l3 -11l4 -11l3 -11l4 -17l3 -10l4 -11l1 -5l1 6l5 18l3 11l3 13l3 11l4 14l3 12l3 13l3 14l3 13l2 16l4 15l5 17l5 14l4 15l5 17l5 12l4 17l6 16l4 11l3 12l6 15l4 11l7 12l3 12l4 12l5 9l5 19l8 17l6 16l6 13l5 9l6 15
l5 9l7 9l12 -10l-5 -7l-5 -9l-6 -13l-5 -11l-6 -11l-6 -16l-6 -17l-7 -19l-5 -9l-2 -10l-5 -14l-7 -12l-2 -11l-6 -13l-3 -14l-6 -11l-4 -14l-4 -17l-5 -14l-5 -15l-4 -15l-5 -14l-5 -17l-4 -15l-2 -14l-3 -15l-3 -14l-3 -13l-3 -12l-4 -14l-3 -11l-3 -13l-3 -11l-5 -18
l-4 -18l-8 -10l-16 4l-2 11l-4 10l-4 13l-3 10l-4 17l-3 11l-4 11l-3 11l-4 12l-2 13l-5 11l-4 15l-5 13l-5 14l-3 12l-5 15l-3 13l-6 12l-6 17l-3 13l-7 15l-4 19l-5 14l-5 17l-4 15l-5 15l-5 17l-3 14l-8 26l-3 14l-4 12l-8 23l-1 5l-3 -6l-6 -13l-5 -11l-6 -11l-6 -16
l-6 -17l-7 -19l-5 -9l-2 -10l-5 -14l-7 -12l-2 -11l-6 -13l-3 -14l-6 -11l-4 -14l-4 -17l-5 -14l-5 -15l-4 -15l-5 -14l-5 -17l-4 -15l-2 -14l-3 -15l-3 -14l-3 -13l-3 -12l-4 -14l-3 -11l-3 -13l-3 -11l-5 -18l-4 -18l-8 -10l-16 4l-2 11l-4 10l-4 13l-3 10l-4 17l-3 11
l-4 11l-3 11l-4 12l-2 13l-5 11l-4 15l-5 13l-5 14l-3 12l-5 15l-3 13l-6 12l-6 17l-3 13l-7 15l-4 19l-5 14l-5 17l-4 15l-5 15l-5 17l-3 14l-8 26l-3 14l-4 12l-8 23l-3 13z" />
    <glyph glyph-name="x" unicode="x" horiz-adv-x="455" 
d="M85 1l-8 14l10 6l6 12l10 17l10 15l6 11l5 10l4 11l7 10l3 11l5 10l6 13l3 12l6 13l6 12l5 13l5 11l6 12l5 11l4 13l7 12l3 9l-5 11l-6 8l-5 11l-8 16l-7 17l-8 17l-8 15l-6 14l-6 17l-5 16l-8 15l-7 18l-2 9l-4 9l-7 17l-4 13l-5 12l-3 14l15 6l8 -13l-4 -4l3 -9l6 -13
l5 -17l6 -9l2 -11l5 -16l8 -15l7 -16l6 -17l4 -14l8 -13l8 -19l7 -17l8 -14l5 -11l6 -8l3 4l2 11l5 10l6 11l4 10l5 12l6 11l10 17l8 16l7 16l8 18l8 14l8 12l6 13l9 12l7 11l8 11l6 10l14 -8l-6 -10l-8 -13l-9 -11l-7 -10l-6 -13l-8 -12l-8 -14l-8 -16l-7 -16l-8 -18
l-10 -17l-6 -11l-5 -10l-4 -10l-6 -11l-3 -10l-4 -11l-6 -12l-2 -3l4 -5l4 -12l7 -11l7 -10l7 -12l6 -13l8 -12l7 -14l8 -14l8 -16l8 -13l5 -10l6 -11l6 -11l6 -11l5 -11l6 -9l6 -9l7 -10l6 -15l5 -13l6 -11l-14 -8l-6 13l-5 13l-6 13l-5 8l-8 9l-6 11l-5 11l-6 11l-6 11
l-6 11l-5 10l-8 13l-8 16l-8 14l-7 14l-8 12l-6 13l-7 12l-7 10l-7 13l-2 3l-6 -9l-4 -13l-5 -11l-6 -12l-5 -11l-5 -13l-6 -12l-4 -13l-5 -12l-6 -13l-5 -10l-3 -11l-7 -12l-4 -9l-5 -12l-6 -11l-10 -15l-10 -17l-8 -14z" />
    <glyph glyph-name="y" unicode="y" horiz-adv-x="467" 
d="M352 500l16 -2l-3 -17l-3 -18l-3 -12l-5 -11l-3 -13l-4 -19l-8 -14l-3 -11l-5 -20l-7 -14l-6 -16l-4 -16l-5 -16l-6 -17l-3 -12l-5 -14l-3 -17l-5 -16l-4 -16l-4 -13l-6 -15l-3 -14l-3 -12l-3 -13l-6 -16l-4 -13l-5 -14l-5 -11l-4 -12l-3 -10l-3 -8l2 -6l-4 -1l-1 -9
l-6 -13l-3 -10l-5 -14l-6 -11l-2 -11l-9 -20l-5 -17l-6 -19l-7 -17l-7 -15l-8 -14l-6 -14l-8 -14l-6 -14l-10 -14l-10 -12l-10 -8l-9 -8l-15 -5l-11 -6l-14 -3l-11 -1l-17 2l-10 7l-10 8l10 12l10 -8l6 -5h11l9 1l10 3l11 4l13 5l7 6l8 8l10 10l8 12l6 14l8 14l6 14l8 14
l7 13l5 17l6 19l7 17l7 20l4 11l6 11l3 14l5 10l4 11l2 11l1 1l-1 1l-4 10l-3 11l-3 11l-3 12l-3 13l-5 13l-6 15l-3 12l-6 17l-4 16l-6 16l-6 18l-3 19l-5 15l-7 17l-7 18l-1 10l-5 15l-5 15l-6 15l-5 17l-3 15l-8 14l-6 15l-6 18l-4 14l-6 15l-7 16l-4 14l-5 12l14 6
l5 -12l6 -14l5 -16l6 -15l6 -14l6 -18l4 -15l8 -14l5 -17l5 -15l6 -15l5 -17l5 -15l1 -10l5 -16l7 -17l7 -17l3 -19l6 -16l6 -18l4 -16l6 -17l3 -12l4 -13l7 -15l3 -13l3 -12l3 -11l4 10l5 11l3 12l4 15l6 14l3 13l3 12l3 14l6 17l4 11l4 16l5 16l3 17l5 14l3 12l6 19l5 14
l4 16l8 18l5 14l5 18l5 13l6 14l4 17l3 15l5 11l3 10l3 16z" />
    <glyph glyph-name="z" unicode="z" horiz-adv-x="488" 
d="M68 489l-6 14l11 5h17h14h10h17h17h12h10h20h11h11h19h20h16h17l17 2h16h13l14 2h12l13 1l12 3l7 -14l-9 -9l-11 -10l-7 -12l-9 -14l-7 -10l-8 -8l-6 -9l-8 -8l-8 -9l-8 -11l-11 -11l-9 -11l-10 -11l-9 -13l-11 -12l-11 -13l-9 -11l-8 -10l-11 -11l-9 -10l-8 -12l-8 -8
l-9 -11l-8 -11l-10 -11l-7 -11l-8 -8l-5 -11l-9 -9l-8 -9l-5 -7l-5 -10l-9 -15l-11 -14l-10 -16l-9 -15l-8 -14l-5 -14l-9 -16l-6 -11l-6 -13l-5 -9l-5 -8l-1 -3h5h12l14 -2l16 -3l17 -2l17 -3l10 -1l16 -2h18h10h18l13 -2h16h15h16h16h15h14h16h14h14h14h11h11v-16h-11h-11
h-14h-14h-14h-16h-14h-15h-16h-16h-15h-18l-13 2h-16h-10h-18l-18 2l-10 1l-17 3l-17 2l-16 3l-14 2h-12l-11 2l-9 14l4 9l5 10l5 9l6 13l6 11l9 14l5 14l8 16l9 15l10 16l11 16l9 13l5 10l7 9l8 9l7 9l7 11l8 8l7 11l10 11l8 11l9 11l8 8l8 12l9 12l11 9l8 10l9 11l11 13
l11 12l9 13l10 11l9 11l11 11l8 11l8 9l8 8l6 9l8 8l5 8l9 14l9 14l3 3h-3h-10l-14 -2h-15h-16l-17 -2h-17h-16h-20h-19h-11h-11h-20h-10h-12h-17h-17h-10h-14h-13z" />
    <glyph glyph-name="braceleft" unicode="{" horiz-adv-x="390" 
d="M291 706l-8 -14l-7 4h-8l-10 -2l-14 -3l-10 -2l-13 -3l-13 -7l-9 -6l-10 -6l-9 -7l-9 -8l-8 -10l-7 -9l-7 -10l-5 -11l-6 -11l-6 -11l-5 -13l-4 -11l-3 -13l-3 -14l-3 -12l-2 -12l-3 -14l-1 -14l-2 -14l-2 -13v-11l-1 -14l-3 -11v-12l-3 -17v-9v-13l-4 -17l-3 -15l-3 -14
l-5 -12l-5 -11l-5 -11l-7 -12l-9 -8l-10 -6l-9 -6l-10 -7l11 -4l14 -7l12 -8l9 -8l6 -11l9 -8l3 -11l5 -9l4 -11l3 -10l1 -12l2 -13l2 -11l1 -15v-14l2 -16v-14v-11v-11v-10v-11v-11v-11v-13v-15v-13v-11v-12v-11v-14v-10l1 -11l2 -8l5 -10l5 -9l8 -11l5 -8l6 -8l9 -10l9 -8
l8 -7l11 -3l12 -3l11 -4l9 -3l9 -1l12 -3l13 -3h11l11 -2l-2 -16l-11 2h-11l-15 3l-10 3l-11 1l-11 3l-9 4l-12 3l-15 5l-10 9l-11 8l-9 12l-6 8l-7 8l-8 13l-5 9l-5 12l-4 12l-1 13v10v14v11v12v11v13v15v13v11v11v11v10v11v11v14l-2 16v14l-1 13l-2 11l-2 13l-1 10l-3 10
l-2 9l-5 9l-3 9l-7 6l-6 11l-7 6l-10 6l-12 7l-8 2h-11l-12 2l-2 16l9 6l11 6l8 7l11 6l8 6l7 4l5 10l5 9l5 11l3 10l3 14l3 15l4 15v11v11l3 17v12l3 11l1 12v13l2 13l2 14l1 14l3 14l2 14l3 12l3 14l3 13l6 13l5 13l6 13l6 11l5 11l9 12l7 9l8 10l11 10l9 9l12 6l9 6l15 7
l15 5l10 2l14 3l12 2h14z" />
    <glyph glyph-name="bar" unicode="|" horiz-adv-x="206" 
d="M88 707l16 2l2 -12v-12v-13v-14v-12v-14v-16v-14v-14v-14v-17v-16l-2 -16v-17v-17v-11v-17v-19v-19v-20v-19v-20v-22v-20v-11v-22l-1 -23l-2 -21v-11l-1 -11v-10v-15v-10v-13v-12l-2 -14v-11v-11v-13v-11v-11v-11l-1 -17v-11v-15v-13v-14v-11v-11h-16v11v11v14v13v15v11
l1 17v11v11v11v13v11v13l2 14v10v13v10v15v10l1 11v11l2 23l1 21v22v11v20v22v20v19v20v19v19v17v11v17v17l2 16v16v17v14v14v14v16v14v12v14v13v10z" />
    <glyph glyph-name="braceright" unicode="}" horiz-adv-x="374" 
d="M8 707l-4 16l12 3h14l11 -2l16 -7l12 -11l10 -7l6 -9l11 -14l6 -15l6 -11l6 -15l4 -14l4 -17l4 -16l2 -16l1 -10l4 -18l1 -10l2 -15l1 -10l3 -17l2 -18v-19v-15v-10v-11v-15v-16l1 -13l4 -12l3 -15l1 -13l4 -11l6 -10l6 -11l6 -8l7 -7l9 -6l12 -7l11 -2l14 -5l13 -5
l10 -1l12 -2h12l2 -15l-16 -4l-15 -3l-11 -2l-10 -3l-10 -4l-11 -6l-9 -5l-7 -5l-7 -5l-6 -9l-7 -9l-3 -10l-4 -8l-1 -10l-2 -17l-2 -11v-12v-14v-14v-11l4 -14l1 -14l2 -14l3 -13l1 -14l2 -13l1 -15v-12v-11v-13v-12v-13v-11l-3 -11l-1 -11l-7 -15l-5 -12l-9 -12l-10 -10
l-10 -8l-8 -6l-9 -9l-11 -5l-11 -3l-10 -6l-13 -4l-13 -3l-12 -2h-11l-10 -1h-12v16h12l10 1h9l10 2l13 3l11 2l10 6l11 3l7 5l9 7l8 6l10 8l8 8l7 10l5 10l5 13l1 9l3 11v9v13v12v13v11v12l-1 13l-2 13l-1 14l-3 13l-2 14l-1 14l-4 14v13v14v14v14l2 11l2 17l1 12l6 10
l3 12l9 11l6 9l9 7l9 7l9 5l11 6l12 6l8 2l-5 1l-12 5l-13 4l-14 7l-11 8l-9 9l-8 10l-6 11l-6 12l-6 13l-1 15l-3 13l-4 14l-1 15v16v15v11v10v15v19l-2 16l-3 17l-1 10l-2 15l-1 10l-4 18l-1 10l-2 14l-4 16l-4 17l-4 14l-4 13l-6 11l-6 13l-9 12l-6 7l-8 7l-10 9l-12 5
l-9 2h-10z" />
    <glyph glyph-name="asciitilde" unicode="~" horiz-adv-x="643" 
d="M20 150h-16v19l2 15l7 16l5 8l4 11l7 10l8 9l7 10l7 9l7 9l7 9l11 8l8 8l10 7l10 6l11 4l12 5l14 2l11 1l12 3h12h11h11l14 -1l12 -6l11 -6l10 -6l10 -7l8 -6l10 -7l8 -8l8 -6l9 -8l9 -8l7 -8l8 -7l9 -6l10 -7l9 -5l10 -5l11 -5l9 -2l14 -4l13 -2h11h8l11 4l9 4l8 6l9 8
l8 7l7 6l9 14l10 11l5 11l5 9l6 9l3 11l5 9l4 13l5 10l14 -8l-5 -8l-4 -13l-5 -9l-3 -11l-6 -11l-5 -9l-5 -11l-12 -13l-9 -14l-9 -8l-8 -7l-9 -8l-10 -8l-11 -4l-13 -6h-12h-13l-15 2l-14 4l-11 4l-11 5l-12 5l-9 5l-12 7l-9 8l-8 7l-9 8l-7 8l-9 8l-8 6l-8 8l-8 5l-10 6
l-10 7l-8 6l-11 6l-8 4l-10 1h-11h-11h-10l-12 -3l-11 -1l-12 -2l-10 -5l-11 -2l-8 -6l-8 -5l-8 -8l-9 -8l-7 -7l-7 -9l-7 -9l-7 -10l-8 -9l-5 -8l-4 -9l-5 -10l-5 -12l-2 -13v-17z" />
    <glyph glyph-name="exclamdown" unicode="&#xa1;" horiz-adv-x="266" 
d="M159 491l1 -1l7 -17l-2 -18l-5 -16l-13 -16l-15 -4l-14 3l-13 10v4l-2 1l-2 18v11l8 21l6 3v1l1 1l2 4l11 2l1 2h18zM135 335l16 -4l-3 -10v-12l2 -11v-19l1 -11v-10l2 -13l1 -15v-11v-12v-13l2 -14v-12v-14v-14v-13v-14v-13v-12v-14v-13v-13l-2 -14v-10l-1 -14v-12
l-2 -13l-1 -10v-10v-11l-2 -11l-1 -19l-2 -15l-2 -16l-1 -13v-14l-2 -16v-10v-10v-11v-11h-16v11v11v10v10l2 16v14l1 15l2 16l2 15l1 19l2 11v9v10l1 12l2 13v10l1 14v12l2 14v11v13v14v12v13v14v13v14v14v10l-2 14v15v12v11l-1 13l-2 13v12l-1 11v17l-2 11v16z" />
    <glyph glyph-name="cent" unicode="&#xa2;" horiz-adv-x="510" 
d="M318 493h-1l-11 7l-13 3l-13 4l-13 3h-17l-16 -2l-13 -7l-11 -6l-9 -4l-13 -14l-6 -10l-7 -9l-6 -10l-5 -9l-6 -10l-5 -13l-3 -10l-3 -12l-5 -13l-3 -12l-5 -13l-1 -14l-2 -14l-3 -14l-2 -16l-1 -16l-2 -14l-1 -14l-2 -11v-13v-12v-11v-11v-11v-10v-10v-10l5 -17l4 -18
l6 -17l6 -15l8 -15l8 -14l8 -13l10 -8l7 -7v1l6 11l3 10l4 11l3 13l4 12l4 12l4 12l3 11l4 14l4 13l3 12l3 11l5 13l3 14l3 12l6 17l4 11l3 13l3 16l3 14l5 14l3 15l5 16l3 13l4 14l4 14l4 14l3 15l5 13l3 14l5 12l3 13l3 14l6 13l4 12zM411 325l-16 -2l-2 17v12l-1 17v10
l-2 15l-5 15l-3 16l-4 14l-6 8l-8 11l-8 9l-7 7l-8 7l-9 4l-5 -13l-4 -11l-3 -14l-3 -13l-5 -12l-3 -14l-5 -13l-3 -15l-4 -14l-4 -14l-4 -14l-3 -13l-5 -16l-3 -15l-5 -14l-3 -14l-3 -16l-3 -15l-6 -11l-4 -15l-3 -12l-3 -14l-5 -13l-3 -11l-3 -12l-4 -13l-4 -14l-3 -11
l-4 -12l-4 -14l-4 -10l-3 -15l-6 -11l-3 -10l-4 -11l-2 -7l2 -1l8 -6l14 -2l11 -5l10 -3h13h14h12l11 2l13 5l10 6l14 8l9 7l8 8l9 13l6 8l6 11l6 11l6 12l3 9l3 13l3 10l1 13v12l2 12v12h16v-14l-2 -12v-10l-1 -15l-3 -12l-3 -13l-5 -11l-6 -14l-6 -11l-6 -11l-8 -10
l-9 -13l-10 -10l-11 -9l-14 -8l-12 -6l-15 -7l-13 -2h-14h-14h-15l-14 3l-11 5l-14 4l-9 5l-4 -10l-3 -10l-5 -13l-3 -11l-4 -12l-6 -10l-3 -10l-5 -11l-5 -19l-2 -13l-1 -10l-16 2l1 10l2 15l7 21l5 11l3 10l6 10l2 10l3 11l5 13l3 12l5 11l2 4l-2 1l-11 11l-12 10l-10 15
l-8 14l-8 17l-6 15l-8 19l-4 18l-5 19v12v10v10v11v11v11v12v15l2 11l1 14l2 14l1 16l2 16l3 14l2 14l1 16l5 13l3 12l5 13l3 12l5 12l5 13l6 12l5 9l6 12l9 9l6 10l15 16l11 6l11 6l17 9l20 2h19l15 -3l13 -4l15 -5l10 -5l2 6l2 11l5 12l1 11l6 19l5 15l6 15l10 8l10 -12
l-6 -6l-4 -11l-5 -15l-6 -17l-1 -11l-5 -12l-2 -11l-3 -10l12 -6l10 -9l9 -9l8 -9l8 -11l8 -10l6 -18l3 -16l5 -15l2 -19v-10l1 -17v-12z" />
    <glyph glyph-name="sterling" unicode="&#xa3;" horiz-adv-x="553" 
d="M20 310l2 16l11 -2h18h16l13 2h20h14h11h12h13l14 1h2h3l-1 6l-3 16l-2 18l-3 10l-3 17l-5 15l-1 11l-2 11l-1 15l-3 18l-3 18v18v19v10v11v18v11l1 11l2 11l3 19l4 18l8 16l8 12l8 12l11 10l12 9l13 6l13 5h12h14l13 -4l12 -4l12 -6l13 -5l12 -6l15 -6l11 -12l12 -9
l9 -9l6 -8l8 -11l9 -12l6 -12l5 -12l7 -14l3 -10l4 -13v-12v-12v-13v-12v-11l-2 -15l-16 2l2 15v9v12v13v12v10l-4 9l-3 10l-5 14l-5 12l-6 10l-7 10l-8 11l-6 8l-7 7l-12 9l-11 10l-11 6l-12 6l-13 5l-12 6l-10 2l-11 4h-12h-10l-9 -3l-11 -6l-10 -7l-9 -8l-6 -10l-8 -12
l-6 -14l-4 -16l-3 -17l-2 -11l-1 -9v-11v-18v-11v-10v-19v-16l3 -18l3 -18l1 -15l2 -11l1 -9l5 -15l3 -17l3 -10l2 -20l3 -14l2 -10l8 2h13h10h18h10h14l12 1h10v-16h-10l-12 -1h-14h-10h-18h-10h-11l-8 -2l1 -10l3 -17l1 -18v-11v-15v-10v-15v-16l-1 -18l-5 -12l-3 -13
l-6 -13l-6 -13l-5 -11l-6 -13l-6 -10l-8 -12l-6 -12l-9 -9l-6 -7l13 6l19 7l13 4l20 3l12 1h18h14h12l13 -7l13 -5l12 -6l12 -9l8 -7l13 -6l11 -6l12 -8l10 -5l12 -3l12 -5l12 -3l14 -5h13l8 1l6 8l5 10l4 12v11v10h16v-10v-13l-6 -16l-5 -12l-12 -14l-14 -3h-17l-16 5
l-12 3l-14 5l-12 5l-12 5l-12 8l-11 6l-13 6l-10 9l-10 7l-10 6l-13 5l-11 5h-8h-14h-18l-10 -1l-18 -3l-13 -4l-17 -5l-16 -9l-10 -5l-15 -9l-13 -8l-2 -1l-2 -3l-9 -6l-11 -9l-10 12l11 12l10 6l5 6l9 10l9 9l10 9l9 11l7 9l6 10l8 12l6 10l6 11l5 11l6 13l4 11l3 13l5 12
l1 14v16v15v10v15v11l-1 16l-3 17l-1 12h-8l-14 -1h-13h-12h-11h-14h-18l-13 -2h-18h-20z" />
    <glyph glyph-name="currency" unicode="&#xa4;" horiz-adv-x="521" 
d="M218 464v-11h-11l-9 -2l-23 -12l-12 -10l-7 -7l-10 -15l-10 -16l-5 -18l-5 -17v-11l-3 -10v-17v-10l2 -17l1 -15l4 -7l8 -16l10 -13l8 -7l11 -12l8 -7l9 -5l8 -6l15 -10l17 -7l9 -3l19 -3l19 -1h10l9 1l15 7l16 10l7 7l6 8l6 8l8 9l5 8l5 10l5 10l4 10l3 17l4 17v11l2 10
v18l-3 16l-3 10l-7 17l-8 15l-8 12l-13 11l-13 11l-12 11l-13 7l-15 8l-16 5l-15 1h-18h-14zM75 500l8 14l11 -6l11 -5l12 -10l12 -13l15 -11l13 -12l6 -7l4 3l12 6l-5 9l9 5l15 7h17h17h18l19 -1l18 -7l17 -8l15 -9l10 -9l8 8l6 8l8 9l9 10l8 11l10 10l8 6l8 8l9 8l10 -12
l-9 -8l-8 -8l-8 -6l-8 -8l-8 -11l-9 -10l-8 -9l-6 -8l-7 -9l2 -2l15 -13l10 -14l8 -17l9 -17l3 -12l3 -18v-22l-2 -10v-11l-4 -19l-3 -17l-6 -12l-5 -10l-5 -12l-7 -10l-8 -9v-1l7 -8l12 -12l8 -9l12 -14l7 -9l8 -8l9 -11l6 -8l-12 -10l-6 8l-9 11l-8 8l-7 9l-12 14l-8 7
l-12 14l-5 5l-2 -2l-9 -9l-18 -12l-19 -9l-13 -1h-10l-21 1l-21 3l-11 5l-19 7l-17 10l-8 6l-9 7l-7 6l2 -4l-14 -6l-12 -13l-15 -14l-8 -6l-13 -14l-14 -13l-11 -12l-9 -7l-10 12l7 7l11 12l14 13l15 14l8 6l13 14l16 15l11 4l-5 5l-8 9l-12 15l-8 16l-6 11l-1 17l-2 19v10
v19l3 10v11l5 19l7 20l10 18l12 17l7 8l-6 5l-11 12l-15 11l-12 13l-10 8l-11 5z" />
    <glyph glyph-name="yen" unicode="&#xa5;" horiz-adv-x="540" 
d="M29 423l-6 14l12 6h15h12h11h12h11h13h11h11h11h7l-5 12l-6 15l-4 14l-4 13l-6 15l-5 9l-5 12l-6 16l-6 14l-6 16l-7 15l-6 14l-5 13l-8 18l-3 14l16 4l3 -14l6 -16l5 -13l6 -14l7 -15l6 -16l6 -14l6 -16l5 -12l5 -9l6 -15l6 -15l4 -14l4 -13l6 -14l5 -11l5 -14l6 -12
l6 -14l6 -13l8 -15l5 -15l8 -14l8 -13l7 -13l5 -12l8 -12l6 -10l1 -3h2l-1 7l3 13l4 16l4 19l6 18l5 9l2 9l5 18l8 16l8 17l6 17l8 15l6 16l8 15l8 14l8 16l8 14l6 13l6 15l10 14l6 14l8 13l7 12l7 13l6 9l6 9l8 13l5 9l14 -8l-5 -9l-8 -13l-6 -9l-6 -9l-7 -13l-7 -12
l-8 -13l-6 -14l-10 -14l-6 -13l-6 -15l-8 -14l-8 -16l-8 -14l-8 -13l-6 -16v-1l10 2h11l13 2h16h15h10h11h11h10h11v-16h-11h-10h-11h-11h-10h-15h-14l-13 -2h-11l-11 -2l-10 -1l-5 -14l-8 -19l-8 -14l-3 -16l-4 -11l-5 -9l-4 -16l-4 -19l-4 -16l-3 -11l-1 -4h8l12 2h12
l11 1h10h14h12h10h12h13h11h11v-16h-11h-11h-13h-12h-10h-12h-14h-10l-11 -1h-10l-12 -2h-12l-12 -1v-2v-15v-14l-2 -15v-14l-1 -14v-18l-2 -15v-13v-13v-15v-14v-12v-11v-12l2 -15l1 -12v-9l2 -12l1 -11l-16 -2l-1 11l-2 12v11l-1 10l-2 15v14v11v12v14v15v13v15l2 15v16
l1 14v16l2 15v12v15v2h-2h-13l-14 -2l-17 -1l-18 -2h-20h-24h-15l-12 -2h-13l-11 -3l-4 16l13 3h13l12 2h17h24h20l16 2l17 1l14 2h13l-3 5l-8 12l-5 14l-7 11l-8 13l-8 16l-5 15l-8 13l-6 15l-6 14l-6 12l-4 11h-3h-11h-11h-11h-11h-13h-11h-12h-11h-12h-11z" />
    <glyph glyph-name="brokenbar" unicode="&#xa6;" horiz-adv-x="204" 
d="M94 265l4 -17l-1 -1v-11v-21v-13v-11v-14v-11v-12v-11v-13v-19v-18v-16v-16v-14v-15v-10v-12v-10h-16v10v12v10v15v14v16v16v18v19v13v11v12v11v14v11v13v21v9l-3 18zM98 711l6 -14l-7 -2l1 -10l-1 -16v-15v-10v-11l-2 -19l-2 -11v-9l-1 -19v-11l-2 -10v-13v-17v-14v-14
v-14v-11v-13l2 -13l-16 -2l-2 13v15v11v14v14v14v17v15l2 10v9l1 19v11l2 11l2 17v11v10v15l1 16l1 18z" />
    <glyph glyph-name="section" unicode="&#xa7;" 
d="M165 409l-11 -12l-8 -11l-6 -8l-5 -7l-5 -9l-6 -14l-5 -8l-2 -9l-3 -11l-2 -14l-1 -10l-2 -14v-14v-13l2 -9l3 -12l3 -12l7 -11l6 -9l8 -11l9 -10l8 -5l11 -6l9 -5l10 -6l12 -6l10 -6l11 -5l10 -4l12 -1l18 -5l13 -3l11 -6l11 -4l11 -4l12 -8l10 -4h1l7 4l9 7l8 7l11 7
l7 6l6 9l7 10l7 14l6 12v12v11v13l-2 8l-7 9l-6 13l-5 10l-9 7l-9 9l-8 6l-11 8l-8 6l-9 7l-9 3l-13 8l-11 6l-13 7l-10 6l-11 8l-10 7l-14 8l-10 9l-11 8l-11 8l-8 6l-8 6l-10 11zM353 520l-16 -2l-2 14v11v12l-1 9l-2 12l-6 9l-1 11l-6 8l-6 10l-5 11l-6 8l-7 11l-7 7
l-8 6l-10 9l-7 6l-8 3l-15 3l-9 2h-12l-13 -2l-12 -5l-7 -5l-10 -10l-6 -8l-5 -7l-5 -9l-8 -13l-3 -16l-7 -13l-1 -14l-2 -10l-1 -10v-11v-12v-10v-9l3 -11l1 -9l4 -11l3 -11l4 -14l4 -13l5 -8l7 -10l7 -8l7 -12l8 -9l8 -6l8 -6l11 -8l11 -8l10 -7l12 -8l12 -7l11 -8l8 -6
l13 -7l11 -6l11 -8l11 -3l11 -9l8 -6l11 -8l8 -6l9 -9l11 -9l7 -12l6 -13l7 -9l4 -14v-15v-11v-16l-8 -16l-7 -14l-7 -12l-8 -9l-9 -8l-11 -7l-8 -7l-9 -9h-1l2 -2l9 -9l6 -8l8 -9l9 -11l5 -11l4 -11l4 -12l3 -12v-10l2 -14v-15v-11v-15l-2 -15l-5 -12l-5 -10l-4 -10l-4 -11
l-6 -10l-6 -11l-5 -10l-6 -10l-7 -8l-11 -11l-9 -4l-8 -8l-12 -9l-15 -5l-11 -5l-13 -3l-14 -3h-13h-14l-17 3l-16 7l-13 11l-14 13l-7 9l-8 14l-6 8l-6 17l-4 16l-5 14l-2 14v13v14v13v12h16v-12v-13v-14v-11l2 -12l5 -14l4 -16l4 -13l6 -8l8 -14l5 -7l12 -11l11 -9l12 -5
l15 -3h12h11l12 3l11 3l11 5l13 3l10 7l8 8l9 6l9 7l5 8l6 8l5 10l6 11l6 8l2 11l6 12l5 8l3 10l2 13v13v11v13l-2 14v10l-3 10l-4 12l-2 9l-5 9l-7 9l-8 9l-6 8l-7 7l-7 5l-8 5l-12 4l-10 8l-11 2l-11 6l-11 4l-11 3l-16 5l-14 1l-12 6l-13 5l-10 6l-12 6l-10 6l-9 5l-11 6
l-10 7l-11 12l-10 11l-6 11l-7 13l-5 14l-3 12l-2 11v15v16l2 14l1 10l2 16l3 11l4 11l5 10l6 14l5 9l7 9l6 8l8 11l13 14l1 1l-7 9l-5 10l-6 15l-4 14l-3 11l-4 11l-1 11l-3 11v11v10v12v11l1 12l2 10l1 16l7 15l5 16l8 15l5 9l7 9l6 8l12 12l9 7l16 7l15 2h16l11 -2l15 -3
l12 -5l9 -8l10 -9l8 -6l9 -9l9 -11l6 -10l5 -11l6 -10l6 -10l3 -11l4 -9l4 -16l1 -11v-12v-9z" />
    <glyph glyph-name="dieresis" unicode="&#xa8;" horiz-adv-x="345" 
d="M194 641v3l16 9l2 -1l2 3h17l15 -14l-1 -16l-5 -18l-18 -8l-16 3l-3 4l-2 -1l-17 13l7 22zM41 653v3l16 9l2 -1l2 3h17l15 -14l-1 -16l-5 -18l-18 -8l-16 3l-3 4l-2 -1l-17 13l7 22z" />
    <glyph glyph-name="copyright" unicode="&#xa9;" horiz-adv-x="768" 
d="M357 696h-1h-11h-10h-12h-10l-11 -2h-12l-11 -2l-9 -1l-11 -5l-12 -3l-12 -5l-13 -3l-11 -8l-11 -5l-8 -5l-9 -8l-10 -8l-11 -9l-10 -8l-9 -13l-11 -12l-8 -14l-10 -12l-9 -16l-9 -15l-8 -15l-8 -17l-8 -17l-6 -16l-5 -14l-2 -10l-5 -15l-4 -18l-5 -15l-2 -18l-3 -16
l-1 -11l-3 -18v-18v-11v-17v-10l1 -10l2 -15l1 -17l3 -9l4 -17l6 -16l5 -17l8 -16l6 -10l10 -17l5 -7l12 -15l7 -10l12 -12l6 -8l7 -7l8 -6l12 -13l15 -10l9 -6l15 -8l16 -5l19 -6l17 -5l16 -3l18 -2h17h11h17h11h10h16l20 4l11 1l17 2l11 1l11 2l17 3l9 1l16 7l14 4l17 6
l14 7l15 7l14 8l10 6l12 10l13 11l10 8l8 12l10 16l6 7l8 14l7 16l6 16l4 16l5 17l3 16l5 16l1 16v14v14v16v12l-1 13v12v9l-2 12v10l-3 14l-3 12l-1 10l-4 10l-3 15l-4 11l-4 13l-3 10l-5 12l-6 10l-6 11l-7 9l-6 11l-6 13l-7 8l-6 8l-8 9l-8 10l-6 8l-8 7l-6 10l-7 5l-9 8
l-10 8l-9 7l-8 7l-9 5l-7 6l-11 6l-11 8l-9 5l-10 5l-11 6l-8 5l-10 2l-12 4l-9 2h-11h-10h-11v5zM389 707h2l11 -2l12 -4l12 -4l10 -5l11 -6l10 -5l9 -5l11 -8l11 -6l9 -6l9 -7l8 -7l9 -7l10 -8l9 -8l9 -7l6 -10l8 -7l6 -8l8 -10l8 -9l6 -8l9 -10l6 -13l6 -11l7 -9l6 -11
l6 -12l5 -12l5 -10l4 -15l4 -11l3 -15l4 -10l1 -12l3 -10l3 -16v-10l2 -12v-11v-12l1 -13v-12v-16v-14v-14l-1 -18l-5 -18l-3 -16l-5 -17l-4 -16l-8 -18l-7 -18l-8 -14l-6 -9l-10 -14l-10 -14l-12 -10l-13 -11l-12 -10l-12 -8l-14 -8l-17 -7l-14 -7l-17 -8l-14 -4l-18 -7
l-11 -1l-17 -3l-11 -2l-11 -1l-17 -2l-11 -1l-20 -4h-18h-10h-11h-17h-11h-17l-20 2l-18 3l-17 5l-21 6l-16 7l-17 8l-9 6l-17 12l-12 13l-8 6l-9 9l-6 8l-12 12l-7 10l-12 15l-7 9l-10 17l-6 10l-8 18l-7 17l-6 18l-4 17l-3 11l-1 17l-2 15l-1 12v10v17v11v20l3 18l1 11
l3 16l2 20l5 15l4 18l5 15l2 10l7 16l6 16l8 17l8 17l8 17l9 15l9 16l10 14l10 14l11 12l9 13l12 10l11 9l10 8l9 8l10 7l11 5l11 8l15 5l14 5l10 3l13 5l11 1l11 2h12l11 2h12h12h10h11h14l10 -4h9v-1zM487 450l-16 -4l-3 13v11l-2 14l-1 13l-3 11l-4 10l-1 11l-4 8l-6 16
l-5 8l-6 11l-6 8l-7 11l-6 7l-9 8l-8 7l-11 4l-8 7h-11l-12 2h-10h-9l-13 -2l-13 -8l-9 -5l-9 -8l-12 -10l-7 -10l-8 -10l-10 -11l-8 -13l-9 -13l-8 -15l-5 -15l-5 -16l-6 -17l-5 -13l-3 -16v-10l-2 -14l-1 -16v-17l-2 -15v-15v-14v-14v-15l2 -15l1 -16l2 -15l1 -14l2 -16
l3 -14l2 -12l3 -12l4 -10l3 -13l7 -12l8 -10l8 -6l10 -9l10 -6l7 -6l12 -3l12 -4l16 -6l11 -1l11 -2h13h12l9 2l11 6l10 4l6 8l10 5l10 11l7 10l7 12l5 12l4 8l1 10l5 12l2 10l3 11l3 13l1 14l4 14l1 11l2 11l16 -2l-2 -11l-1 -11l-4 -14l-1 -14l-3 -15l-3 -11l-2 -10
l-5 -12l-1 -10l-6 -10l-5 -12l-7 -14l-9 -12l-12 -13l-10 -5l-6 -8l-14 -6l-11 -6l-13 -4h-14h-15l-11 2l-13 1l-18 6l-10 4l-16 5l-9 8l-10 6l-10 9l-8 6l-12 12l-7 16l-5 13l-4 12l-3 12l-2 14l-3 14l-2 16l-1 14l-2 15l-1 16l-2 15v17v14v14v17l2 15v15l1 18l2 14v10
l3 18l5 15l6 17l5 16l7 15l8 17l9 13l10 15l10 11l8 10l7 10l14 12l9 8l11 7l15 8l17 4h11h12l12 -2l15 -2l10 -7l11 -4l10 -9l11 -8l6 -9l9 -11l6 -10l6 -11l5 -10l6 -16l6 -10l1 -11l4 -10l3 -13l1 -13l2 -14v-11z" />
    <glyph glyph-name="ordfeminine" unicode="&#xaa;" horiz-adv-x="428" 
d="M232 587l-11 -3l-11 -6l-13 -3l-10 -3l-15 -5l-13 -3l-11 -3l-11 -3l-11 -5l-10 -5l-10 -5l-7 -8l-8 -7l-5 -8l-6 -8l-5 -8l-2 -9v-12v-9l4 -7l5 -10l8 -8l9 -7l8 -5l13 -4l12 -4h11h12l12 3l8 5l13 6l10 6l10 8l5 8l6 11l5 7v2v14v14v12l2 17l3 15l3 13v13v4zM81 614
l-16 4l3 12v12l6 11l4 11l5 11l7 9l7 9l11 11l13 5l10 6l12 4l12 2l11 2l12 1h11l14 -1l11 -9l9 -9l7 -14l5 -11l5 -13l3 -10l4 -11v-14l1 -11v-7l2 -1l-2 -4v-1v-12v-13v-15l-3 -15l-3 -13l-2 -15v-12v-14v-14v-13v-11v-11l4 -11l5 -8l5 -7l7 -7l7 -5l10 -5l9 -3h8h11h11
h11v-16h-11h-11h-11h-12l-11 5l-12 5l-9 7l-9 9l-7 9l-5 10l-6 15v5l-4 -6l-12 -10l-12 -8l-13 -6l-10 -5l-16 -5h-14h-13l-16 4l-13 6l-10 5l-11 9l-10 10l-7 12l-6 11v13v14l4 13l5 10l6 10l7 8l8 9l9 8l12 7l12 5l11 5l13 5l11 3l13 3l15 5l10 3l11 3l11 4l9 3l6 5l2 5
v10l-1 11v10l-4 9l-3 12l-3 11l-5 11l-5 10l-7 7l-7 7l-8 -1h-11l-10 -1l-11 -2l-10 -2l-10 -2l-8 -6l-13 -5l-7 -7l-7 -9l-5 -7l-5 -9l-4 -11l-4 -9v-10z" />
    <glyph glyph-name="guillemotleft" unicode="&#xab;" horiz-adv-x="539" 
d="M431 381l8 -14l-12 -8l-14 -5l-12 -8l-12 -10l-12 -7l-10 -6l-9 -8l-10 -8l-10 -8l-8 -9l-10 -6l-5 -7l-9 -8l-3 -1l3 -3l8 -7l11 -8l12 -9l9 -10l10 -9l9 -9l11 -10l8 -9l8 -8l8 -8l9 -7l8 -7l8 -6l-10 -12l-8 6l-8 7l-9 7l-8 8l-10 8l-8 9l-11 10l-9 9l-10 9l-9 10
l-10 9l-11 8l-10 9l-6 7l2 15l6 4l7 6l7 9l10 6l6 9l12 8l10 8l9 8l12 8l10 7l12 8l14 10l14 5zM229 389l6 -14l-15 -7l-10 -3l-11 -7l-14 -10l-13 -8l-12 -7l-12 -7l-12 -10l-13 -9l-9 -8l-9 -6l-11 -9l-7 -7l-4 -2l7 -3l11 -8l7 -8l9 -7l8 -8l11 -8l9 -8l11 -11l11 -9
l11 -8l9 -8l13 -8l8 -7l9 -7l9 -7l8 -7l-10 -12l-8 7l-9 7l-9 7l-8 7l-13 8l-9 8l-11 8l-11 9l-11 11l-9 8l-11 8l-8 8l-9 7l-7 8l-11 8l-13 13l8 14l9 9l11 9l9 6l9 8l13 9l12 10l14 9l12 7l13 8l14 10l13 7l10 3z" />
    <glyph glyph-name="logicalnot" unicode="&#xac;" horiz-adv-x="556" 
d="M54 303l-8 14l11 7h12l14 2h13h18h18h19h11h17h14h10h11h11h10h11h10h11h11h11h11h21h11h11h11h11h11h20h18h14l15 -1l10 -12v-14v-17v-14v-16l1 -16l2 -11v-12v-11v-11v-11v-11v-17v-19v-15v-11v-10h-16v10v11v15v19v17v11v11v11v11v10l-2 11l-1 18v16v14v17v8l-2 4
l-7 -1h-14h-18h-20h-11h-11h-11h-11h-11h-21h-11h-11h-11h-11h-10h-11h-10h-11h-11h-10h-14h-17h-11h-19h-18h-18h-11l-14 -2h-10z" />
    <glyph glyph-name="registered" unicode="&#xae;" horiz-adv-x="768" 
d="M357 696h-1h-11h-10h-12h-10l-11 -2h-12l-11 -2l-9 -1l-11 -5l-12 -3l-12 -5l-13 -3l-11 -8l-11 -5l-8 -5l-9 -8l-10 -8l-11 -9l-10 -8l-9 -13l-11 -12l-8 -14l-10 -12l-9 -16l-9 -15l-8 -15l-8 -17l-8 -17l-6 -16l-5 -14l-2 -10l-5 -15l-4 -18l-5 -15l-2 -18l-3 -16
l-1 -11l-3 -18v-18v-11v-17v-10l1 -10l2 -15l1 -17l3 -9l4 -17l6 -16l5 -17l8 -16l6 -10l10 -17l5 -7l12 -15l7 -10l12 -12l6 -8l7 -7l8 -6l12 -13l15 -10l9 -6l15 -8l16 -5l19 -6l17 -5l16 -3l18 -2h17h11h17h11h10h16l20 4l11 1l17 2l11 1l11 2l17 3l9 1l16 7l14 4l17 6
l14 7l15 7l14 8l10 6l12 10l13 11l10 8l8 12l10 16l6 7l8 14l7 16l6 16l4 16l5 17l3 16l5 16l1 16v14v14v16v12l-1 13v12v9l-2 12v10l-3 14l-3 12l-1 10l-4 10l-3 15l-4 11l-4 13l-3 10l-5 12l-6 10l-6 11l-7 9l-6 11l-6 13l-7 8l-6 8l-8 9l-8 10l-6 8l-8 7l-6 10l-7 5l-9 8
l-10 8l-9 7l-8 7l-9 5l-7 6l-11 6l-11 8l-9 5l-10 5l-11 6l-8 5l-10 2l-12 4l-9 2h-11h-10h-11v5zM389 707h2l11 -2l12 -4l12 -4l10 -5l11 -6l10 -5l9 -5l11 -8l11 -6l9 -6l9 -7l8 -7l9 -7l10 -8l9 -8l9 -7l6 -10l8 -7l6 -8l8 -10l8 -9l6 -8l9 -10l6 -13l6 -11l7 -9l6 -11
l6 -12l5 -12l5 -10l4 -15l4 -11l3 -15l4 -10l1 -12l3 -10l3 -16v-10l2 -12v-11v-12l1 -13v-12v-16v-14v-14l-1 -18l-5 -18l-3 -16l-5 -17l-4 -16l-8 -18l-7 -18l-8 -14l-6 -9l-10 -14l-10 -14l-12 -10l-13 -11l-12 -10l-12 -8l-14 -8l-17 -7l-14 -7l-17 -8l-14 -4l-18 -7
l-11 -1l-17 -3l-11 -2l-11 -1l-17 -2l-11 -1l-20 -4h-18h-10h-11h-17h-11h-17l-20 2l-18 3l-17 5l-21 6l-16 7l-17 8l-9 6l-17 12l-12 13l-8 6l-9 9l-6 8l-12 12l-7 10l-12 15l-7 9l-10 17l-6 10l-8 18l-7 17l-6 18l-4 17l-3 11l-1 17l-2 15l-1 12v10v17v11v20l3 18l1 11
l3 16l2 20l5 15l4 18l5 15l2 10l7 16l6 16l8 17l8 17l8 17l9 15l9 16l10 14l10 14l11 12l9 13l12 10l11 9l10 8l9 8l10 7l11 5l11 8l15 5l14 5l10 3l13 5l11 1l11 2h12l11 2h12h12h10h11h14l10 -4h9v-1zM266 590l14 -8l-4 -8v-17l-3 -18v-11l-2 -11v-10v-11v-14v-11v-9l2 6
l8 13l5 11l6 11l9 12l8 10l11 12l7 10l11 8l11 8l12 9l12 6l12 4l16 5h11h11l12 -4l11 -7l7 -9l-12 -10l-5 7l-7 5l-8 2h-9h-9l-14 -5l-10 -2l-10 -6l-10 -7l-11 -8l-9 -8l-7 -8l-11 -12l-8 -10l-7 -10l-6 -11l-5 -11l-8 -11l-3 -14l-5 -12l-2 -11l-3 -17h-3v-6v-14v-14v-14
v-14v-16v-15v-14v-15v-10l-1 -16v-13v-12v-13v-14v-11v-11v-12v-11v-17v-11v-14v-11v-11h-16v11v11v14v11v17v11v12v11v11v14v13v12v13l1 16v10v15v14v15v16v14v14v14v14v14v13v14v12v16v11v14v11v12l2 11v11l3 18v19z" />
    <glyph glyph-name="macron" unicode="&#xaf;" horiz-adv-x="384" 
d="M3 632v16h11h11h12l14 1h14h11h11h14l11 -1h13h12h11h17h14h14h14h16h14h11h12h13h11v-16h-11h-13h-12h-11h-14h-16h-14h-14h-14h-17h-11h-12h-13l-11 1h-14h-11h-11h-14l-14 -1h-12h-11h-11z" />
    <glyph glyph-name="degree" unicode="&#xb0;" horiz-adv-x="403" 
d="M165 651l-6 -1l-9 -2l-13 -10l-14 -11l-10 -11l-10 -13l-7 -14l-8 -13l-4 -15l-3 -13v-16l-2 -14v-12l2 -13l3 -10l4 -11l7 -10l7 -8l7 -8l10 -7l11 -5l10 -5l11 -2l15 -3l11 -3h10h14h11l9 5l10 5l12 7l11 11l10 8l7 11l6 7l2 11l5 11l3 12v9v12v13v11l-2 12l-3 10
l-4 10l-6 10l-5 7l-6 8l-7 7l-7 7l-11 4l-9 7l-10 4l-11 4l-9 3h-11l-8 2v-1l-5 2h-8v1zM176 666h1l11 -3h11l13 -3l11 -6l12 -4l9 -7l11 -4l11 -9l7 -9l6 -8l7 -9l6 -10l6 -12l3 -12l2 -14v-13v-13v-12v-11l-3 -16l-5 -11l-4 -11l-6 -11l-9 -11l-12 -10l-11 -11l-14 -9
l-10 -5l-13 -7h-15h-14h-12l-13 3l-13 3l-15 2l-12 7l-11 5l-12 9l-9 10l-7 8l-9 12l-6 13l-3 12l-2 15v16l2 14v16l3 15l6 17l8 15l7 14l12 15l12 13l14 11l15 12l13 4l16 2z" />
    <glyph glyph-name="plusminus" unicode="&#xb1;" horiz-adv-x="618" 
d="M21 297l-2 16l11 2h13h16h19h11h18h11h10h11h11h10h11h11h13l20 -2h10h10h11h14v11v14l2 16v14v14v15v14v11v11v10v18v20l6 11l14 -8l-4 -7v-16v-18v-10v-11v-11v-14v-15v-14v-14l-2 -16v-14v-11h9l18 -1h12l11 -2l18 -2l11 -1l11 -2h9l11 -1l18 -2h10l18 -1l14 -2l14 -1
h13h11h12l12 -2l11 -2l-4 -16l-9 2l-12 2h-10h-11h-13l-16 1l-14 2l-16 1h-10l-20 2l-9 1h-11l-11 2l-11 1l-18 2l-11 2h-10l-18 1h-9v-4v-16v-16v-15v-14v-13l-1 -14v-14v-11v-12v-18v-12v-14v-11h-16v11v14v12v18v12v11v14l1 14v13v14v15v16v16v4h-14h-11h-10h-10l-20 2
h-13h-11h-11h-10h-11h-11h-10h-11h-18h-11h-19h-16h-11zM22 17l-4 16l16 4h14h14h19h17h11l20 1h21h20h22h11h11h11h12h13h10h11h14h11h11h11h13h11h11h11h11h10h19h11h16l17 2h16h12h13h11h10v-16h-10h-11h-13h-12h-16l-17 -2h-16h-11h-19h-10h-11h-11h-11h-11h-13h-11h-11
h-11h-14h-11h-10h-13h-12h-11h-11h-11h-22h-20h-21l-20 -1h-11h-17h-19h-14h-12z" />
    <glyph glyph-name="uni00B2" unicode="&#xb2;" horiz-adv-x="351" 
d="M65 536l-16 -6l-4 13v13l3 14l3 12l3 10l3 15l7 13l7 13l8 12l9 8l8 8l10 7l13 5l12 3l11 1h12h11h14l13 -4l12 -8l7 -15l6 -11l3 -13l3 -15l2 -14v-15v-17l-3 -15l-8 -17l-4 -12l-8 -14l-6 -12l-9 -12l-10 -13l-10 -11l-12 -8l-10 -10l-12 -7l-10 -7l-9 -8l-8 -6l-8 -8
l-8 -8l-9 -9l-8 -10l-6 -8l-4 -10l-5 -12l-5 -8l-2 -12l-4 -11l-2 -10l-2 -12l-2 -4h8h13h14h14h14h14h16h14h14l14 -1h13h14h12h10h16l11 -2l-4 -16l-9 2h-14h-10h-12h-14h-13l-14 1h-14h-14h-16h-14h-14h-14h-14h-15l-18 6l-2 16l2 12l2 12l4 11l4 14l5 10l5 10l4 12l8 10
l8 10l9 9l8 10l10 8l8 6l9 8l12 9l10 5l10 10l12 8l8 9l10 13l7 10l6 12l8 12l4 12l6 15l3 13v15v13l-2 14l-3 13l-3 11l-4 11l-5 11l-6 4l-9 2h-12h-11h-12l-9 -1l-10 -3l-9 -3l-8 -5l-8 -8l-7 -6l-6 -10l-7 -13l-5 -11l-3 -13l-3 -10l-3 -12l-3 -12v-9z" />
    <glyph glyph-name="uni00B3" unicode="&#xb3;" horiz-adv-x="367" 
d="M58 548l-14 -8l-6 12v18l4 12l4 12l7 15l5 10l7 10l10 10l9 10l13 10l12 6l14 6l12 3l12 2h12h13l15 -6l13 -7l10 -11l8 -9l7 -9l6 -15l5 -15l4 -17v-15v-16l-7 -13l-6 -12l-11 -12l-11 -10l-10 -5l-9 -9l-15 -6l-11 -5l-7 -3l11 -1l16 -4l15 -6l12 -6l15 -9l8 -8l10 -9
l7 -9l8 -14l5 -10l5 -15l2 -12v-12v-18l-7 -17l-11 -15l-9 -10l-10 -12l-15 -10l-13 -11l-12 -6l-17 -7l-14 -3l-15 -5l-19 -2h-15h-14h-17l-13 6l-11 7l-9 8l-9 7l-5 12l-6 13l-2 12l-1 14v11v11l3 11l3 12l3 10l16 -4l-3 -10l-3 -12l-3 -9v-9v-11l1 -12l2 -10l4 -11l3 -8
l7 -5l9 -8l9 -5l9 -4h13h14h15l15 2l15 5l14 3l15 5l10 6l11 9l15 10l8 10l9 10l9 13l5 13v14v10l-2 10l-3 13l-5 8l-8 14l-5 7l-8 7l-8 8l-13 7l-10 6l-13 4l-16 4l-13 2h-13h-14l-14 3v16l13 3l11 3l10 3l14 4l11 5l13 6l7 7l10 5l9 10l9 10l6 10l5 9v12v13l-4 15l-5 13
l-4 13l-5 7l-8 9l-8 9l-9 5l-11 4h-11h-10l-10 -2l-12 -3l-12 -4l-10 -6l-9 -8l-9 -10l-10 -8l-5 -8l-5 -10l-7 -13l-2 -10l-4 -10v-12z" />
    <glyph glyph-name="acute" unicode="&#xb4;" horiz-adv-x="294" 
d="M80 559l-14 8l10 18l14 12l10 11l12 12l11 12l11 13l10 12l7 11l8 9l10 10l6 8l8 9l12 -10l-8 -9l-6 -8l-10 -10l-8 -9l-7 -11l-10 -12l-11 -13l-11 -12l-12 -14l-12 -11l-12 -10z" />
    <glyph glyph-name="uni00B5" unicode="&#xb5;" horiz-adv-x="538" 
d="M320 -4h-16v11v12l3 14l2 14l1 12l2 13l3 14v12l2 13l1 11l3 16l-4 -6l-4 -10l-5 -11l-6 -8l-5 -10l-6 -9l-11 -17l-12 -17l-6 -8l-12 -12l-13 -11l-12 -8l-12 -5l-12 -6l-13 -3h-13h-14l-14 2l-14 1l-11 6l-10 5l-9 9l-10 18l-3 8l-2 -11l-2 -11l-6 -18l-3 -19l-3 -11
l-2 -11l-6 -19l-3 -12l-3 -11l-5 -22l-6 -23l-5 -10l-4 -20l-5 -20l-2 -13l-3 -12l-16 4l3 12l2 13l5 20l4 20l5 12l6 21l5 22l3 11l3 12l6 19l2 11l3 11l3 19l6 18l2 9l3 20l5 17l3 17l3 18l2 17l3 19l3 17l1 20l5 21l3 13l5 18l1 11l4 20l1 11l3 21l3 10l5 18l2 11l3 10
l3 19l3 18l3 11l3 15l2 12l6 16l5 14l3 11l5 11l3 10l4 13l16 -4l-4 -13l-3 -12l-5 -11l-3 -11l-7 -14l-4 -14l-2 -10l-3 -17l-3 -11l-3 -16l-3 -21l-3 -10l-2 -11l-5 -18l-3 -10l-3 -19l-1 -11l-4 -20l-1 -11l-5 -20l-3 -13l-5 -19l-1 -20l-3 -17l-3 -19l-2 -17l-3 -18
l-2 -12l3 1l1 -11l3 -13l3 -10l8 -14l7 -5l8 -5l7 -4l12 -1l14 -2h12h11l9 3l12 4l10 5l10 6l13 11l10 10l6 8l10 15l11 17l6 9l5 10l6 8l5 9l4 12l7 10l4 11l5 11l6 10l5 12l4 9l1 3l3 11h1l5 8l3 13l6 12l10 21l5 19l6 19l5 18l5 18l6 17l3 15l5 16l3 16l3 12l3 13l3 12
l3 12l2 15l3 12l6 11l14 -6l-4 -11l-3 -10l-2 -13l-3 -14l-3 -12l-3 -13l-3 -12l-3 -16l-5 -16l-3 -15l-6 -17l-5 -18l-5 -18l-6 -19l-7 -21l-10 -23l-6 -10l-3 -13l-5 -9l-4 -13l-1 -6l-3 -10l-3 -11l-2 -11l-1 -14l-2 -11l-3 -14l-1 -11l-2 -13v-12l-3 -14l-2 -13l-1 -12
l-2 -14l-3 -14v-10v-11z" />
    <glyph glyph-name="paragraph" unicode="&#xb6;" horiz-adv-x="547" 
d="M445 696l2 -16l-15 -2h-15h-11h-14l-13 -1h-12h-6v-8v-11v-12v-16v-12v-11v-13v-14l1 -14v-12v-14v-15v-15v-14v-16v-17v-17v-17v-16v-17v-17v-10l-1 -19v-10l-2 -19v-13v-11l-1 -12v-10v-12v-11v-11v-20l-2 -22v-11v-11v-11v-11v-11v-12v-13v-12v-13v-12v-13v-12v-13
v-10l2 -14v-12v-12v-11v-14v-11v-14v-13v-14v-14v-15l1 -13v-12l2 -14l4 -14l-16 -4l-4 14l-2 18v12l-1 13v15v14v14v13v14v11v14v11v12v10l-2 14v12v13v12v13v12v13v12v13v12v11v11v11v11v11l2 22v20v11v11v12v10l1 12v11v13l2 19v10l1 19v10v17v17v16v17v17v17v16v14v15
v15v14v12l-1 14v14v13v11v12v16v12v11v8h-6h-11h-11h-13h-11h-14h-14h-15h-2v-6v-2v-9v-11v-11v-14v-11v-12l2 -14v-15l1 -15v-16v-17v-17v-17v-18v-18v-10v-15v-16l-1 -17v-14v-14v-11l-2 -15v-9v-17v-11v-17l-1 -11v-11v-20v-11l-2 -11v-9v-11l-2 -12v-10v-11v-11v-13v-12
v-11v-13v-14v-12v-14v-16v-12v-14v-14v-15v-15v-14v-16v-15v-15l2 -17v-17v-30l2 -21v-9l3 -13l-16 -4l-3 15v11l-2 21v30v17l-2 17v15v15v16v14v15v15v14v14v12v16v14v12v14v13v11v12v13v11v11v12l2 12v9v11l2 11v9v20v6l-9 2l-12 1l-12 5l-12 3l-14 7l-9 5l-10 5l-10 7
l-9 8l-9 8l-10 9l-9 12l-8 9l-9 14l-6 11l-6 12l-6 11l-7 15l-6 14l-6 15l-3 17l-1 17v17v14v15l1 17l2 16l3 18l3 14l7 17l7 13l6 14l6 10l9 13l9 9l12 9l12 4l12 6l11 2l15 4l12 2h15h13h11h15h5h6h10h15h14h14h11h13h11h11h15h13h12l13 1h14h11h13z" />
    <glyph glyph-name="periodcentered" unicode="&#xb7;" horiz-adv-x="229" 
d="M125 347q5 -7 4 -14q-1 -8 -9 -12q-1 -1 -1 -2q-7 -6 -17 -3q-3 0 -6 2q-3 1 -6 3q-2 3 -3 5q-3 3 -5 8q-3 10 0 16q2 9 10 11h2q2 1 3 2q13 4 21 -1q7 -5 7 -15z" />
    <glyph glyph-name="cedilla" unicode="&#xb8;" horiz-adv-x="310" 
d="M166 -2l-1 -12h-5l-3 -6l-9 -11l-8 -11l-9 -9l-7 -11l-8 -10l-5 -8l-7 -6l3 -2l10 1h15l13 -3l13 -3l13 -6l13 -7l9 -10l9 -9l4 -11l5 -13v-18l-9 -11l-9 -8l-7 -9l-12 -5l-8 -5l-12 -6l-11 -6l-13 -3l-14 -3h-12h-11h-14l-12 6l-12 8l-7 8l-7 6l10 12l9 -6l5 -8l10 -6
l8 -4h10h11h10l12 3l11 3l9 4l12 6l10 5l8 3l5 7l9 8l5 7v8l-5 11l-2 9l-7 7l-7 8l-9 5l-11 4l-13 3l-11 3h-13l-16 1l-13 14l9 18l7 8l6 10l9 11l9 9l8 11l7 11l7 12z" />
    <glyph glyph-name="uni00B9" unicode="&#xb9;" horiz-adv-x="278" 
d="M46 553l-8 14l11 6l11 1l11 5l14 8l13 9l12 10l10 8l8 9l8 9l8 9l12 11l16 -10l4 -17l2 -14v-18v-11v-11v-10v-11v-10v-13v-22v-12v-13v-11v-12v-15l-2 -11v-12v-15l-1 -10v-14v-13l-2 -13v-11v-11v-11v-16v-14v-11h-16v11v14v16v11v11v13l2 13v11v14l1 10v15v14l2 11v13
v12v11v13v12v22v13v10v11v10v11v11v16l-2 14l-2 11v2l-2 -5l-8 -9l-8 -9l-8 -11l-12 -8l-12 -10l-15 -11l-14 -8l-15 -7l-11 -1z" />
    <glyph glyph-name="ordmasculine" unicode="&#xba;" horiz-adv-x="400" 
d="M163 707l-7 -2l-11 -2l-10 -6l-13 -7l-10 -8l-11 -8l-8 -9l-11 -10l-9 -8l-6 -11l-6 -10l-6 -11l-5 -10l-5 -12l-2 -10l-4 -14l-2 -12v-11v-13v-10l2 -11l3 -11l3 -12l5 -11l7 -9l6 -11l7 -10l8 -7l8 -6l8 -6l9 -4l10 -5l9 -2l12 -3l10 -3h12h11h12h12l10 4l9 2l8 6l9 6
l7 8l10 9l7 7l6 10l7 12l5 10l5 13l3 11l4 10l3 10v10v10v13v11l-2 10l-3 11l-3 11l-3 10l-4 11l-5 9l-6 9l-6 8l-5 8l-6 7l-12 9l-8 7l-9 6l-9 7l-9 2l-12 3l-6 2l-2 -3l-9 5zM168 722l5 -1l13 -3l12 -3l11 -4l13 -7l9 -8l8 -7l12 -9l8 -9l7 -8l6 -10l6 -9l5 -11l6 -11
l3 -12l3 -11l3 -11l2 -12v-13v-13v-10v-12l-3 -12l-4 -12l-5 -11l-5 -13l-5 -12l-7 -12l-8 -12l-7 -9l-10 -9l-9 -8l-9 -6l-10 -8l-13 -4l-12 -4h-14h-12h-11h-14l-12 3l-12 3l-11 4l-10 5l-11 4l-10 8l-8 6l-10 9l-9 12l-6 11l-7 9l-7 13l-3 14l-3 11l-2 13v12v13v13l2 14
l4 14l2 12l7 12l5 12l6 11l6 10l8 13l9 10l11 10l10 9l11 8l12 10l13 7l12 6l11 3v4h11l4 -1h1z" />
    <glyph glyph-name="guillemotright" unicode="&#xbb;" horiz-adv-x="538" 
d="M70 381l6 14l12 -5l12 -6l14 -10l12 -9l15 -9l9 -7l9 -7l14 -11l13 -10l14 -10l8 -6l7 -8l9 -6l8 -12l4 -17l-14 -9l-10 -9l-12 -9l-8 -6l-8 -6l-12 -10l-14 -11l-11 -11l-8 -7l-14 -8l-8 -7l-11 -10l-12 -11l-10 -8l-9 -8l-10 12l9 8l10 8l12 11l11 10l8 7l14 10l8 5
l11 11l14 11l12 10l8 6l8 6l12 9l12 11l8 1l-4 3l-6 8l-7 6l-7 8l-8 6l-14 10l-13 10l-14 11l-9 7l-7 5l-17 9l-12 11l-12 8l-10 6zM260 380l4 16l15 -3l14 -7l14 -10l18 -11l19 -13l15 -13l8 -6l8 -6l12 -10l10 -9l11 -9l11 -6l9 -8l11 -10l-4 -19l-14 -8l-13 -11l-14 -9
l-9 -6l-16 -8l-9 -6l-15 -7l-8 -8l-15 -9l-8 -7l-8 -6l-16 -11l-9 -11l-10 -9l-8 -7l-7 -8l-12 10l7 8l8 9l10 9l11 11l16 11l8 6l8 7l15 9l8 8l17 9l9 6l16 8l7 6l14 9l15 11l10 4v3l-5 4l-9 6l-11 8l-11 9l-10 9l-12 10l-8 6l-8 6l-15 13l-17 11l-18 11l-14 10l-12 5z" />
    <glyph glyph-name="onequarter" unicode="&#xbc;" horiz-adv-x="851" 
d="M651 133v10v12v13v15v11v13v15v14v13v11v15v13l1 16v12v13v21v12l-1 -1l-11 -16l-8 -9l-11 -12l-9 -11l-10 -13l-9 -11l-11 -12l-9 -11l-10 -11l-6 -10l-9 -14l-11 -10l-10 -10l-5 -8l-9 -13l-6 -12l-9 -9l-8 -11l-7 -8l-5 -10l-11 -14l7 1l18 2h20l11 1h14h11h16h14h11
h15h11h12l14 2zM215 -31l-16 4l3 12l6 15l6 9l5 10l6 10l8 15l8 12l9 14l8 16l11 15l9 14l10 14l9 16l13 19l11 17l11 17l12 17l12 19l14 15l10 18l11 19l13 18l12 16l9 19l14 16l11 17l11 18l13 17l12 17l14 16l8 15l15 18l12 17l11 16l11 19l11 20l15 17l8 14l11 15l11 15
l8 13l6 9l6 9l6 11l5 10l9 10l12 -10l-7 -8l-5 -10l-6 -11l-6 -9l-6 -9l-8 -13l-11 -17l-11 -15l-10 -14l-13 -17l-11 -18l-11 -19l-11 -18l-14 -17l-13 -18l-10 -15l-14 -16l-10 -17l-13 -17l-11 -16l-13 -19l-12 -14l-9 -19l-14 -18l-11 -16l-11 -19l-12 -20l-14 -15
l-10 -17l-12 -17l-11 -17l-11 -17l-13 -19l-9 -16l-10 -14l-9 -16l-11 -13l-8 -16l-9 -14l-8 -12l-8 -15l-6 -10l-5 -10l-6 -9l-4 -11zM656 405l16 -2l-2 -15l3 -2l-3 -4v-9l-2 -11v-12v-21v-13v-12l-1 -16v-13v-15v-11v-13v-14v-15v-13v-11v-15v-13v-12v-8l17 2h17l16 1h11
h11h12v-16h-12h-11h-11l-16 -1h-17l-17 -2v-1v-11v-11v-11v-10v-17v-17v-11v-11v-11h-16v11v11v11v17v17v10v11v11v10l-8 -1l-14 -2h-14h-11h-15h-11h-14h-16h-11h-14l-11 -1h-20l-16 -2l-12 -1h-10l-7 14l6 10l11 14l5 10l9 10l8 11l7 9l6 10l9 13l7 10l10 12l11 8l7 12
l8 12l10 11l9 11l11 12l9 11l10 13l9 11l11 12l8 9l11 16l8 8l6 8l1 1zM65 557v16h11l9 5l11 8l11 10l11 9l10 11l11 12l11 10l9 10l6 9l7 8l5 11l15 -2l3 -15v-19v-11v-14v-15v-14v-15v-16v-17v-17l-2 -17v-18l-1 -20v-17v-19v-17v-17v-16v-17v-16v-14v-12v-13v-11v-15v-13
v-11h-16v11v13v15v11v13v12v14v16v17v16v17v17v19v17l1 20v18l2 17v17v17v16v15v14v15v14v11v9l-2 -2l-6 -9l-9 -12l-11 -10l-11 -12l-12 -11l-11 -9l-11 -10l-13 -10l-13 -7h-15z" />
    <glyph glyph-name="onehalf" unicode="&#xbd;" horiz-adv-x="812" 
d="M157 -25l-12 10l11 13l5 9l14 17l17 24l9 12l9 13l8 11l7 13l8 13l10 13l7 13l8 14l8 12l9 14l8 13l10 14l9 16l8 12l8 14l7 13l8 14l10 14l9 14l8 12l9 14l9 13l5 12l10 16l7 14l8 14l8 14l6 14l10 16l6 12l8 13l7 11l5 14l8 12l8 13l6 14l8 14l6 11l6 11l7 11l7 11
l7 12l7 14l7 10l6 11l5 8l7 18l8 12l9 6l10 -12l-7 -6l-6 -8l-7 -16l-5 -10l-6 -11l-7 -10l-7 -14l-7 -12l-7 -11l-7 -11l-6 -11l-6 -11l-8 -14l-6 -14l-8 -13l-8 -12l-5 -12l-7 -13l-8 -13l-6 -12l-10 -16l-6 -14l-8 -14l-8 -14l-7 -14l-10 -16l-5 -12l-9 -13l-9 -14
l-8 -12l-9 -14l-10 -14l-8 -14l-7 -13l-8 -14l-8 -12l-9 -16l-10 -14l-8 -13l-9 -14l-8 -12l-8 -14l-7 -13l-10 -15l-8 -11l-7 -13l-8 -13l-11 -13l-9 -12l-17 -24l-12 -17l-7 -9zM9 567l6 14l12 -5h8h10h14l17 3l13 3l9 6l9 8l8 6l11 9l6 9l6 8l6 11l5 9v11l2 13h16l1 -17
v-19v-11v-15v-10v-15v-16v-15v-14v-16v-16v-14v-13l2 -12v-14l2 -11v-14l1 -11v-23l2 -18l1 -17l2 -16l1 -15v-15v-10l2 -10v-13v-10h-16v10v11l-2 10v12v15l-1 13l-2 16l-1 17l-2 20v23l-1 11v12l-2 11v14l-2 12v15v14v16v16v14v15v16v15v10v10l-6 -10l-8 -11l-13 -9l-8 -6
l-9 -8l-13 -8l-15 -5l-19 -3h-16h-10h-12zM514 254l-3 13l1 14l2 15l3 12l4 12l7 10l7 11l8 11l8 9l7 7l10 7l9 2l14 3l12 3l12 2h10l10 -2l12 -2l7 -5l5 -7l7 -8l2 -12l5 -11l3 -11l3 -15l2 -15v-13l-2 -11l-5 -12l-3 -14l-7 -9l-6 -8l-9 -8l-11 -9l-9 -8l-12 -8l-15 -8
l-13 -10l-14 -7l-13 -11l-13 -8l-9 -9l-13 -9l-12 -14l-8 -10l-8 -15l-6 -14l-3 -11l-5 -14l-1 -13v-12v-10l-2 -10l2 -6l14 2v2l2 10v12v12l1 9l5 14l3 11l4 12l8 13l6 8l10 12l13 9l9 9l13 8l11 9l14 7l13 10l15 8l14 10l9 8l11 9l11 8l8 10l7 13l5 14l5 14l2 13v15l-2 17
l-3 17l-3 13l-5 11l-4 14l-9 10l-7 9l-11 7l-14 4l-12 2h-14l-14 -2l-12 -3l-14 -3l-11 -4l-14 -9l-9 -9l-8 -9l-8 -11l-9 -11l-7 -12l-6 -16l-3 -14l-2 -15l-1 -18l3 -15zM498 8h2h14h14l13 -1l13 -3l14 -2h11h11l14 -1h13h11h12h13h14h12h11h11h11v-16h-11h-11h-11h-12
h-14h-13h-12h-11h-13l-14 1h-11h-13l-14 2l-13 3l-11 1h-14h-14l-4 2z" />
    <glyph glyph-name="threequarters" unicode="&#xbe;" horiz-adv-x="879" 
d="M670 122l1 17l2 12v10v14v13v11v14v12v11v14v13v12v13v11v12v11v30v13l-2 -2l-8 -10l-8 -9l-10 -7l-7 -9l-11 -12l-9 -8l-9 -11l-11 -12l-10 -10l-9 -12l-11 -9l-8 -10l-9 -13l-10 -10l-12 -11l-6 -8l-11 -11l-6 -10l-11 -12l-10 -9l-6 -8l-8 -11l-11 -8l-7 -10l-5 -5
l5 -2h11h20h11h12h14h14h13h12h15h10h11h11h10l10 2h12h10l18 3zM89 538l-16 -4l-5 20v16l2 14l4 15l8 16l7 14l9 9l10 11l10 9l9 7l15 7l13 5l12 2h12h14h11l16 -2l15 -7l10 -7l6 -9l9 -8l7 -10l5 -14l6 -13l3 -15l2 -17v-14v-15l-5 -16l-8 -10l-10 -10l-14 -4l-11 -5
l-14 -6l-16 -5l-13 -4l-4 -1h10l14 -5l10 -2l16 -8l17 -8l14 -12l15 -15l12 -13l9 -17l6 -15l4 -16l2 -15v-15v-15l-8 -14l-10 -10l-10 -9l-11 -8l-14 -11l-15 -7l-15 -7l-14 -6l-15 -6l-16 -3l-14 -3l-17 -3h-15h-15l-14 3l-14 7l-11 10l-11 14l-7 12l-7 11l-7 16l-3 15
l-2 14l-1 12v14v13l8 10l12 -10l-4 -6v-7v-14l1 -10l2 -14l3 -13l5 -12l7 -11l7 -12l9 -12l7 -6l12 -5l10 -3h13h13l15 3l14 3l16 3l13 4l14 6l15 7l13 7l12 9l11 8l8 9l10 8l4 8v11v13l-2 13l-4 16l-4 13l-9 13l-10 13l-13 13l-12 10l-15 8l-14 6l-10 2l-14 5l-13 1h-13
h-11h-12l-12 -1l-4 16l14 6l15 3l16 5l14 3l13 4l14 5l14 4l11 5l12 4l6 6l6 8l3 10v13v14l-2 15l-3 13l-4 11l-5 12l-5 8l-9 8l-6 7l-6 5l-11 5l-14 2h-9h-14h-10l-10 -2l-11 -3l-13 -7l-7 -5l-8 -9l-10 -9l-7 -9l-7 -12l-8 -14l-2 -11l-2 -14v-12zM241 -21l-14 8l6 10
l6 15l7 10l4 11l8 14l8 14l8 15l9 16l10 16l9 18l11 19l11 20l9 18l11 20l11 17l13 19l10 17l11 19l11 19l8 14l11 17l6 14l10 13l8 13l7 13l7 14l6 12l6 11l8 11l6 11l6 11l7 11l6 11l5 11l7 11l7 11l6 11l6 9l5 11l8 11l11 22l11 19l7 12l7 8l11 20l9 14l10 14l7 9l6 9
l6 10l8 9l12 -12l-8 -7l-4 -8l-8 -11l-7 -9l-8 -12l-9 -14l-11 -20l-7 -10l-7 -10l-11 -19l-11 -22l-8 -11l-5 -11l-6 -9l-6 -11l-7 -11l-7 -11l-5 -11l-6 -11l-7 -11l-6 -11l-6 -11l-8 -11l-6 -11l-6 -12l-7 -14l-7 -13l-8 -15l-10 -11l-6 -14l-11 -17l-8 -14l-11 -19
l-11 -19l-10 -17l-13 -19l-11 -17l-11 -20l-9 -18l-11 -20l-11 -19l-9 -18l-10 -16l-9 -16l-8 -15l-8 -14l-8 -12l-4 -13l-7 -10l-6 -13zM673 399h16v-9l2 -2l-2 -3v-13v-20v-30v-11v-12v-11v-13v-12v-13v-14v-11v-12v-14v-11v-13v-14v-12l-2 -12l-1 -14h2h1l14 1l16 2l15 1
h12h10h11h12v-16h-12h-11h-10h-12l-13 -1l-16 -2l-16 -1h-3v-11v-11v-17v-10v-15v-13v-11v-11h-16v11v11v13v15v10v17v11v9h-1l-18 -3h-12h-10l-10 -2h-12h-11h-11h-10h-15h-12h-13h-14h-14h-12h-11h-20h-17l-15 14l7 17l9 12l11 10l8 9l6 8l10 11l11 10l6 10l11 11l6 8
l12 13l10 8l7 13l10 12l11 9l9 10l10 12l11 10l9 11l9 10l11 10l9 11l10 7l6 7l8 10l11 14l3 4v8z" />
    <glyph glyph-name="questiondown" unicode="&#xbf;" horiz-adv-x="561" 
d="M294 480h1l9 -7l4 -3v-3l4 -4l-1 -19l-5 -8v-9h-6l-1 -2l-21 1l-15 13l-3 19l4 19l7 3v1h1l13 7zM285 330h16v-11v-11v-14v-15v-13l-1 -16l-8 -17l-6 -13l-9 -14l-11 -14l-10 -12l-11 -11l-11 -13l-12 -12l-14 -10l-12 -11l-12 -13l-14 -11l-11 -11l-7 -8l-10 -13l-9 -16
l-8 -14l-3 -15l-5 -17l-2 -10l-1 -10l-2 -17v-11v-19v-10l5 -16l3 -9l7 -19l9 -15l10 -14l10 -11l8 -5l15 -10l16 -9l17 -6l15 -6l9 -1l18 -3l15 -2h10h13l13 2l13 4l10 4l12 3l12 7l10 6l10 10l10 9l12 10l6 12l11 15l8 11l6 12l7 15l5 10l1 11l4 13l3 10v11v11v14v13h16
v-13v-14v-11v-13l-3 -12l-4 -13l-1 -11l-7 -14l-7 -13l-6 -14l-10 -13l-9 -13l-8 -14l-14 -12l-8 -9l-12 -10l-12 -8l-14 -7l-12 -5l-10 -4l-15 -4l-15 -2h-15h-12l-15 2l-18 3l-11 1l-17 8l-17 6l-18 9l-15 10l-10 7l-12 13l-12 16l-9 15l-9 21l-3 11l-5 18v12v19v11l2 19
l1 10l2 12l5 17l5 17l8 16l9 16l12 15l7 8l13 13l12 11l12 13l14 11l14 10l10 10l11 13l11 11l10 12l9 14l9 12l6 11l6 15l1 12v13v15v14v11v11z" />
    <glyph glyph-name="Agrave" unicode="&#xc0;" horiz-adv-x="549" 
d="M163 263l12 2h12h13h12h13h11h12l11 -3h11l11 -2h10h13h11h12h11h10h10h10h9l11 2l13 1h4l-2 16v12l-1 9l-2 11v12v11v9v12v9v9l-1 9v10v9v12l-1 17l-1 15l-1 10v14l-1 13l-2 14v19v9l-2 15l-2 14l-2 14l-3 14l-1 11l-4 10l-2 13l-2 8l-6 11l-3 12l-5 7l-4 6l-6 6l-5 6
l-8 4l-7 3l-6 2h-8h-11l-6 -1l-10 -3l-9 -2l-8 -2l-6 -4l-5 -4l-5 -8l-4 -8l-6 -9l-7 -13l-4 -7l-3 -8l-4 -10l-4 -8l-3 -11l-4 -11l-4 -14l-4 -11l-4 -11l-2 -10l-1 -12l-1 -9l-3 -13l-1 -15l-3 -16l-2 -16l-1 -15l-3 -11l-2 -19l-3 -13l-2 -11l-2 -12l-2 -14l-2 -13
l-2 -11l-4 -15l-3 -15l-1 -13l-2 -15zM143 10l-16 2l2 11v8l1 16v9l1 13v13l2 10v12v12l2 12v11l1 11v10l1 12v15v10l2 15l2 15l1 13l2 15l4 16l2 13l1 13l3 17l4 15l2 9l2 13l2 14l2 12l2 13l3 11l2 21l3 9l1 15l2 16l3 16l1 15l3 13l1 9l1 12l2 12l4 13l4 11l4 12l4 13
l5 11l4 8l2 10l5 10l4 7l7 13l6 9l4 8l7 10l7 6l8 6l12 4l9 2l10 3l10 1h11h10l10 -2l9 -5l10 -6l7 -8l6 -6l6 -8l5 -9l3 -12l6 -11l4 -10l2 -13l4 -10l1 -13l3 -14l2 -14l2 -14l2 -17v-9v-17l2 -14l1 -15v-14l1 -8l1 -17l1 -17v-12v-9v-10l1 -9v-9v-9v-12v-9v-11v-10l2 -11
l1 -11v-10l3 -22v-13v-12l2 -11l1 -13l1 -10l2 -12v-10l2 -12l1 -10l1 -10l1 -10l1 -10v-11l1 -10l2 -9l2 -17l1 -9l1 -13l2 -11l3 -9l1 -11l2 -10v-11h-16v9l-2 10l-1 9l-3 9l-2 13l-1 13l-1 9l-2 17l-2 9l-1 12v11l-1 8l-1 10l-1 10l-1 10l-2 12v10l-2 12l-1 10l-1 13
l-2 11v14v1h-5l-11 -1l-11 -2h-11h-10h-10h-10h-11h-12h-11h-13h-12l-11 2h-11l-11 3h-10h-11h-13h-12h-13h-10l-14 -2l-1 11l-2 -7l-2 -13l-1 -13l-2 -15l-2 -15v-8v-15l-1 -12v-10l-1 -11v-13l-2 -12v-10v-14l-2 -10v-11l-1 -13v-9l-1 -16v-10zM243 807l4 16l14 -4l10 -9
l10 -10l10 -11l10 -10l6 -7l7 -6l8 -6l-10 -12l-8 6l-9 6l-6 9l-10 8l-10 11l-10 10l-6 7z" />
    <glyph glyph-name="Aacute" unicode="&#xc1;" horiz-adv-x="549" 
d="M163 263l12 2h12h13h12h13h11h12l11 -3h11l11 -2h10h13h11h12h11h10h10h10h9l11 2l13 1h4l-2 16v12l-1 9l-2 11v12v11v9v12v9v9l-1 9v10v9v12l-1 17l-1 15l-1 10v14l-1 13l-2 14v19v9l-2 15l-2 14l-2 14l-3 14l-1 11l-4 10l-2 13l-2 8l-6 11l-3 12l-5 7l-4 6l-6 6l-5 6
l-8 4l-7 3l-6 2h-8h-11l-6 -1l-10 -3l-9 -2l-8 -2l-6 -4l-5 -4l-5 -8l-4 -8l-6 -9l-7 -13l-4 -7l-3 -8l-4 -10l-4 -8l-3 -11l-4 -11l-4 -14l-4 -11l-4 -11l-2 -10l-1 -12l-1 -9l-3 -13l-1 -15l-3 -16l-2 -16l-1 -15l-3 -11l-2 -19l-3 -13l-2 -11l-2 -12l-2 -14l-2 -13
l-2 -11l-4 -15l-3 -15l-1 -13l-2 -15zM143 10l-16 2l2 11v8l1 16v9l1 13v13l2 10v12v12l2 12v11l1 11v10l1 12v15v10l2 15l2 15l1 13l2 15l4 16l2 13l1 13l3 17l4 15l2 9l2 13l2 14l2 12l2 13l3 11l2 21l3 9l1 15l2 16l3 16l1 15l3 13l1 9l1 12l2 12l4 13l4 11l4 12l4 13
l5 11l4 8l2 10l5 10l4 7l7 13l6 9l4 8l7 10l7 6l8 6l12 4l9 2l10 3l10 1h11h10l10 -2l9 -5l10 -6l7 -8l6 -6l6 -8l5 -9l3 -12l6 -11l4 -10l2 -13l4 -10l1 -13l3 -14l2 -14l2 -14l2 -17v-9v-17l2 -14l1 -15v-14l1 -8l1 -17l1 -17v-12v-9v-10l1 -9v-9v-9v-12v-9v-11v-10l2 -11
l1 -11v-10l3 -22v-13v-12l2 -11l1 -13l1 -10l2 -12v-10l2 -12l1 -10l1 -10l1 -10l1 -10v-11l1 -10l2 -9l2 -17l1 -9l1 -13l2 -11l3 -9l1 -11l2 -10v-11h-16v9l-2 10l-1 9l-3 9l-2 13l-1 13l-1 9l-2 17l-2 9l-1 12v11l-1 8l-1 10l-1 10l-1 10l-2 12v10l-2 12l-1 10l-1 13
l-2 11v14v1h-5l-11 -1l-11 -2h-11h-10h-10h-10h-11h-12h-11h-13h-12l-11 2h-11l-11 3h-10h-11h-13h-12h-13h-10l-14 -2l-1 11l-2 -7l-2 -13l-1 -13l-2 -15l-2 -15v-8v-15l-1 -12v-10l-1 -11v-13l-2 -12v-10v-14l-2 -10v-11l-1 -13v-9l-1 -16v-10zM249 732l-14 8l8 16l8 10
l8 8l13 16l10 14l6 9l7 9l5 7l5 9l14 -8l-5 -9l-7 -9l-5 -7l-6 -11l-12 -14l-13 -16l-8 -8l-6 -8z" />
    <glyph glyph-name="Acircumflex" unicode="&#xc2;" horiz-adv-x="549" 
d="M163 263l12 2h12h13h12h13h11h12l11 -3h11l11 -2h10h13h11h12h11h10h10h10h9l11 2l13 1h4l-2 16v12l-1 9l-2 11v12v11v9v12v9v9l-1 9v10v9v12l-1 17l-1 15l-1 10v14l-1 13l-2 14v19v9l-2 15l-2 14l-2 14l-3 14l-1 11l-4 10l-2 13l-2 8l-6 11l-3 12l-5 7l-4 6l-6 6l-5 6
l-8 4l-7 3l-6 2h-8h-11l-6 -1l-10 -3l-9 -2l-8 -2l-6 -4l-5 -4l-5 -8l-4 -8l-6 -9l-7 -13l-4 -7l-3 -8l-4 -10l-4 -8l-3 -11l-4 -11l-4 -14l-4 -11l-4 -11l-2 -10l-1 -12l-1 -9l-3 -13l-1 -15l-3 -16l-2 -16l-1 -15l-3 -11l-2 -19l-3 -13l-2 -11l-2 -12l-2 -14l-2 -13
l-2 -11l-4 -15l-3 -15l-1 -13l-2 -15zM143 10l-16 2l2 11v8l1 16v9l1 13v13l2 10v12v12l2 12v11l1 11v10l1 12v15v10l2 15l2 15l1 13l2 15l4 16l2 13l1 13l3 17l4 15l2 9l2 13l2 14l2 12l2 13l3 11l2 21l3 9l1 15l2 16l3 16l1 15l3 13l1 9l1 12l2 12l4 13l4 11l4 12l4 13
l5 11l4 8l2 10l5 10l4 7l7 13l6 9l4 8l7 10l7 6l8 6l12 4l9 2l10 3l10 1h11h10l10 -2l9 -5l10 -6l7 -8l6 -6l6 -8l5 -9l3 -12l6 -11l4 -10l2 -13l4 -10l1 -13l3 -14l2 -14l2 -14l2 -17v-9v-17l2 -14l1 -15v-14l1 -8l1 -17l1 -17v-12v-9v-10l1 -9v-9v-9v-12v-9v-11v-10l2 -11
l1 -11v-10l3 -22v-13v-12l2 -11l1 -13l1 -10l2 -12v-10l2 -12l1 -10l1 -10l1 -10l1 -10v-11l1 -10l2 -9l2 -17l1 -9l1 -13l2 -11l3 -9l1 -11l2 -10v-11h-16v9l-2 10l-1 9l-3 9l-2 13l-1 13l-1 9l-2 17l-2 9l-1 12v11l-1 8l-1 10l-1 10l-1 10l-2 12v10l-2 12l-1 10l-1 13
l-2 11v14v1h-5l-11 -1l-11 -2h-11h-10h-10h-10h-11h-12h-11h-13h-12l-11 2h-11l-11 3h-10h-11h-13h-12h-13h-10l-14 -2l-1 11l-2 -7l-2 -13l-1 -13l-2 -15l-2 -15v-8v-15l-1 -12v-10l-1 -11v-13l-2 -12v-10v-14l-2 -10v-11l-1 -13v-9l-1 -16v-10zM230 750l-14 8l6 10l7 8
l10 9l11 15l8 6l5 9l8 11l7 11l9 11l7 8l6 11l8 9l10 10l18 -2l6 -14l7 -12l6 -12l6 -8l6 -13l5 -9l6 -12l7 -8l7 -8l7 -12l6 -8l5 -8l-12 -10l-7 8l-6 10l-7 10l-5 8l-9 10l-6 12l-5 9l-6 13l-6 8l-6 12l-7 14l-2 8h-2l-4 -6l-6 -9l-8 -11l-7 -8l-7 -11l-7 -11l-8 -11
l-7 -9l-8 -8l-11 -13l-10 -9l-5 -8z" />
    <glyph glyph-name="Atilde" unicode="&#xc3;" horiz-adv-x="571" 
d="M163 263l12 2h12h13h12h13h11h12l11 -3h11l11 -2h10h13h11h12h11h10h10h10h9l11 2l13 1h4l-2 16v12l-1 9l-2 11v12v11v9v12v9v9l-1 9v10v9v12l-1 17l-1 15l-1 10v14l-1 13l-2 14v19v9l-2 15l-2 14l-2 14l-3 14l-1 11l-4 10l-2 13l-2 8l-6 11l-3 12l-5 7l-4 6l-6 6l-5 6
l-8 4l-7 3l-6 2h-8h-11l-6 -1l-10 -3l-9 -2l-8 -2l-6 -4l-5 -4l-5 -8l-4 -8l-6 -9l-7 -13l-4 -7l-3 -8l-4 -10l-4 -8l-3 -11l-4 -11l-4 -14l-4 -11l-4 -11l-2 -10l-1 -12l-1 -9l-3 -13l-1 -15l-3 -16l-2 -16l-1 -15l-3 -11l-2 -19l-3 -13l-2 -11l-2 -12l-2 -14l-2 -13
l-2 -11l-4 -15l-3 -15l-1 -13l-2 -15zM143 10l-16 2l2 11v8l1 16v9l1 13v13l2 10v12v12l2 12v11l1 11v10l1 12v15v10l2 15l2 15l1 13l2 15l4 16l2 13l1 13l3 17l4 15l2 9l2 13l2 14l2 12l2 13l3 11l2 21l3 9l1 15l2 16l3 16l1 15l3 13l1 9l1 12l2 12l4 13l4 11l4 12l4 13
l5 11l4 8l2 10l5 10l4 7l7 13l6 9l4 8l7 10l7 6l8 6l12 4l9 2l10 3l10 1h11h10l10 -2l9 -5l10 -6l7 -8l6 -6l6 -8l5 -9l3 -12l6 -11l4 -10l2 -13l4 -10l1 -13l3 -14l2 -14l2 -14l2 -17v-9v-17l2 -14l1 -15v-14l1 -8l1 -17l1 -17v-12v-9v-10l1 -9v-9v-9v-12v-9v-11v-10l2 -11
l1 -11v-10l3 -22v-13v-12l2 -11l1 -13l1 -10l2 -12v-10l2 -12l1 -10l1 -10l1 -10l1 -10v-11l1 -10l2 -9l2 -17l1 -9l1 -13l2 -11l3 -9l1 -11l2 -10v-11h-16v9l-2 10l-1 9l-3 9l-2 13l-1 13l-1 9l-2 17l-2 9l-1 12v11l-1 8l-1 10l-1 10l-1 10l-2 12v10l-2 12l-1 10l-1 13
l-2 11v14v1h-5l-11 -1l-11 -2h-11h-10h-10h-10h-11h-12h-11h-13h-12l-11 2h-11l-11 3h-10h-11h-13h-12h-13h-10l-14 -2l-1 11l-2 -7l-2 -13l-1 -13l-2 -15l-2 -15v-8v-15l-1 -12v-10l-1 -11v-13l-2 -12v-10v-14l-2 -10v-11l-1 -13v-9l-1 -16v-10zM179 760h-16v11v14l9 16
l11 16l13 14l13 7l11 5l13 4h12h13l14 -6l10 -6l11 -7l12 -7l11 -8l8 -5l10 -4l14 -6l13 -4l10 -3h14h13l7 4l10 6l7 5l7 9l8 8l8 11l9 6l8 6l10 -12l-8 -6l-7 -6l-8 -9l-8 -8l-7 -9l-9 -9l-12 -6l-11 -6h-17h-16l-12 3l-15 6l-14 6l-10 4l-10 5l-11 8l-12 7l-11 7l-10 6
l-10 4h-9h-10l-9 -4l-11 -3l-9 -5l-11 -12l-9 -14l-7 -12v-10v-11z" />
    <glyph glyph-name="Adieresis" unicode="&#xc4;" horiz-adv-x="549" 
d="M163 263l12 2h12h13h12h13h11h12l11 -3h11l11 -2h10h13h11h12h11h10h10h10h9l11 2l13 1h4l-2 16v12l-1 9l-2 11v12v11v9v12v9v9l-1 9v10v9v12l-1 17l-1 15l-1 10v14l-1 13l-2 14v19v9l-2 15l-2 14l-2 14l-3 14l-1 11l-4 10l-2 13l-2 8l-6 11l-3 12l-5 7l-4 6l-6 6l-5 6
l-8 4l-7 3l-6 2h-8h-11l-6 -1l-10 -3l-9 -2l-8 -2l-6 -4l-5 -4l-5 -8l-4 -8l-6 -9l-7 -13l-4 -7l-3 -8l-4 -10l-4 -8l-3 -11l-4 -11l-4 -14l-4 -11l-4 -11l-2 -10l-1 -12l-1 -9l-3 -13l-1 -15l-3 -16l-2 -16l-1 -15l-3 -11l-2 -19l-3 -13l-2 -11l-2 -12l-2 -14l-2 -13
l-2 -11l-4 -15l-3 -15l-1 -13l-2 -15zM217 822l10 6l7 -6l4 -4l4 -4l6 -7l-6 -17l-16 -2l-2 4l-3 -1l-9 8l-3 2l2 11v6l4 2v1zM386 822h4l3 7l-11 -5v1l17 8l10 -2h14v-5h3v-16h-2l-4 -15l-21 -6h-13l-17 6l-6 13l7 9v5h9h3v2l-3 -1v-1h3h4zM143 10l-16 2l2 11v8l1 16v9
l1 13v13l2 10v12v12l2 12v11l1 11v10l1 12v15v10l2 15l2 15l1 13l2 15l4 16l2 13l1 13l3 17l4 15l2 9l2 13l2 14l2 12l2 13l3 11l2 21l3 9l1 15l2 16l3 16l1 15l3 13l1 9l1 12l2 12l4 13l4 11l4 12l4 13l5 11l4 8l2 10l5 10l4 7l7 13l6 9l4 8l7 10l7 6l8 6l12 4l9 2l10 3
l10 1h11h10l10 -2l9 -5l10 -6l7 -8l6 -6l6 -8l5 -9l3 -12l6 -11l4 -10l2 -13l4 -10l1 -13l3 -14l2 -14l2 -14l2 -17v-9v-17l2 -14l1 -15v-14l1 -8l1 -17l1 -17v-12v-9v-10l1 -9v-9v-9v-12v-9v-11v-10l2 -11l1 -11v-10l3 -22v-13v-12l2 -11l1 -13l1 -10l2 -12v-10l2 -12
l1 -10l1 -10l1 -10l1 -10v-11l1 -10l2 -9l2 -17l1 -9l1 -13l2 -11l3 -9l1 -11l2 -10v-11h-16v9l-2 10l-1 9l-3 9l-2 13l-1 13l-1 9l-2 17l-2 9l-1 12v11l-1 8l-1 10l-1 10l-1 10l-2 12v10l-2 12l-1 10l-1 13l-2 11v14v1h-5l-11 -1l-11 -2h-11h-10h-10h-10h-11h-12h-11h-13
h-12l-11 2h-11l-11 3h-10h-11h-13h-12h-13h-10l-14 -2l-1 11l-2 -7l-2 -13l-1 -13l-2 -15l-2 -15v-8v-15l-1 -12v-10l-1 -11v-13l-2 -12v-10v-14l-2 -10v-11l-1 -13v-9l-1 -16v-10z" />
    <glyph glyph-name="Aring" unicode="&#xc5;" horiz-adv-x="549" 
d="M163 263l12 2h12h13h12h13h11h12l11 -3h11l11 -2h10h13h11h12h11h10h10h10h9l11 2l13 1h4l-2 16v12l-1 9l-2 11v12v11v9v12v9v9l-1 9v10v9v12l-1 17l-1 15l-1 10v14l-1 13l-2 14v19v9l-2 15l-2 14l-2 14l-3 14l-1 11l-4 10l-2 13l-2 8l-6 11l-3 12l-5 7l-4 6l-6 6l-5 6
l-8 4l-7 3l-6 2h-8h-11l-6 -1l-10 -3l-9 -2l-8 -2l-6 -4l-5 -4l-5 -8l-4 -8l-6 -9l-7 -13l-4 -7l-3 -8l-4 -10l-4 -8l-3 -11l-4 -11l-4 -14l-4 -11l-4 -11l-2 -10l-1 -12l-1 -9l-3 -13l-1 -15l-3 -16l-2 -16l-1 -15l-3 -11l-2 -19l-3 -13l-2 -11l-2 -12l-2 -14l-2 -13
l-2 -11l-4 -15l-3 -15l-1 -13l-2 -15zM314 708l9 2l15 5l13 3l9 5l11 6l9 7l9 10l6 8l7 9v9v10l-1 11l-3 12l-5 13l-5 10l-5 10l-8 8l-5 7l-10 3l-10 3l-11 1h-16h-14l-13 -1l-8 -2l-13 -8l-8 -5l-9 -7l-8 -6l-9 -8l-5 -12l-3 -11v-10l1 -10l2 -9l3 -11l3 -10l7 -9l5 -9
l8 -8l9 -6l11 -6l9 -2l11 -2h12zM143 10l-16 2l2 11v8l1 16v9l1 13v13l2 10v12v12l2 12v11l1 11v10l1 12v15v10l2 15l2 15l1 13l2 15l4 16l2 13l1 13l3 17l4 15l2 9l2 13l2 14l2 12l2 13l3 11l2 21l3 9l1 15l2 16l3 16l1 15l3 13l1 9l1 12l2 12l4 13l4 11l4 12l4 13l5 11
l4 8l2 10l5 10l4 7l7 13l6 9l4 8l7 10l7 6l8 6l12 4l9 2l6 1l-4 1h-1l-11 4l-13 6l-11 8l-10 10l-7 9l-7 11l-5 14l-3 11l-2 11l-1 12v12l3 15l9 16l11 10l8 6l9 9l10 5l15 8l12 4l15 1h14h16l13 -1l12 -3l16 -7l7 -9l8 -8l7 -12l5 -12l7 -15l3 -14l1 -13v-10l-2 -15l-9 -13
l-6 -8l-11 -12l-11 -9l-11 -6l-11 -5l-15 -5l-12 -4l7 -1l9 -5l10 -6l7 -8l6 -6l6 -8l5 -9l3 -12l6 -11l4 -10l2 -13l4 -10l1 -13l3 -14l2 -14l2 -14l2 -17v-9v-17l2 -14l1 -15v-14l1 -8l1 -17l1 -17v-12v-9v-10l1 -9v-9v-9v-12v-9v-11v-10l2 -11l1 -11v-10l3 -22v-13v-12
l2 -11l1 -13l1 -10l2 -12v-10l2 -12l1 -10l1 -10l1 -10l1 -10v-11l1 -10l2 -9l2 -17l1 -9l1 -13l2 -11l3 -9l1 -11l2 -10v-11h-16v9l-2 10l-1 9l-3 9l-2 13l-1 13l-1 9l-2 17l-2 9l-1 12v11l-1 8l-1 10l-1 10l-1 10l-2 12v10l-2 12l-1 10l-1 13l-2 11v14v1h-5l-11 -1l-11 -2
h-11h-10h-10h-10h-11h-12h-11h-13h-12l-11 2h-11l-11 3h-10h-11h-13h-12h-13h-10l-14 -2l-1 11l-2 -7l-2 -13l-1 -13l-2 -15l-2 -15v-8v-15l-1 -12v-10l-1 -11v-13l-2 -12v-10v-14l-2 -10v-11l-1 -13v-9l-1 -16v-10z" />
    <glyph glyph-name="AE" unicode="&#xc6;" horiz-adv-x="832" 
d="M176 268h8h11h15h15h15h10h15h17h16h16h14h15h17h16h16h12h13h11h11h12h9v3v15v16v15l3 17l2 16l2 16l1 14v17l2 15l1 16l3 16v14l2 16v14v14v14v13v15v11v13v11v12v19l-2 10v19l-3 14l-1 12l-1 11l-3 5l-6 -1h-9l-13 -2l-13 -1h-9l-11 -3l-11 -3l-10 -2l-10 -2l-7 -5
l-7 -8l-8 -7l-6 -11l-7 -11l-6 -9l-6 -8l-8 -12l-5 -9l-6 -11l-6 -10l-6 -15l-7 -12l-7 -15l-7 -16l-8 -17l-7 -17l-5 -9l-6 -19l-5 -10l-5 -10l-6 -19l-7 -20l-4 -11l-8 -19l-4 -10l-8 -18l-5 -10l-6 -17l-6 -15l-8 -16zM57 6l-12 10l8 10l5 10l8 12l8 14l8 15l6 17l8 17
l6 16l2 11l6 9l3 10l5 9l5 16l4 11l5 9l7 17l6 17l4 10l7 15v5h3l4 11l8 16l6 15l6 17l5 10l8 18l4 10l6 19l4 11l7 20l8 19l5 12l5 8l6 19l5 9l7 17l8 17l7 16l7 17l7 12l6 13l6 12l6 11l5 9l8 14l6 8l6 9l7 9l8 13l8 9l9 8l11 7l12 4l10 2l11 3l13 3h11l11 1l13 2h11
l14 -1l10 2h15h16h19h17h11h11h17h11h11h15h10h11h17h17h11h14h14h11v-16h-11h-14h-14h-11h-17h-17h-11h-10h-15h-11h-11h-17h-11h-11h-17h-19h-16h-13l-2 -1l2 -13l1 -12l3 -14v-19l2 -10v-21v-12v-11v-13v-11v-15v-13v-14v-14v-14l-2 -16v-16l-3 -16l-1 -16l-2 -15v-15
l-1 -14l6 2h15l14 2l10 2l18 1h19h20h19h18h10h15h10h17h12h11h13v-16h-13h-11h-12h-17h-10h-15h-10h-18h-19h-20h-19l-16 -1l-10 -2l-14 -2h-15l-10 -3v-1l-2 -16l-3 -17v-13v-16v-15v-16v-14v-16v-15v-14v-16v-12v-14v-16v-13v-14v-14v-12v-13v-11v-17l2 -16l1 -12v-1h8
h16h15h10h20h19h20h17h11h16h14h14h14h16h15h10v-16h-10h-15h-16h-14h-14h-14h-16h-11h-17h-20h-19h-20h-10h-15h-16h-10l-12 -2l-1 8h-1v6v2v3l-1 10l-2 18v17v11v13v12v14v14v13v16v14v12v16v14v15v16v11h-9h-12h-11h-11h-13h-12h-16h-16h-17h-15h-14h-16h-16h-17h-15h-10
h-15h-15h-15h-11h-14l-7 -12l-2 -10l-8 -17l-7 -17l-5 -9l-2 -9l-7 -18l-5 -9l-3 -10l-4 -9l-2 -9l-8 -18l-8 -17l-6 -17l-8 -17l-8 -14l-8 -12l-5 -10z" />
    <glyph glyph-name="Ccedilla" unicode="&#xc7;" horiz-adv-x="625" 
d="M511 502l-16 -2l-2 12v11l-2 8l-5 12l-4 11l-5 12v12l-4 10l-3 11l-4 10l-3 11l-6 10l-5 9l-6 11l-5 9l-5 7l-7 7l-9 5l-11 5l-10 5l-12 6l-12 6l-9 2l-14 3l-11 4h-9l-14 1h-11h-12h-12l-9 -3l-10 -4l-8 -7l-7 -6l-4 -9l-2 -8l-1 -11l-3 -13l-3 -16l-2 -17l-5 -16
l-1 -19l-3 -17l-2 -16v-10l-1 -17v-17l-2 -16v-17v-19v-15l-2 -19v-11v-19l-1 -21l-2 -19v-11v-10v-10v-10v-11v-11l-1 -17v-11v-11v-15v-10v-20v-17l1 -18l2 -17l3 -17v-16l3 -12l3 -15l3 -11l3 -12l6 -13l7 -10l8 -7l14 -5l14 -5l11 -1l13 -4l10 -3l10 -1l10 -2h5l3 2
l2 -2h12h11h10h11l13 2l12 3l11 4l10 4l8 10l11 9l8 10l7 10l8 13l5 8l4 11l8 11l3 10l4 9l1 10l4 11l1 14l2 14v12v12v13v11v11v11h16v-11v-11v-11v-13v-12v-14l-2 -14l-1 -16l-4 -11l-1 -10l-6 -11l-3 -10l-8 -13l-4 -9l-5 -10l-8 -13l-9 -12l-8 -10l-11 -11l-12 -12
l-12 -4l-11 -6l-16 -3l-13 -2h-13h-10h-11h-11v-1l-8 -9l-6 -8l-9 -12l-8 -8l-4 -8l-9 -12l-6 -8h1l13 -1l12 -3l12 -3l14 -3l11 -6l15 -6l13 -11l9 -9l7 -14l5 -16l-1 -17l-9 -9l-8 -12l-11 -8l-13 -7l-15 -7l-15 -5l-14 -5l-15 -2h-17h-15l-14 2l-12 8l-7 9l-6 8l12 10
l6 -8l5 -7l8 -4l10 -2h13h15l13 2l14 5l13 3l13 7l13 7l7 6l8 10l7 5l-1 9l-3 12l-5 10l-7 7l-11 9l-13 6l-11 4l-12 3l-12 3l-10 3l-13 1l-11 1l-7 14l5 8l6 11l9 10l6 10l8 8l9 12l6 8l1 1l-4 1l-10 1l-12 3l-13 4l-11 1l-16 5l-16 7l-12 11l-9 12l-8 15l-3 14l-3 11
l-3 15l-3 14v16l-3 17l-2 17l-1 20v17v20v10v15v11v11l1 17v11v11v10v10v10v11l2 21l1 19v19v11l2 19v15v19v17l2 16v17l1 17v10l2 18l3 17l1 19l5 18l2 15l3 18l3 11l1 11l2 12l8 13l9 8l10 9l12 6l13 3h14h12h11l14 -1h11l13 -4l14 -3l11 -4l12 -6l14 -6l8 -5l13 -5l11 -7
l9 -9l7 -9l5 -9l6 -11l5 -9l6 -12l3 -11l6 -10l3 -13l4 -12v-10l5 -10l2 -11l7 -12l2 -12v-11z" />
    <glyph glyph-name="Egrave" unicode="&#xc8;" horiz-adv-x="506" 
d="M137 353v-1v-19v-12v-10v-11v-9l2 -11v-12v-10v-11v-11l1 -20v-11v-11l2 -11v-15v-10v-12l1 -11v-11v-17v-13v-15v-14v-15v-12v-11l-1 -11l-2 -6h6h10h12h11h11h10h12h13h10h11h10h11h12h11h10h12h13h12h14h11h13h10h10h11v-16h-11h-10h-10h-13h-11h-14h-12h-13h-12h-10
h-11h-12h-11h-10h-11h-10h-13h-12h-10h-11h-11h-12h-12l-16 6l-2 16l1 11v11v12v15v14v15v13v17v11l-1 11v12v10v13l-2 11v13v11l-1 20v11v11v10v10l-2 11v11v11v10v12v19v11v20v19v17v10v11v17v18v10v19v11v18v11l2 11v17v11v11l1 17v11l2 20l1 16v11l2 16v16l3 12l5 -1v4
h16h12h10h12h13h15l11 -2l10 -1l13 -2h15h15l10 -1h14h15l11 -2h10h12l10 -2h9v-16h-11l-10 2h-10h-12l-11 2h-13h-14l-10 1h-15h-17l-13 2l-10 1l-11 2h-13h-13h-12h-10h-12h-8v-1v-14l-2 -16v-11l-1 -18l-2 -18v-11l-1 -17v-11v-11v-19l-2 -11v-9v-18v-11v-19v-10v-18v-17
v-11v-10v-17v-19v-13l5 1h11h12h11h11h13h10h15h14h12h14h14h14h13h11h11v-16h-11h-11h-13h-14h-14h-14h-12h-14h-15h-10h-13h-11h-11h-12h-9zM201 817l10 12l13 -9l14 -19l11 -12l12 -12l11 -10l10 -7l6 -9l-12 -10l-6 7l-8 7l-11 10l-14 12l-11 14l-14 17z" />
    <glyph glyph-name="Eacute" unicode="&#xc9;" horiz-adv-x="506" 
d="M137 353v-1v-19v-12v-10v-11v-9l2 -11v-12v-10v-11v-11l1 -20v-11v-11l2 -11v-15v-10v-12l1 -11v-11v-17v-13v-15v-14v-15v-12v-11l-1 -11l-2 -6h6h10h12h11h11h10h12h13h10h11h10h11h12h11h10h12h13h12h14h11h13h10h10h11v-16h-11h-10h-10h-13h-11h-14h-12h-13h-12h-10
h-11h-12h-11h-10h-11h-10h-13h-12h-10h-11h-11h-12h-12l-16 6l-2 16l1 11v11v12v15v14v15v13v17v11l-1 11v12v10v13l-2 11v13v11l-1 20v11v11v10v10l-2 11v11v11v10v12v19v11v20v19v17v10v11v17v18v10v19v11v18v11l2 11v17v11v11l1 17v11l2 20l1 16v11l2 16v16l3 12l5 -1v4
h16h12h10h12h13h15l11 -2l10 -1l13 -2h15h15l10 -1h14h15l11 -2h10h12l10 -2h9v-16h-11l-10 2h-10h-12l-11 2h-13h-14l-10 1h-15h-17l-13 2l-10 1l-11 2h-13h-13h-12h-10h-12h-8v-1v-14l-2 -16v-11l-1 -18l-2 -18v-11l-1 -17v-11v-11v-19l-2 -11v-9v-18v-11v-19v-10v-18v-17
v-11v-10v-17v-19v-13l5 1h11h12h11h11h13h10h15h14h12h14h14h14h13h11h11v-16h-11h-11h-13h-14h-14h-14h-12h-14h-15h-10h-13h-11h-11h-12h-9zM249 741l-14 6l6 14l9 12l7 11l8 11l8 10l8 6l6 8l9 8l10 -12l-7 -6l-6 -8l-8 -8l-8 -8l-6 -11l-9 -11l-7 -10z" />
    <glyph glyph-name="Ecircumflex" unicode="&#xca;" horiz-adv-x="506" 
d="M137 353v-1v-19v-12v-10v-11v-9l2 -11v-12v-10v-11v-11l1 -20v-11v-11l2 -11v-15v-10v-12l1 -11v-11v-17v-13v-15v-14v-15v-12v-11l-1 -11l-2 -6h6h10h12h11h11h10h12h13h10h11h10h11h12h11h10h12h13h12h14h11h13h10h10h11v-16h-11h-10h-10h-13h-11h-14h-12h-13h-12h-10
h-11h-12h-11h-10h-11h-10h-13h-12h-10h-11h-11h-12h-12l-16 6l-2 16l1 11v11v12v15v14v15v13v17v11l-1 11v12v10v13l-2 11v13v11l-1 20v11v11v10v10l-2 11v11v11v10v12v19v11v20v19v17v10v11v17v18v10v19v11v18v11l2 11v17v11v11l1 17v11l2 20l1 16v11l2 16v16l3 12l5 -1v4
h16h12h10h12h13h15l11 -2l10 -1l13 -2h15h15l10 -1h14h15l11 -2h10h12l10 -2h9v-16h-11l-10 2h-10h-12l-11 2h-13h-14l-10 1h-15h-17l-13 2l-10 1l-11 2h-13h-13h-12h-10h-12h-8v-1v-14l-2 -16v-11l-1 -18l-2 -18v-11l-1 -17v-11v-11v-19l-2 -11v-9v-18v-11v-19v-10v-18v-17
v-11v-10v-17v-19v-13l5 1h11h12h11h11h13h10h15h14h12h14h14h14h13h11h11v-16h-11h-11h-13h-14h-14h-14h-12h-14h-15h-10h-13h-11h-11h-12h-9zM165 756l-12 10l5 7l7 11l11 13l11 9l10 14l14 11l8 11l7 8l8 8l9 10l11 8l18 -5l8 -16l8 -10l11 -15l8 -14l9 -13l9 -13l9 -13
l11 -12l7 -9l7 -6l-10 -12l-9 6l-7 11l-11 12l-11 13l-9 15l-9 13l-8 14l-9 13l-10 12l-4 12l-4 1l-5 -4l-7 -8l-8 -8l-7 -8l-8 -11l-14 -13l-10 -12l-11 -11l-11 -11l-5 -9z" />
    <glyph glyph-name="Edieresis" unicode="&#xcb;" horiz-adv-x="506" 
d="M137 353v-1v-19v-12v-10v-11v-9l2 -11v-12v-10v-11v-11l1 -20v-11v-11l2 -11v-15v-10v-12l1 -11v-11v-17v-13v-15v-14v-15v-12v-11l-1 -11l-2 -6h6h10h12h11h11h10h12h13h10h11h10h11h12h11h10h12h13h12h14h11h13h10h10h11v-16h-11h-10h-10h-13h-11h-14h-12h-13h-12h-10
h-11h-12h-11h-10h-11h-10h-13h-12h-10h-11h-11h-12h-12l-16 6l-2 16l1 11v11v12v15v14v15v13v17v11l-1 11v12v10v13l-2 11v13v11l-1 20v11v11v10v10l-2 11v11v11v10v12v19v11v20v19v17v10v11v17v18v10v19v11v18v11l2 11v17v11v11l1 17v11l2 20l1 16v11l2 16v16l3 12l5 -1v4
h16h12h10h12h13h15l11 -2l10 -1l13 -2h15h15l10 -1h14h15l11 -2h10h12l10 -2h9v-16h-11l-10 2h-10h-12l-11 2h-13h-14l-10 1h-15h-17l-13 2l-10 1l-11 2h-13h-13h-12h-10h-12h-8v-1v-14l-2 -16v-11l-1 -18l-2 -18v-11l-1 -17v-11v-11v-19l-2 -11v-9v-18v-11v-19v-10v-18v-17
v-11v-10v-17v-19v-13l5 1h11h12h11h11h13h10h15h14h12h14h14h14h13h11h11v-16h-11h-11h-13h-14h-14h-14h-12h-14h-15h-10h-13h-11h-11h-12h-9zM171 781v1l-10 -5l-10 13l11 13h5l2 4l15 -6l-1 -2l9 -2l-7 -16h-1h-1h-12zM350 805l-4 -16l-4 2v-9h-5v-1l-16 -2l-1 14l12 15z
" />
    <glyph glyph-name="Igrave" unicode="&#xcc;" horiz-adv-x="251" 
d="M130 692h16v-11v-11v-14l-1 -11v-11v-11v-11v-14v-16v-15v-11v-11v-11v-13v-15v-13v-12v-13v-15v-14v-16l1 -15l2 -19v-10v-17l1 -11v-11v-15v-10v-20v-16v-15v-16v-14v-14v-12l2 -14v-15v-12v-13v-12v-11v-12l-2 -14v-10l-1 -14v-10v-14v-15l-2 -11l-1 -10v-11l-2 -11
l-16 4l2 9v9l1 12l2 11v13v14v10l1 14v12l2 14v10v11v12v13v12v13l-2 14v14v14v14v16v15v16v20v10v15v11l-1 11v17v10l-2 17l-1 17v16v14v15v13v12v13v15v13v11v11v11v15v16v14v11v11v11l1 11v14v11v11zM73 813l6 16l13 -6l11 -17l6 -8l7 -9l5 -10l12 -13l7 -14l7 -6
l-10 -12l-9 8l-9 14l-12 15l-5 10l-5 7l-8 8l-7 15z" />
    <glyph glyph-name="Iacute" unicode="&#xcd;" horiz-adv-x="291" 
d="M130 692h16v-11v-11v-14l-1 -11v-11v-11v-11v-14v-16v-15v-11v-11v-11v-13v-15v-13v-12v-13v-15v-14v-16l1 -15l2 -19v-10v-17l1 -11v-11v-15v-10v-20v-16v-15v-16v-14v-14v-12l2 -14v-15v-12v-13v-12v-11v-12l-2 -14v-10l-1 -14v-10v-14v-15l-2 -11l-1 -10v-11l-2 -11
l-16 4l2 9v9l1 12l2 11v13v14v10l1 14v12l2 14v10v11v12v13v12v13l-2 14v14v14v14v16v15v16v20v10v15v11l-1 11v17v10l-2 17l-1 17v16v14v15v13v12v13v15v13v11v11v11v15v16v14v11v11v11l1 11v14v11v11zM109 744l-12 10l9 11l9 12l13 14l9 13l11 12l10 9l7 9l8 6l6 8l12 -10
l-6 -8l-8 -8l-7 -7l-10 -11l-11 -10l-9 -13l-13 -14l-9 -12z" />
    <glyph glyph-name="Icircumflex" unicode="&#xce;" horiz-adv-x="323" 
d="M130 692h16v-11v-11v-14l-1 -11v-11v-11v-11v-14v-16v-15v-11v-11v-11v-13v-15v-13v-12v-13v-15v-14v-16l1 -15l2 -19v-10v-17l1 -11v-11v-15v-10v-20v-16v-15v-16v-14v-14v-12l2 -14v-15v-12v-13v-12v-11v-12l-2 -14v-10l-1 -14v-10v-14v-15l-2 -11l-1 -10v-11l-2 -11
l-16 4l2 9v9l1 12l2 11v13v14v10l1 14v12l2 14v10v11v12v13v12v13l-2 14v14v14v14v16v15v16v20v10v15v11l-1 11v17v10l-2 17l-1 17v16v14v15v13v12v13v15v13v11v11v11v15v16v14v11v11v11l1 11v14v11v11zM27 758l-14 6l6 15l10 16l8 9l6 7l4 10l6 12l8 9l5 7l9 16l12 13l8 9
l10 12l16 5l14 -9l8 -11l10 -13l5 -9l14 -15l5 -11l8 -11l11 -18l6 -9l8 -11l7 -14l6 -7l-12 -10l-8 9l-7 14l-8 9l-6 11l-11 18l-8 11l-5 9l-14 15l-5 11l-8 11l-8 9l-4 5l-4 -3l-8 -8l-8 -9l-10 -13l-9 -14l-7 -9l-6 -9l-6 -8l-4 -12l-8 -9l-8 -9l-8 -14z" />
    <glyph glyph-name="Idieresis" unicode="&#xcf;" horiz-adv-x="310" 
d="M30 813h1l-1 1v-1zM45 784l-1 -2l-10 3l-9 1l-2 18l5 7v7h3l10 2h-9l-1 -2l10 2h3l5 -12h5l2 -6l-9 -19zM193 785l-7 8l5 5l-2 1l8 14l13 -9l-1 -15zM130 692h16v-11v-11v-14l-1 -11v-11v-11v-11v-14v-16v-15v-11v-11v-11v-13v-15v-13v-12v-13v-15v-14v-16l1 -15l2 -19
v-10v-17l1 -11v-11v-15v-10v-20v-16v-15v-16v-14v-14v-12l2 -14v-15v-12v-13v-12v-11v-12l-2 -14v-10l-1 -14v-10v-14v-15l-2 -11l-1 -10v-11l-2 -11l-16 4l2 9v9l1 12l2 11v13v14v10l1 14v12l2 14v10v11v12v13v12v13l-2 14v14v14v14v16v15v16v20v10v15v11l-1 11v17v10
l-2 17l-1 17v16v14v15v13v12v13v15v13v11v11v11v15v16v14v11v11v11l1 11v14v11v11z" />
    <glyph glyph-name="Eth" unicode="&#xd0;" horiz-adv-x="570" 
d="M19 361l-8 14l13 7h32l15 1h14h15h14h12h11v4v16v17v17v17v17v17v10l1 18l2 17l1 14l2 14v12v12l2 11v11v11v10l1 10v11v11v13v11l2 16l18 6h12h10h10h11h12l13 -3l10 -2l13 -3l12 -6l11 -6l8 -5l10 -3l10 -6l9 -5l13 -6l9 -5l10 -6l9 -7l7 -8l8 -6l8 -6l10 -11l7 -8
l9 -9l9 -9l6 -12l6 -10l5 -9l5 -10l3 -10l6 -12l4 -11l5 -14l1 -12l4 -10l1 -12l2 -10v-10l3 -11l1 -13v-9l2 -11v-13v-14v-10v-12v-12l-2 -14l-1 -13l-3 -10v-11l-3 -12l-2 -10l-2 -13l-1 -14l-3 -12l-3 -12l-2 -11l-3 -13l-3 -11l-2 -12l-7 -12l-4 -11l-3 -11l-6 -13
l-6 -10l-6 -12l-7 -9l-7 -8l-6 -8l-7 -9l-9 -6l-8 -8l-9 -7l-6 -7l-9 -8l-9 -7l-12 -8l-12 -6l-12 -4l-11 -3l-12 -2l-11 -1l-12 -2h-12l-11 -1h-12l-12 -2h-14h-12h-11h-13l-13 4l-9 7l10 12l7 -5l7 -2h11h11h12h12l12 2h14l11 1h10l12 2l11 1l10 2l11 3l10 2l10 6l10 8
l9 5l7 6l6 9l11 7l8 8l9 6l5 7l6 8l7 8l5 7l6 12l6 10l4 11l3 11l6 11l5 12l2 10l3 11l3 13l2 11l3 12l3 10l1 14l2 13l2 12l3 10v11l3 10l1 13l2 14v10v12v10v14v11l-2 11v11l-1 11l-3 11v10l-2 10l-1 10l-4 10l-1 12l-5 14l-2 9l-6 12l-3 10l-5 8l-5 9l-6 10l-6 10l-7 9
l-9 9l-7 8l-8 9l-8 6l-8 6l-7 8l-7 5l-10 6l-9 5l-13 6l-9 5l-8 6l-10 3l-10 5l-11 6l-10 4l-11 3l-10 2l-11 3h-10h-11h-10h-10h-10h-8l2 -6v-11v-13v-11v-11l-1 -10v-10v-11v-13l-2 -11v-10v-14l-2 -14l-1 -14l-2 -17l-1 -16v-10v-17v-17v-17v-17v-17v-16v-4h11h11h10h10
h11h14h11h14h11h15l10 -1h15l12 -2h9l13 -1l11 -2l-4 -16l-9 2l-11 1h-11l-12 2h-13l-10 1h-15h-11h-14h-11h-14h-11h-10h-10h-11h-11v-14v-10v-17v-17v-17v-16v-13l1 -14v-11v-10v-10l2 -11v-12v-13v-11v-12v-16v-15v-18v-11v-18v-11v-16v-12l-3 -16l-16 4l3 14v10v16v11
v18v11v18v15v16v12v11v13v10l-2 11v12v10v11l-1 14v13v16v17v17v17v10v14h-11h-12h-14h-15h-14l-15 -1h-28z" />
    <glyph glyph-name="Ntilde" unicode="&#xd1;" horiz-adv-x="596" 
d="M496 5l-14 -6l-6 15v6l-1 1l-6 11l-5 11l-7 11l-5 11l-6 10l-8 14l-6 12l-8 11l-8 14l-8 16l-9 14l-8 14l-6 12l-8 15l-6 15l-8 13l-8 14l-8 14l-8 16l-4 13l-8 13l-8 16l-8 16l-3 10l-5 8l-7 17l-8 16l-10 14l-7 17l-10 16l-9 15l-9 14l-10 17l-9 16l-6 7l-10 17l-9 14
l-5 11l-8 15l-6 8l-8 17l-6 15l-8 19l-9 17l-6 14l-8 16l-3 8v-10v-11v-10v-9l2 -11v-11l2 -12v-12v-14v-10l1 -14l2 -14v-14l1 -11v-10l2 -11l1 -12v-9l2 -11v-12v-13v-11v-12v-12l-2 -11v-12l-1 -12v-11v-14v-13v-12v-13v-11v-11v-10v-10v-14v-12v-10v-12v-14v-12l-2 -14
v-13l-1 -13v-12v-14v-10v-12v-14v-10v-12v-13v-15l-2 -14l-16 2l2 14v13v13v12v10v14v12v10v14v12l1 13v15l2 14v10v14v12v10v12v14v10v10v11v11v13v12v13v14v11l1 12v14l2 11v10v12v11v13v10l-2 11v11l-1 10l-2 11v12l-1 11v12l-2 14l-1 16v10v14v10l-2 12v11l-2 11v11v10
v11v10v11v11h2l1 9l21 -5l7 -18l2 -10l8 -16l6 -14l9 -17l8 -19l6 -15l8 -15l6 -8l8 -15l5 -11l9 -14l10 -15l6 -9l9 -16l10 -17l9 -14l9 -15l10 -16l7 -17l10 -14l8 -18l7 -15l5 -10l3 -10l8 -14l8 -16l8 -15l4 -13l8 -14l8 -14l8 -14l8 -15l6 -15l8 -13l6 -12l8 -14l9 -14
l8 -16l8 -14l8 -11l6 -12l8 -14l6 -10l5 -11l5 -8v7v16v13v10v15v10v12l-2 11v12v10l-3 19v21v19v20v18l3 20l2 10v16v19l1 19l2 10v14v10v15v16v16v15v10v14l-2 14v11l-1 15v19v10v15v11v16v14l-2 14v14l-1 14v11v11v11v11v11h16v-11v-11v-11v-11v-11l1 -14v-12l2 -14v-16
v-16v-11v-15v-10v-19l1 -15v-9l2 -14v-16v-10v-15v-16v-16v-15v-10v-16l-2 -10l-1 -17v-19v-18l-2 -10l-3 -20v-16v-20v-19v-19l3 -19v-12v-10l2 -11v-14v-10v-15v-10v-13v-16v-11v-10v-11v-4l3 -4l-3 -3v-2zM201 769l-16 -2l-1 17l10 25l9 16l20 17l12 3l11 3l18 2l18 -4
l12 -7l11 -8l9 -8l11 -7l11 -8l9 -5l12 -5l11 -4l12 -3l10 -3l10 -1h12h10l11 3l10 7l12 9l10 11l8 10l9 7l10 -12l-7 -7l-8 -8l-12 -13l-12 -9l-12 -9l-17 -5h-12h-12l-12 1l-12 3l-14 3l-11 6l-12 5l-11 5l-13 8l-11 9l-9 8l-9 6l-10 7l-12 2l-14 -2l-11 -3l-10 -1
l-14 -13l-7 -12l-8 -21z" />
    <glyph glyph-name="Ograve" unicode="&#xd2;" horiz-adv-x="633" 
d="M470 680l5 -5l8 -11l4 -12l8 -8l5 -10l10 -15l4 -12l3 -11l2 -12l1 -13l1 -11l2 -11l2 -11l1 -15v-14v-14l2 -11l1 -12v-10v-10l2 -12v-15v-12l2 -12v-11v-14v-14v-11v-11v-11v-10v-11v-13v-11v-12v-10v-12v-10v-13l-2 -15l-3 -11l-2 -10l-1 -14l-3 -12l-5 -13v-11
l-5 -15l-3 -13l-1 -11l-5 -12l-4 -14l-7 -11l-4 -10l-7 -10l-9 -6l-10 -8l-10 -9l-15 -6l-12 -6l-11 -6l-12 -1l-11 -3l-11 -2h-16h-10h-12h-10h-12l-12 2l-13 4l-13 6l-13 5l-10 6l-11 9l-10 8l-9 8l-7 11l-8 12l-4 12l-6 10l-3 13l-3 13l-3 15l-2 10l-5 14l-1 17v10l-3 11
v13l-2 11v16v11v11l-1 16v14v15v14v10v14l1 15v15v15v14v10v12v11l2 17l1 14l2 11l1 14l2 11l2 15l3 11l1 11l2 14l4 12l2 10l4 15l5 10l5 11l7 12l5 10l6 12l8 8l7 10l9 9l10 8l11 7l10 5l10 6l10 3l9 5l12 4l11 3l11 2h6l8 3h8h9h5h8h10l14 -5l7 -3l9 -2l5 -5l7 -2l4 -5
l7 -4l10 -5zM435 685l-5 1l-6 -2l-2 7l-6 4l-10 3h-8h-8h-5h-9h-6l-8 -3h-6l-9 -2l-11 -3l-10 -2l-9 -5l-10 -3l-8 -6l-10 -5l-9 -7l-10 -6l-7 -7l-7 -10l-6 -8l-6 -10l-5 -10l-7 -12l-5 -11l-5 -8l-2 -13l-2 -10l-4 -12l-2 -12l-1 -11l-3 -13l-2 -13l-2 -11l-1 -14l-2 -11
l-1 -14l-2 -15v-11v-12v-10v-14v-15v-15l-1 -15v-14v-10v-14v-15v-14l1 -16v-11v-11v-14l2 -11v-13l3 -11v-12l1 -13l5 -14l2 -10l3 -15l3 -13l3 -11l4 -10l4 -10l8 -12l5 -9l7 -6l10 -8l11 -7l8 -6l11 -5l13 -4l11 -4l10 -2h10h10h12h10h14l9 2l13 3l10 1l7 4l14 6l13 6
l8 7l10 8l7 6l5 6l4 10l7 9l2 12l5 12l1 9l3 15l5 13v11l5 15l3 10l1 14l2 12l3 11l2 13v11v10v12v10v12v11v13v11v10v11v11v11v14v14v9l-2 12v14v13l-2 12v12v10l-1 10l-2 11v16v14l-1 13l-2 11l-2 11l-1 11l-1 13l-2 10l-3 11l-2 10l-10 13l-5 8l-8 10l-4 12l-6 9l-9 6
l-8 6l-2 2l-8 5zM393 795l-6 -14l-15 6l-13 8l-10 14l-10 14l-6 10l-5 9l-7 9l14 10l7 -11l5 -9l6 -8l10 -14l8 -12l9 -6z" />
    <glyph glyph-name="Oacute" unicode="&#xd3;" horiz-adv-x="633" 
d="M470 680l5 -5l8 -11l4 -12l8 -8l5 -10l10 -15l4 -12l3 -11l2 -12l1 -13l1 -11l2 -11l2 -11l1 -15v-14v-14l2 -11l1 -12v-10v-10l2 -12v-15v-12l2 -12v-11v-14v-14v-11v-11v-11v-10v-11v-13v-11v-12v-10v-12v-10v-13l-2 -15l-3 -11l-2 -10l-1 -14l-3 -12l-5 -13v-11
l-5 -15l-3 -13l-1 -11l-5 -12l-4 -14l-7 -11l-4 -10l-7 -10l-9 -6l-10 -8l-10 -9l-15 -6l-12 -6l-11 -6l-12 -1l-11 -3l-11 -2h-16h-10h-12h-10h-12l-12 2l-13 4l-13 6l-13 5l-10 6l-11 9l-10 8l-9 8l-7 11l-8 12l-4 12l-6 10l-3 13l-3 13l-3 15l-2 10l-5 14l-1 17v10l-3 11
v13l-2 11v16v11v11l-1 16v14v15v14v10v14l1 15v15v15v14v10v12v11l2 17l1 14l2 11l1 14l2 11l2 15l3 11l1 11l2 14l4 12l2 10l4 15l5 10l5 11l7 12l5 10l6 12l8 8l7 10l9 9l10 8l11 7l10 5l10 6l10 3l9 5l12 4l11 3l11 2h6l8 3h8h9h5h8h10l14 -5l7 -3l9 -2l5 -5l7 -2l4 -5
l7 -4l10 -5zM435 685l-5 1l-6 -2l-2 7l-6 4l-10 3h-8h-8h-5h-9h-6l-8 -3h-6l-9 -2l-11 -3l-10 -2l-9 -5l-10 -3l-8 -6l-10 -5l-9 -7l-10 -6l-7 -7l-7 -10l-6 -8l-6 -10l-5 -10l-7 -12l-5 -11l-5 -8l-2 -13l-2 -10l-4 -12l-2 -12l-1 -11l-3 -13l-2 -13l-2 -11l-1 -14l-2 -11
l-1 -14l-2 -15v-11v-12v-10v-14v-15v-15l-1 -15v-14v-10v-14v-15v-14l1 -16v-11v-11v-14l2 -11v-13l3 -11v-12l1 -13l5 -14l2 -10l3 -15l3 -13l3 -11l4 -10l4 -10l8 -12l5 -9l7 -6l10 -8l11 -7l8 -6l11 -5l13 -4l11 -4l10 -2h10h10h12h10h14l9 2l13 3l10 1l7 4l14 6l13 6
l8 7l10 8l7 6l5 6l4 10l7 9l2 12l5 12l1 9l3 15l5 13v11l5 15l3 10l1 14l2 12l3 11l2 13v11v10v12v10v12v11v13v11v10v11v11v11v14v14v9l-2 12v14v13l-2 12v12v10l-1 10l-2 11v16v14l-1 13l-2 11l-2 11l-1 11l-1 13l-2 10l-3 11l-2 10l-10 13l-5 8l-8 10l-4 12l-6 9l-9 6
l-8 6l-2 2l-8 5zM319 765l-10 12l11 9l14 13l9 7l20 14l10 7l9 8l12 7l14 8l11 7l8 -14l-11 -7l-14 -8l-10 -7l-9 -6l-10 -7l-20 -16l-9 -5l-14 -13z" />
    <glyph glyph-name="Ocircumflex" unicode="&#xd4;" horiz-adv-x="633" 
d="M470 680l5 -5l8 -11l4 -12l8 -8l5 -10l10 -15l4 -12l3 -11l2 -12l1 -13l1 -11l2 -11l2 -11l1 -15v-14v-14l2 -11l1 -12v-10v-10l2 -12v-15v-12l2 -12v-11v-14v-14v-11v-11v-11v-10v-11v-13v-11v-12v-10v-12v-10v-13l-2 -15l-3 -11l-2 -10l-1 -14l-3 -12l-5 -13v-11
l-5 -15l-3 -13l-1 -11l-5 -12l-4 -14l-7 -11l-4 -10l-7 -10l-9 -6l-10 -8l-10 -9l-15 -6l-12 -6l-11 -6l-12 -1l-11 -3l-11 -2h-16h-10h-12h-10h-12l-12 2l-13 4l-13 6l-13 5l-10 6l-11 9l-10 8l-9 8l-7 11l-8 12l-4 12l-6 10l-3 13l-3 13l-3 15l-2 10l-5 14l-1 17v10l-3 11
v13l-2 11v16v11v11l-1 16v14v15v14v10v14l1 15v15v15v14v10v12v11l2 17l1 14l2 11l1 14l2 11l2 15l3 11l1 11l2 14l4 12l2 10l4 15l5 10l5 11l7 12l5 10l6 12l8 8l7 10l9 9l10 8l11 7l10 5l10 6l10 3l9 5l12 4l11 3l11 2h6l8 3h8h9h5h8h10l14 -5l7 -3l9 -2l5 -5l7 -2l4 -5
l7 -4l10 -5zM435 685l-5 1l-6 -2l-2 7l-6 4l-10 3h-8h-8h-5h-9h-6l-8 -3h-6l-9 -2l-11 -3l-10 -2l-9 -5l-10 -3l-8 -6l-10 -5l-9 -7l-10 -6l-7 -7l-7 -10l-6 -8l-6 -10l-5 -10l-7 -12l-5 -11l-5 -8l-2 -13l-2 -10l-4 -12l-2 -12l-1 -11l-3 -13l-2 -13l-2 -11l-1 -14l-2 -11
l-1 -14l-2 -15v-11v-12v-10v-14v-15v-15l-1 -15v-14v-10v-14v-15v-14l1 -16v-11v-11v-14l2 -11v-13l3 -11v-12l1 -13l5 -14l2 -10l3 -15l3 -13l3 -11l4 -10l4 -10l8 -12l5 -9l7 -6l10 -8l11 -7l8 -6l11 -5l13 -4l11 -4l10 -2h10h10h12h10h14l9 2l13 3l10 1l7 4l14 6l13 6
l8 7l10 8l7 6l5 6l4 10l7 9l2 12l5 12l1 9l3 15l5 13v11l5 15l3 10l1 14l2 12l3 11l2 13v11v10v12v10v12v11v13v11v10v11v11v11v14v14v9l-2 12v14v13l-2 12v12v10l-1 10l-2 11v16v14l-1 13l-2 11l-2 11l-1 11l-1 13l-2 10l-3 11l-2 10l-10 13l-5 8l-8 10l-4 12l-6 9l-9 6
l-8 6l-2 2l-8 5zM261 759l-8 14l12 7l10 13l6 8l8 8l8 11l18 15l11 11l7 7l7 9l15 12l11 9l13 6l17 -11l9 -15l8 -13l8 -8l9 -17l8 -14l8 -10l7 -10l7 -11l-12 -10l-9 11l-7 10l-8 12l-8 14l-9 15l-6 8l-10 15l-7 13l-5 5l-5 -4l-9 -7l-13 -12l-7 -7l-7 -9l-13 -11l-16 -15
l-8 -9l-8 -8l-6 -8l-12 -15z" />
    <glyph glyph-name="Otilde" unicode="&#xd5;" horiz-adv-x="635" 
d="M470 680l5 -5l8 -11l4 -12l8 -8l5 -10l10 -15l4 -12l3 -11l2 -12l1 -13l1 -11l2 -11l2 -11l1 -15v-14v-14l2 -11l1 -12v-10v-10l2 -12v-15v-12l2 -12v-11v-14v-14v-11v-11v-11v-10v-11v-13v-11v-12v-10v-12v-10v-13l-2 -15l-3 -11l-2 -10l-1 -14l-3 -12l-5 -13v-11
l-5 -15l-3 -13l-1 -11l-5 -12l-4 -14l-7 -11l-4 -10l-7 -10l-9 -6l-10 -8l-10 -9l-15 -6l-12 -6l-11 -6l-12 -1l-11 -3l-11 -2h-16h-10h-12h-10h-12l-12 2l-13 4l-13 6l-13 5l-10 6l-11 9l-10 8l-9 8l-7 11l-8 12l-4 12l-6 10l-3 13l-3 13l-3 15l-2 10l-5 14l-1 17v10l-3 11
v13l-2 11v16v11v11l-1 16v14v15v14v10v14l1 15v15v15v14v10v12v11l2 17l1 14l2 11l1 14l2 11l2 15l3 11l1 11l2 14l4 12l2 10l4 15l5 10l5 11l7 12l5 10l6 12l8 8l7 10l9 9l10 8l11 7l10 5l10 6l10 3l9 5l12 4l11 3l11 2h6l8 3h8h9h5h8h10l14 -5l7 -3l9 -2l5 -5l7 -2l4 -5
l7 -4l10 -5zM435 685l-5 1l-6 -2l-2 7l-6 4l-10 3h-8h-8h-5h-9h-6l-8 -3h-6l-9 -2l-11 -3l-10 -2l-9 -5l-10 -3l-8 -6l-10 -5l-9 -7l-10 -6l-7 -7l-7 -10l-6 -8l-6 -10l-5 -10l-7 -12l-5 -11l-5 -8l-2 -13l-2 -10l-4 -12l-2 -12l-1 -11l-3 -13l-2 -13l-2 -11l-1 -14l-2 -11
l-1 -14l-2 -15v-11v-12v-10v-14v-15v-15l-1 -15v-14v-10v-14v-15v-14l1 -16v-11v-11v-14l2 -11v-13l3 -11v-12l1 -13l5 -14l2 -10l3 -15l3 -13l3 -11l4 -10l4 -10l8 -12l5 -9l7 -6l10 -8l11 -7l8 -6l11 -5l13 -4l11 -4l10 -2h10h10h12h10h14l9 2l13 3l10 1l7 4l14 6l13 6
l8 7l10 8l7 6l5 6l4 10l7 9l2 12l5 12l1 9l3 15l5 13v11l5 15l3 10l1 14l2 12l3 11l2 13v11v10v12v10v12v11v13v11v10v11v11v11v14v14v9l-2 12v14v13l-2 12v12v10l-1 10l-2 11v16v14l-1 13l-2 11l-2 11l-1 11l-1 13l-2 10l-3 11l-2 10l-10 13l-5 8l-8 10l-4 12l-6 9l-9 6
l-8 6l-2 2l-8 5zM240 786h-16v15l10 15l15 12l17 10l17 7l17 3h18l17 -6l13 -8l12 -11l10 -11l12 -6l10 -6l10 -2l13 -4h10l12 2l12 5l15 9l15 10l12 12l7 6l11 13l8 10l6 8l12 -10l-6 -8l-8 -10l-11 -15l-9 -6l-12 -12l-17 -12l-15 -9l-16 -7l-14 -2h-14l-15 4l-12 4l-12 6
l-14 8l-12 11l-10 11l-9 6l-13 4h-14l-15 -3l-13 -5l-15 -10l-13 -10l-6 -7v-11z" />
    <glyph glyph-name="Odieresis" unicode="&#xd6;" horiz-adv-x="633" 
d="M470 680l5 -5l8 -11l4 -12l8 -8l5 -10l10 -15l4 -12l3 -11l2 -12l1 -13l1 -11l2 -11l2 -11l1 -15v-14v-14l2 -11l1 -12v-10v-10l2 -12v-15v-12l2 -12v-11v-14v-14v-11v-11v-11v-10v-11v-13v-11v-12v-10v-12v-10v-13l-2 -15l-3 -11l-2 -10l-1 -14l-3 -12l-5 -13v-11
l-5 -15l-3 -13l-1 -11l-5 -12l-4 -14l-7 -11l-4 -10l-7 -10l-9 -6l-10 -8l-10 -9l-15 -6l-12 -6l-11 -6l-12 -1l-11 -3l-11 -2h-16h-10h-12h-10h-12l-12 2l-13 4l-13 6l-13 5l-10 6l-11 9l-10 8l-9 8l-7 11l-8 12l-4 12l-6 10l-3 13l-3 13l-3 15l-2 10l-5 14l-1 17v10l-3 11
v13l-2 11v16v11v11l-1 16v14v15v14v10v14l1 15v15v15v14v10v12v11l2 17l1 14l2 11l1 14l2 11l2 15l3 11l1 11l2 14l4 12l2 10l4 15l5 10l5 11l7 12l5 10l6 12l8 8l7 10l9 9l10 8l11 7l10 5l10 6l10 3l9 5l12 4l11 3l11 2h6l8 3h8h9h5h8h10l14 -5l7 -3l9 -2l5 -5l7 -2l4 -5
l7 -4l10 -5zM435 685l-5 1l-6 -2l-2 7l-6 4l-10 3h-8h-8h-5h-9h-6l-8 -3h-6l-9 -2l-11 -3l-10 -2l-9 -5l-10 -3l-8 -6l-10 -5l-9 -7l-10 -6l-7 -7l-7 -10l-6 -8l-6 -10l-5 -10l-7 -12l-5 -11l-5 -8l-2 -13l-2 -10l-4 -12l-2 -12l-1 -11l-3 -13l-2 -13l-2 -11l-1 -14l-2 -11
l-1 -14l-2 -15v-11v-12v-10v-14v-15v-15l-1 -15v-14v-10v-14v-15v-14l1 -16v-11v-11v-14l2 -11v-13l3 -11v-12l1 -13l5 -14l2 -10l3 -15l3 -13l3 -11l4 -10l4 -10l8 -12l5 -9l7 -6l10 -8l11 -7l8 -6l11 -5l13 -4l11 -4l10 -2h10h10h12h10h14l9 2l13 3l10 1l7 4l14 6l13 6
l8 7l10 8l7 6l5 6l4 10l7 9l2 12l5 12l1 9l3 15l5 13v11l5 15l3 10l1 14l2 12l3 11l2 13v11v10v12v10v12v11v13v11v10v11v11v11v14v14v9l-2 12v14v13l-2 12v12v10l-1 10l-2 11v16v14l-1 13l-2 11l-2 11l-1 11l-1 13l-2 10l-3 11l-2 10l-10 13l-5 8l-8 10l-4 12l-6 9l-9 6
l-8 6l-2 2l-8 5zM305 822v-6l5 -2l-2 -13l-15 -12l-16 13l5 17h9l7 8zM466 817l2 -1l-6 -19l-7 -2l-11 -3l-16 11l6 23l18 3l2 -2l1 1l12 -7z" />
    <glyph glyph-name="multiply" unicode="&#xd7;" horiz-adv-x="603" 
d="M51 38l-10 12l14 11l13 11l11 11l8 8l8 6l15 13l8 7l8 7l7 7l7 8l9 7l9 9l7 7l8 9l8 9l8 7l8 10l10 8l7 8l9 8l17 15l8 7l6 9l3 2l-6 5l-13 10l-8 7l-12 12l-13 11l-12 10l-11 10l-12 11l-6 7l-9 7l-11 12l-8 11l-10 9l-9 10l-8 9l-11 13l-9 12l-6 8l-7 6l-11 7l-6 9
l12 10l6 -7l9 -7l9 -8l6 -8l9 -12l11 -13l8 -9l9 -8l10 -11l8 -11l9 -10l11 -7l6 -9l10 -9l11 -10l12 -10l13 -11l12 -12l8 -7l13 -10l7 -6h1l7 9l9 7l7 6l6 8l9 8l7 7l6 9l9 6l7 8l15 13l13 12l12 14l10 9l9 10l11 11l10 9l10 8l8 8l9 8l9 7l9 5l8 -14l-9 -5l-7 -5l-9 -8
l-8 -8l-10 -8l-8 -9l-11 -11l-9 -10l-10 -9l-12 -14l-15 -12l-13 -13l-9 -8l-7 -6l-6 -7l-9 -9l-7 -6l-6 -8l-9 -8l-7 -7l-7 -7l-1 -2l2 -2l11 -12l13 -11l14 -11l10 -12l12 -9l12 -11l11 -11l11 -11l14 -11l9 -10l12 -11l11 -9l11 -9l11 -10l11 -7l9 -8l9 -8l8 -9l6 -7
l7 -6l9 -8l-10 -12l-9 8l-9 6l-6 9l-8 7l-7 8l-9 8l-11 7l-11 10l-11 9l-11 9l-14 11l-9 10l-12 11l-13 11l-11 11l-10 11l-12 9l-12 12l-12 11l-15 11l-11 14l-2 1l-2 -2l-6 -7l-10 -9l-17 -15l-7 -8l-9 -8l-8 -8l-8 -8l-8 -9l-8 -7l-8 -9l-7 -9l-11 -9l-7 -7l-7 -8l-9 -7
l-8 -7l-8 -7l-15 -13l-8 -6l-6 -8l-13 -11l-13 -11z" />
    <glyph glyph-name="Oslash" unicode="&#xd8;" horiz-adv-x="715" 
d="M510 494l-4 -5l-8 -9l-8 -9l-8 -7l-8 -9l-8 -8l-6 -8l-8 -9l-7 -8l-8 -8l-8 -9l-8 -11l-8 -9l-7 -8l-10 -11l-15 -17l-11 -12l-10 -9l-8 -11l-7 -9l-7 -8l-7 -10l-10 -8l-6 -7l-14 -15l-14 -14l-8 -7l-6 -8l-14 -12l-14 -12l-8 -6l-6 -7l-7 -9l-16 -12l-5 -4l1 -9l5 -14
l2 -10l3 -15l3 -13l3 -11l4 -10l4 -10l8 -12l5 -9l7 -6l10 -8l11 -7l8 -6l11 -5l13 -4l11 -4l10 -2h10h10h12h10h14l9 2l13 3l10 1l7 4l14 6l13 6l8 7l10 8l7 6l5 6l4 10l7 9l2 12l5 12l1 9l3 15l5 13v11l5 15l3 10l1 14l2 12l3 11l2 13v11v10v12v10v12v11v13v11v10v11v11
v11v14v14v9l-2 12v14v13l-2 12v12v10l-1 10l-2 11v1zM510 518v5l-1 13l-2 11l-2 11l-1 11l-1 13l-2 10l-3 11l-2 10l-10 13l-5 8l-8 10l-4 12l-6 9l-9 6l-8 6l-2 2l-8 5l-1 1l-5 1l-6 -2l-2 7l-6 4l-10 3h-8h-8h-5h-9h-6l-8 -3h-6l-9 -2l-11 -3l-10 -2l-9 -5l-10 -3l-8 -6
l-10 -5l-9 -7l-10 -6l-7 -7l-7 -10l-6 -8l-6 -10l-5 -10l-7 -12l-5 -11l-5 -8l-2 -13l-2 -10l-4 -12l-2 -12l-1 -11l-3 -13l-2 -13l-2 -11l-1 -14l-2 -11l-1 -14l-2 -15v-11v-12v-10v-14v-15v-15l-1 -15v-14v-10v-14v-15v-14l1 -16v-11v-11v-14l2 -11v-13l2 -8l10 9l7 7l8 9
l8 6l14 12l12 10l6 8l8 9l14 14l14 13l6 9l10 8l7 8l7 8l7 9l8 11l10 11l11 10l15 17l10 11l7 8l8 9l8 11l8 9l8 8l7 8l8 9l6 8l8 8l8 9l8 9l8 7l8 9l6 8l8 8zM131 95l-12 10l10 11l13 15l10 8l7 7l6 8l8 9l9 8l5 5v7l-3 11v13l-2 11v16v11v11l-1 16v14v15v14v10v14l1 15v15
v15v14v10v12v11l2 17l1 14l2 11l1 14l2 11l2 15l3 11l1 11l2 14l4 12l2 10l4 15l5 10l5 11l7 12l5 10l6 12l8 8l7 10l9 9l10 8l11 7l10 5l10 6l10 3l9 5l12 4l11 3l11 2h6l8 3h8h9h5h8h10l14 -5l7 -3l9 -2l5 -5l7 -2l4 -5l7 -4l10 -5l-1 -3l5 -5l8 -11l4 -12l8 -8l5 -10
l10 -15l4 -12l3 -11l2 -12l1 -13l1 -11l2 -11l2 -11v-5l6 6l8 7l6 9l8 8l6 8l8 9l12 12l11 10l8 9l10 6l8 -14l-8 -4l-6 -7l-11 -12l-12 -12l-8 -7l-6 -8l-8 -8l-6 -9l-8 -9l-9 -8l-7 -7h-1v-3v-14l2 -11l1 -12v-10v-10l2 -12v-15v-12l2 -12v-11v-14v-14v-11v-11v-11v-10
v-11v-13v-11v-12v-10v-12v-10v-13l-2 -15l-3 -11l-2 -10l-1 -14l-3 -12l-5 -13v-11l-5 -15l-3 -13l-1 -11l-5 -12l-4 -14l-7 -11l-4 -10l-7 -10l-9 -6l-10 -8l-10 -9l-15 -6l-12 -6l-11 -6l-12 -1l-11 -3l-11 -2h-16h-10h-12h-10h-12l-12 2l-13 4l-13 6l-13 5l-10 6l-11 9
l-10 8l-9 8l-7 11l-8 12l-4 12l-6 10l-3 13l-3 13l-3 15l-2 10l-4 13l-4 -4l-8 -7l-6 -8l-9 -9l-8 -8l-13 -13z" />
    <glyph glyph-name="Ugrave" unicode="&#xd9;" horiz-adv-x="592" 
d="M177 696l16 -6l-4 -9v-12v-14v-17v-16v-17v-17v-16v-15v-16v-16v-15v-14v-16v-15v-16l1 -17v-16l3 -16l2 -18v-17l2 -16v-16l3 -17v-17l1 -15l2 -15v-15l1 -15l2 -16l2 -15l3 -16l1 -19l2 -15l3 -17l1 -14l5 -15l3 -14l5 -13l4 -13l4 -10l7 -10l9 -10l10 -6l10 -8l9 -4
l11 -3l10 -3l13 -2l11 -1h10h15h10l10 1l11 6l9 8l7 7l8 8l8 9l6 9l9 11l6 10l5 10l6 17l3 10l5 13l3 13l2 12l3 15l3 13v15l2 18l1 15v15v11l2 15l1 14v15v17l2 15v15v11v16v17v16l-3 16l-2 18l-1 16l-2 18v16v17l-1 11v16l-2 14v16l-2 15v15l-1 11v13v16v10v11v11v10v11
h16v-11v-10v-11v-11v-10v-16v-13l1 -11v-13l2 -15v-16l2 -14v-18l1 -11v-17v-16l2 -16l1 -16l2 -18l3 -16v-18v-17v-16v-11v-17l-2 -15v-15v-15l-1 -16l-2 -15v-9v-15l-1 -17l-2 -16v-17l-3 -15l-3 -13l-2 -12l-3 -15l-5 -13l-3 -12l-8 -17l-5 -12l-6 -12l-11 -11l-6 -9
l-8 -9l-8 -8l-7 -9l-13 -10l-15 -8l-14 -1h-10h-15h-10l-13 1l-15 2l-10 3l-13 3l-11 6l-12 8l-10 8l-11 12l-9 12l-4 12l-6 13l-5 15l-3 14l-5 15l-1 16l-3 17l-2 15l-1 19l-3 16l-2 15l-2 16l-1 17v13l-2 15l-1 17v15l-3 17v18l-2 16v17l-2 16l-3 16v18l-1 17v16v15v16v14
v15v16v16v15v16v17v17v16v17v14v14zM296 811l14 6l5 -11l15 -10l15 -16l11 -11l9 -9l8 -9l6 -8l-12 -10l-6 8l-8 7l-9 9l-11 13l-13 14l-17 12z" />
    <glyph glyph-name="Uacute" unicode="&#xda;" horiz-adv-x="592" 
d="M177 696l16 -6l-4 -9v-12v-14v-17v-16v-17v-17v-16v-15v-16v-16v-15v-14v-16v-15v-16l1 -17v-16l3 -16l2 -18v-17l2 -16v-16l3 -17v-17l1 -15l2 -15v-15l1 -15l2 -16l2 -15l3 -16l1 -19l2 -15l3 -17l1 -14l5 -15l3 -14l5 -13l4 -13l4 -10l7 -10l9 -10l10 -6l10 -8l9 -4
l11 -3l10 -3l13 -2l11 -1h10h15h10l10 1l11 6l9 8l7 7l8 8l8 9l6 9l9 11l6 10l5 10l6 17l3 10l5 13l3 13l2 12l3 15l3 13v15l2 18l1 15v15v11l2 15l1 14v15v17l2 15v15v11v16v17v16l-3 16l-2 18l-1 16l-2 18v16v17l-1 11v16l-2 14v16l-2 15v15l-1 11v13v16v10v11v11v10v11
h16v-11v-10v-11v-11v-10v-16v-13l1 -11v-13l2 -15v-16l2 -14v-18l1 -11v-17v-16l2 -16l1 -16l2 -18l3 -16v-18v-17v-16v-11v-17l-2 -15v-15v-15l-1 -16l-2 -15v-9v-15l-1 -17l-2 -16v-17l-3 -15l-3 -13l-2 -12l-3 -15l-5 -13l-3 -12l-8 -17l-5 -12l-6 -12l-11 -11l-6 -9
l-8 -9l-8 -8l-7 -9l-13 -10l-15 -8l-14 -1h-10h-15h-10l-13 1l-15 2l-10 3l-13 3l-11 6l-12 8l-10 8l-11 12l-9 12l-4 12l-6 13l-5 15l-3 14l-5 15l-1 16l-3 17l-2 15l-1 19l-3 16l-2 15l-2 16l-1 17v13l-2 15l-1 17v15l-3 17v18l-2 16v17l-2 16l-3 16v18l-1 17v16v15v16v14
v15v16v16v15v16v17v17v16v17v14v14zM285 728l-14 8l10 18l11 12l11 11l15 22l9 12l12 19l8 9l12 -10l-8 -9l-10 -17l-9 -14l-17 -22l-11 -13l-11 -10z" />
    <glyph glyph-name="Ucircumflex" unicode="&#xdb;" horiz-adv-x="592" 
d="M177 696l16 -6l-4 -9v-12v-14v-17v-16v-17v-17v-16v-15v-16v-16v-15v-14v-16v-15v-16l1 -17v-16l3 -16l2 -18v-17l2 -16v-16l3 -17v-17l1 -15l2 -15v-15l1 -15l2 -16l2 -15l3 -16l1 -19l2 -15l3 -17l1 -14l5 -15l3 -14l5 -13l4 -13l4 -10l7 -10l9 -10l10 -6l10 -8l9 -4
l11 -3l10 -3l13 -2l11 -1h10h15h10l10 1l11 6l9 8l7 7l8 8l8 9l6 9l9 11l6 10l5 10l6 17l3 10l5 13l3 13l2 12l3 15l3 13v15l2 18l1 15v15v11l2 15l1 14v15v17l2 15v15v11v16v17v16l-3 16l-2 18l-1 16l-2 18v16v17l-1 11v16l-2 14v16l-2 15v15l-1 11v13v16v10v11v11v10v11
h16v-11v-10v-11v-11v-10v-16v-13l1 -11v-13l2 -15v-16l2 -14v-18l1 -11v-17v-16l2 -16l1 -16l2 -18l3 -16v-18v-17v-16v-11v-17l-2 -15v-15v-15l-1 -16l-2 -15v-9v-15l-1 -17l-2 -16v-17l-3 -15l-3 -13l-2 -12l-3 -15l-5 -13l-3 -12l-8 -17l-5 -12l-6 -12l-11 -11l-6 -9
l-8 -9l-8 -8l-7 -9l-13 -10l-15 -8l-14 -1h-10h-15h-10l-13 1l-15 2l-10 3l-13 3l-11 6l-12 8l-10 8l-11 12l-9 12l-4 12l-6 13l-5 15l-3 14l-5 15l-1 16l-3 17l-2 15l-1 19l-3 16l-2 15l-2 16l-1 17v13l-2 15l-1 17v15l-3 17v18l-2 16v17l-2 16l-3 16v18l-1 17v16v15v16v14
v15v16v16v15v16v17v17v16v17v14v14zM241 736l-14 8l6 12l12 15l6 8l7 9l7 8l7 8l14 15l12 14l13 15l9 8l12 9l17 -2l14 -11l11 -11l10 -11l9 -13l11 -13l10 -11l7 -13l10 -9l6 -8l8 -7l-12 -12l-8 9l-6 8l-10 9l-9 13l-8 11l-11 13l-9 13l-10 9l-11 11l-8 9h-7l-6 -5l-7 -8
l-13 -13l-12 -14l-14 -15l-7 -8l-7 -8l-7 -9l-6 -8l-10 -13z" />
    <glyph glyph-name="Udieresis" unicode="&#xdc;" horiz-adv-x="592" 
d="M253 797v2l1 1v2l-2 3l3 3v2l2 1l4 7l3 -1l3 3l13 -10l-3 -9v-1l-1 -1v-2h-1l-1 -2l1 -1l-2 -1l-3 -6l-3 2h-2l-10 4l1 2zM448 807l-2 -4l1 -11l-16 -14l-16 12l6 6l-5 9l3 7l12 3l7 4zM177 696l16 -6l-4 -9v-12v-14v-17v-16v-17v-17v-16v-15v-16v-16v-15v-14v-16v-15
v-16l1 -17v-16l3 -16l2 -18v-17l2 -16v-16l3 -17v-17l1 -15l2 -15v-15l1 -15l2 -16l2 -15l3 -16l1 -19l2 -15l3 -17l1 -14l5 -15l3 -14l5 -13l4 -13l4 -10l7 -10l9 -10l10 -6l10 -8l9 -4l11 -3l10 -3l13 -2l11 -1h10h15h10l10 1l11 6l9 8l7 7l8 8l8 9l6 9l9 11l6 10l5 10
l6 17l3 10l5 13l3 13l2 12l3 15l3 13v15l2 18l1 15v15v11l2 15l1 14v15v17l2 15v15v11v16v17v16l-3 16l-2 18l-1 16l-2 18v16v17l-1 11v16l-2 14v16l-2 15v15l-1 11v13v16v10v11v11v10v11h16v-11v-10v-11v-11v-10v-16v-13l1 -11v-13l2 -15v-16l2 -14v-18l1 -11v-17v-16
l2 -16l1 -16l2 -18l3 -16v-18v-17v-16v-11v-17l-2 -15v-15v-15l-1 -16l-2 -15v-9v-15l-1 -17l-2 -16v-17l-3 -15l-3 -13l-2 -12l-3 -15l-5 -13l-3 -12l-8 -17l-5 -12l-6 -12l-11 -11l-6 -9l-8 -9l-8 -8l-7 -9l-13 -10l-15 -8l-14 -1h-10h-15h-10l-13 1l-15 2l-10 3l-13 3
l-11 6l-12 8l-10 8l-11 12l-9 12l-4 12l-6 13l-5 15l-3 14l-5 15l-1 16l-3 17l-2 15l-1 19l-3 16l-2 15l-2 16l-1 17v13l-2 15l-1 17v15l-3 17v18l-2 16v17l-2 16l-3 16v18l-1 17v16v15v16v14v15v16v16v15v16v17v17v16v17v14v14z" />
    <glyph glyph-name="Yacute" unicode="&#xdd;" horiz-adv-x="632" 
d="M522 699l10 -12l-11 -10l-8 -11l-11 -12l-8 -10l-5 -8l-6 -10l-8 -10l-8 -14l-10 -12l-7 -11l-10 -13l-7 -9l-6 -10l-9 -11l-6 -9l-7 -10l-7 -11l-6 -10l-6 -7l-6 -12l-8 -8l-5 -10l-6 -9l-5 -9l-9 -16l-5 -9l-8 -14l-6 -10l-5 -8l-3 -12l-3 -10v-10v-14v-12v-11v-13v-15
v-14v-16v-17l-2 -15l-2 -14l-1 -16l-2 -15l-1 -16l-3 -14l-2 -15v-17l-1 -17v-16v-15v-10v-14v-15v-11v-11v-10h-16v10v11v11v15v14v10v15v16l1 17v17l2 17l3 14l1 16l2 15l1 16l2 14l2 15v15v16v14v15v13v11v12v14v12l-2 10l-5 8l-5 11l-7 14l-7 11l-6 11l-8 11l-6 13
l-8 11l-8 12l-7 14l-8 11l-8 13l-6 12l-7 10l-7 10l-5 10l-6 9l-5 10l-6 12l-6 11l-5 11l-6 10l-7 8l-6 13l-3 11l-6 8l-5 11l-5 10l-10 7l10 12l12 -9l7 -12l5 -11l6 -10l3 -11l6 -9l7 -8l6 -12l5 -11l6 -11l6 -12l5 -10l6 -9l5 -10l7 -8l7 -12l6 -12l8 -13l8 -11l7 -14
l8 -10l8 -13l6 -13l8 -11l6 -11l7 -11l7 -16l5 -9v-1l1 1l5 10l6 10l8 14l5 9l9 16l5 9l6 9l5 10l8 10l6 10l6 9l6 8l7 11l7 12l8 9l7 11l8 10l7 9l8 13l9 11l8 12l8 12l8 12l6 8l7 10l8 10l11 12l8 11zM305 745l-14 8l9 13l11 12l12 11l9 8l14 10l8 6l11 11l9 8l8 6l8 7
l10 -12l-8 -7l-8 -6l-9 -8l-11 -11l-8 -6l-14 -10l-7 -8l-12 -11l-11 -10z" />
    <glyph glyph-name="Thorn" unicode="&#xde;" horiz-adv-x="561" 
d="M142 251h5h11h10h12h11h11l15 2h13l11 1h10l10 2l11 3l12 3l13 3l12 3l14 3l14 4l12 4l12 4l14 6l13 5l8 5l16 7l7 7l7 7l5 9l6 7l5 12l3 10v13v11v14l-1 12l-5 14l-3 13l-5 9l-5 9l-5 9l-8 10l-8 9l-9 7l-11 6l-10 3l-10 4l-13 3l-11 5l-9 3l-13 1l-14 5l-13 3l-14 3
l-14 3l-11 2l-12 5l-10 1l-11 2h-10h-10h-12h-13h-12h-9l-10 -2h-10v-14v-11v-10l2 -11v-12v-12l1 -11v-11v-12l2 -11v-15v-11v-12l1 -11v-13v-12v-10l2 -13v-13v-13v-12v-11v-14v-9zM151 11l-12 -12l-12 14l-1 19v11v12v11v16v14v14v15v15l1 29v14v13v12v14v14l-1 13v11v14
v11v12v13v11l-2 13v12v12v13l-1 11v12v11v13l-2 11v14v11l-1 11v12v10l-2 11v12v11v19v15v16v11v12v14v13v11v12v10v12v13v14h16v-14v-13v-12v-10v-12v-11v-13v-14v-12v-11v-16v-4h8l10 2h11h12h13h12h10h12l11 -2l12 -1l12 -5l11 -2l14 -3l14 -3l13 -3l14 -5l11 -1l13 -3
l11 -5l13 -3l10 -6l10 -3l13 -6l11 -9l10 -11l10 -10l5 -11l5 -9l5 -11l5 -15l5 -14l1 -16v-14v-11v-15l-3 -14l-7 -14l-6 -9l-7 -9l-7 -9l-11 -9l-16 -7l-10 -5l-13 -5l-14 -6l-12 -6l-14 -4l-14 -4l-14 -3l-12 -3l-13 -3l-12 -3l-11 -3l-12 -2h-12l-11 -1h-11l-15 -2h-13
h-11h-12h-10h-11h-4v-13v-14v-12v-13v-14l-1 -29v-15v-15v-14v-14v-16v-11v-12v-11l-1 -13z" />
    <glyph glyph-name="germandbls" unicode="&#xdf;" horiz-adv-x="531" 
d="M165 -4h-16v12v14v11v14v14l-1 11v13v12v13v12v11v13v12v14v13v14v14v11l-2 13v15l-1 16v13l-2 15v11l-1 18v10v19v17v17v19v15v16v16v14l1 13l3 17l3 11v14l3 14l4 13l1 13l5 13l3 13l7 13l5 11l5 12l6 11l7 9l9 12l8 11l9 9l9 7l11 6l11 5l10 5l12 4l12 3h12h12h15
l13 -6l12 -4l12 -11l10 -6l7 -9l8 -8l7 -12l6 -9l7 -12l4 -12l3 -14l3 -16l3 -11l2 -13v-12v-12l-2 -12l-3 -13l-6 -11l-6 -12l-5 -10l-6 -11l-6 -11l-9 -10l-9 -11l-8 -10l-10 -8l-6 -7l-9 -9l-10 -7l-13 -8l-13 -7l-1 -1h1l13 -3l14 -5l14 -6l13 -7l10 -7l10 -7l10 -9
l8 -11l8 -9l7 -8l6 -10l5 -12l4 -11l2 -10l3 -12l1 -13l2 -12v-15v-13v-12v-15v-15l-2 -13l-4 -11l-4 -14l-7 -11l-4 -10l-11 -13l-8 -14l-15 -9l-11 -10l-11 -7l-11 -8l-14 -7l-11 -8l-11 -5l-10 -5l-9 -6l-15 -6l-12 -3h-11v16h9l10 3l11 4l9 6l12 5l9 5l11 8l14 7l11 8
l9 5l11 10l13 9l8 12l9 11l4 10l7 9l2 12l4 11l2 11v13v15v12v13v13l-2 12l-1 13l-3 10l-2 10l-2 9l-5 10l-6 8l-5 8l-8 9l-8 11l-8 7l-10 5l-8 7l-11 7l-14 4l-12 5l-11 3h-9h-14l-14 -1l-4 15l11 7l12 5l14 5l11 7l13 8l8 5l7 7l6 9l10 8l8 8l9 11l7 10l6 9l6 11l5 10
l6 12l4 9l3 11l2 10v10v10l-2 11l-3 11l-3 16l-3 14l-2 10l-7 10l-6 9l-5 10l-8 8l-5 7l-10 6l-10 9l-10 4l-11 4h-11h-12h-10l-10 -3l-10 -2l-8 -5l-11 -5l-11 -6l-7 -5l-7 -7l-8 -11l-9 -12l-5 -7l-6 -11l-5 -10l-5 -11l-5 -13l-3 -11l-5 -13l-1 -11l-4 -15l-3 -12v-14
l-3 -13l-3 -15l-1 -11v-14v-16v-16v-15v-19v-17v-17v-19v-10l1 -18v-9l2 -15v-15l1 -16v-13l2 -13v-13v-14v-14v-13v-14v-12v-13v-11v-12v-13v-12v-13l1 -11v-14v-14v-11v-14v-12z" />
    <glyph glyph-name="agrave" unicode="&#xe0;" horiz-adv-x="532" 
d="M345 265l-8 -8l-11 -6l-11 -4l-11 -5l-13 -6h-11l-9 -4l-14 -4h-11l-13 -3l-11 -3l-11 -1l-14 -5l-11 -2l-12 -3l-8 -5l-12 -6l-7 -6l-8 -6l-7 -8l-8 -8l-5 -9l-8 -9v-9l-2 -13v-11v-9l2 -11l1 -11l5 -9l7 -14l5 -7l7 -7l8 -7l9 -8l8 -6l10 -4l11 -4l12 -3h9h11h11h10h12
l12 2l10 1l9 4l11 4l9 7l10 6l10 6l8 7l8 8l11 -9l-3 9l-4 12v15v12v14v16v15v16v17l2 16v17l2 14l1 15l2 14v6zM125 357l-16 2l1 10l3 13l2 10l2 14l3 12l5 12l5 11l5 11l4 12l7 10l7 10l9 8l10 6l11 6l9 5l12 5l11 4l12 1l12 2l10 2l12 1l11 2h13h11l13 -4l10 -5l11 -7
l8 -9l8 -9l6 -14l6 -13l3 -13l3 -15l1 -14l2 -11v-16v-14v-11v-13v-13l-2 -13l-1 -12l-2 -13v-9h2l-2 -10v-5l-1 -12v-14l-2 -14l-1 -15l-2 -14v-15l-2 -16v-17v-16v-15v-16v-14v-12v-13l4 -10l3 -12l1 -9l4 -7l5 -8l9 -6l8 -6l8 -1l12 -2l13 -1l11 -2l-2 -16l-11 2l-13 1
l-12 2l-12 3l-12 6l-11 10l-7 10l-6 11l-1 10l-7 -9l-10 -9l-12 -6l-8 -6l-11 -7l-13 -4l-11 -6l-12 -1l-12 -2h-14h-10h-11h-11h-11l-16 3l-11 6l-12 4l-10 8l-9 8l-8 7l-9 9l-7 9l-7 14l-7 13l-1 13l-2 11v11v13l2 13l2 13l8 13l7 9l8 8l9 10l8 6l9 8l12 6l10 5l14 5l11 2
l14 5l13 1l9 3l15 3h11l10 4l13 4h9l11 4l11 5l11 4l7 4l7 7l6 8l6 7v5v13l2 13l1 12l2 13v11v13v11v14v14l-2 11l-1 14l-3 13l-3 13l-4 11l-6 12l-6 7l-6 7l-9 5l-8 5l-9 2h-9h-11l-11 -2l-12 -1l-10 -2l-12 -2l-10 -1l-9 -2l-10 -5l-9 -5l-11 -6l-8 -6l-7 -4l-5 -10l-7 -8
l-4 -10l-5 -11l-5 -11l-3 -10l-3 -12l-2 -12l-2 -12l-3 -11zM154 673l6 14l14 -6l12 -10l14 -11l8 -7l15 -14l16 -12l8 -8l14 -11l8 -6l7 -8l11 -8l-10 -12l-11 8l-7 8l-8 6l-14 11l-8 8l-16 12l-15 14l-8 7l-14 11l-10 8z" />
    <glyph glyph-name="aacute" unicode="&#xe1;" horiz-adv-x="532" 
d="M345 265l-8 -8l-11 -6l-11 -4l-11 -5l-13 -6h-11l-9 -4l-14 -4h-11l-13 -3l-11 -3l-11 -1l-14 -5l-11 -2l-12 -3l-8 -5l-12 -6l-7 -6l-8 -6l-7 -8l-8 -8l-5 -9l-8 -9v-9l-2 -13v-11v-9l2 -11l1 -11l5 -9l7 -14l5 -7l7 -7l8 -7l9 -8l8 -6l10 -4l11 -4l12 -3h9h11h11h10h12
l12 2l10 1l9 4l11 4l9 7l10 6l10 6l8 7l8 8l11 -9l-3 9l-4 12v15v12v14v16v15v16v17l2 16v17l2 14l1 15l2 14v6zM125 357l-16 2l1 10l3 13l2 10l2 14l3 12l5 12l5 11l5 11l4 12l7 10l7 10l9 8l10 6l11 6l9 5l12 5l11 4l12 1l12 2l10 2l12 1l11 2h13h11l13 -4l10 -5l11 -7
l8 -9l8 -9l6 -14l6 -13l3 -13l3 -15l1 -14l2 -11v-16v-14v-11v-13v-13l-2 -13l-1 -12l-2 -13v-9h2l-2 -10v-5l-1 -12v-14l-2 -14l-1 -15l-2 -14v-15l-2 -16v-17v-16v-15v-16v-14v-12v-13l4 -10l3 -12l1 -9l4 -7l5 -8l9 -6l8 -6l8 -1l12 -2l13 -1l11 -2l-2 -16l-11 2l-13 1
l-12 2l-12 3l-12 6l-11 10l-7 10l-6 11l-1 10l-7 -9l-10 -9l-12 -6l-8 -6l-11 -7l-13 -4l-11 -6l-12 -1l-12 -2h-14h-10h-11h-11h-11l-16 3l-11 6l-12 4l-10 8l-9 8l-8 7l-9 9l-7 9l-7 14l-7 13l-1 13l-2 11v11v13l2 13l2 13l8 13l7 9l8 8l9 10l8 6l9 8l12 6l10 5l14 5l11 2
l14 5l13 1l9 3l15 3h11l10 4l13 4h9l11 4l11 5l11 4l7 4l7 7l6 8l6 7v5v13l2 13l1 12l2 13v11v13v11v14v14l-2 11l-1 14l-3 13l-3 13l-4 11l-6 12l-6 7l-6 7l-9 5l-8 5l-9 2h-9h-11l-11 -2l-12 -1l-10 -2l-12 -2l-10 -1l-9 -2l-10 -5l-9 -5l-11 -6l-8 -6l-7 -4l-5 -10l-7 -8
l-4 -10l-5 -11l-5 -11l-3 -10l-3 -12l-2 -12l-2 -12l-3 -11zM209 576l-12 12l11 11l12 11l14 11l11 16l11 11l9 12l8 11l11 8l6 9l7 8l8 10l11 6l8 -14l-9 -4l-6 -8l-7 -8l-6 -9l-11 -10l-8 -9l-9 -12l-11 -11l-11 -16l-16 -13l-10 -11z" />
    <glyph glyph-name="acircumflex" unicode="&#xe2;" horiz-adv-x="532" 
d="M345 265l-8 -8l-11 -6l-11 -4l-11 -5l-13 -6h-11l-9 -4l-14 -4h-11l-13 -3l-11 -3l-11 -1l-14 -5l-11 -2l-12 -3l-8 -5l-12 -6l-7 -6l-8 -6l-7 -8l-8 -8l-5 -9l-8 -9v-9l-2 -13v-11v-9l2 -11l1 -11l5 -9l7 -14l5 -7l7 -7l8 -7l9 -8l8 -6l10 -4l11 -4l12 -3h9h11h11h10h12
l12 2l10 1l9 4l11 4l9 7l10 6l10 6l8 7l8 8l11 -9l-3 9l-4 12v15v12v14v16v15v16v17l2 16v17l2 14l1 15l2 14v6zM125 357l-16 2l1 10l3 13l2 10l2 14l3 12l5 12l5 11l5 11l4 12l7 10l7 10l9 8l10 6l11 6l9 5l12 5l11 4l12 1l12 2l10 2l12 1l11 2h13h11l13 -4l10 -5l11 -7
l8 -9l8 -9l6 -14l6 -13l3 -13l3 -15l1 -14l2 -11v-16v-14v-11v-13v-13l-2 -13l-1 -12l-2 -13v-9h2l-2 -10v-5l-1 -12v-14l-2 -14l-1 -15l-2 -14v-15l-2 -16v-17v-16v-15v-16v-14v-12v-13l4 -10l3 -12l1 -9l4 -7l5 -8l9 -6l8 -6l8 -1l12 -2l13 -1l11 -2l-2 -16l-11 2l-13 1
l-12 2l-12 3l-12 6l-11 10l-7 10l-6 11l-1 10l-7 -9l-10 -9l-12 -6l-8 -6l-11 -7l-13 -4l-11 -6l-12 -1l-12 -2h-14h-10h-11h-11h-11l-16 3l-11 6l-12 4l-10 8l-9 8l-8 7l-9 9l-7 9l-7 14l-7 13l-1 13l-2 11v11v13l2 13l2 13l8 13l7 9l8 8l9 10l8 6l9 8l12 6l10 5l14 5l11 2
l14 5l13 1l9 3l15 3h11l10 4l13 4h9l11 4l11 5l11 4l7 4l7 7l6 8l6 7v5v13l2 13l1 12l2 13v11v13v11v14v14l-2 11l-1 14l-3 13l-3 13l-4 11l-6 12l-6 7l-6 7l-9 5l-8 5l-9 2h-9h-11l-11 -2l-12 -1l-10 -2l-12 -2l-10 -1l-9 -2l-10 -5l-9 -5l-11 -6l-8 -6l-7 -4l-5 -10l-7 -8
l-4 -10l-5 -11l-5 -11l-3 -10l-3 -12l-2 -12l-2 -12l-3 -11zM142 583l-4 16l8 2l13 12l6 8l10 12l12 11l10 9l7 7l8 12l12 8l7 8l13 12l10 10l9 7l14 6l14 -9l8 -12l7 -9l7 -10l6 -11l8 -13l6 -14l6 -9l7 -13l6 -11l8 -13l6 -8l-12 -10l-8 8l-8 15l-6 11l-7 13l-6 9l-6 14
l-8 13l-6 11l-5 8l-7 9l-8 10l-4 5l-4 -4l-7 -5l-8 -10l-13 -12l-9 -8l-10 -8l-8 -10l-7 -9l-12 -9l-10 -11l-10 -10l-6 -8l-17 -16z" />
    <glyph glyph-name="atilde" unicode="&#xe3;" horiz-adv-x="536" 
d="M345 265l-8 -8l-11 -6l-11 -4l-11 -5l-13 -6h-11l-9 -4l-14 -4h-11l-13 -3l-11 -3l-11 -1l-14 -5l-11 -2l-12 -3l-8 -5l-12 -6l-7 -6l-8 -6l-7 -8l-8 -8l-5 -9l-8 -9v-9l-2 -13v-11v-9l2 -11l1 -11l5 -9l7 -14l5 -7l7 -7l8 -7l9 -8l8 -6l10 -4l11 -4l12 -3h9h11h11h10h12
l12 2l10 1l9 4l11 4l9 7l10 6l10 6l8 7l8 8l11 -9l-3 9l-4 12v15v12v14v16v15v16v17l2 16v17l2 14l1 15l2 14v6zM125 357l-16 2l1 10l3 13l2 10l2 14l3 12l5 12l5 11l5 11l4 12l7 10l7 10l9 8l10 6l11 6l9 5l12 5l11 4l12 1l12 2l10 2l12 1l11 2h13h11l13 -4l10 -5l11 -7
l8 -9l8 -9l6 -14l6 -13l3 -13l3 -15l1 -14l2 -11v-16v-14v-11v-13v-13l-2 -13l-1 -12l-2 -13v-9h2l-2 -10v-5l-1 -12v-14l-2 -14l-1 -15l-2 -14v-15l-2 -16v-17v-16v-15v-16v-14v-12v-13l4 -10l3 -12l1 -9l4 -7l5 -8l9 -6l8 -6l8 -1l12 -2l13 -1l11 -2l-2 -16l-11 2l-13 1
l-12 2l-12 3l-12 6l-11 10l-7 10l-6 11l-1 10l-7 -9l-10 -9l-12 -6l-8 -6l-11 -7l-13 -4l-11 -6l-12 -1l-12 -2h-14h-10h-11h-11h-11l-16 3l-11 6l-12 4l-10 8l-9 8l-8 7l-9 9l-7 9l-7 14l-7 13l-1 13l-2 11v11v13l2 13l2 13l8 13l7 9l8 8l9 10l8 6l9 8l12 6l10 5l14 5l11 2
l14 5l13 1l9 3l15 3h11l10 4l13 4h9l11 4l11 5l11 4l7 4l7 7l6 8l6 7v5v13l2 13l1 12l2 13v11v13v11v14v14l-2 11l-1 14l-3 13l-3 13l-4 11l-6 12l-6 7l-6 7l-9 5l-8 5l-9 2h-9h-11l-11 -2l-12 -1l-10 -2l-12 -2l-10 -1l-9 -2l-10 -5l-9 -5l-11 -6l-8 -6l-7 -4l-5 -10l-7 -8
l-4 -10l-5 -11l-5 -11l-3 -10l-3 -12l-2 -12l-2 -12l-3 -11zM123 587l-16 2l2 15l7 20l6 10l7 11l18 14l18 9l12 5l17 4l18 2l22 -2l20 -9l16 -13l12 -14l10 -11l12 -7l11 -7l12 -1l14 -2h7l12 9l16 9l5 7l6 8l7 9l7 8l6 8l9 15l6 11l14 -8l-6 -11l-9 -17l-8 -8l-7 -8l-7 -9
l-6 -8l-7 -9l-18 -11l-16 -11h-13l-14 2l-16 1l-13 9l-14 9l-12 13l-12 12l-12 11l-16 7l-18 2l-16 -2l-15 -4l-10 -3l-16 -9l-14 -10l-5 -9l-6 -8l-5 -18z" />
    <glyph glyph-name="adieresis" unicode="&#xe4;" horiz-adv-x="532" 
d="M345 265l-8 -8l-11 -6l-11 -4l-11 -5l-13 -6h-11l-9 -4l-14 -4h-11l-13 -3l-11 -3l-11 -1l-14 -5l-11 -2l-12 -3l-8 -5l-12 -6l-7 -6l-8 -6l-7 -8l-8 -8l-5 -9l-8 -9v-9l-2 -13v-11v-9l2 -11l1 -11l5 -9l7 -14l5 -7l7 -7l8 -7l9 -8l8 -6l10 -4l11 -4l12 -3h9h11h11h10h12
l12 2l10 1l9 4l11 4l9 7l10 6l10 6l8 7l8 8l11 -9l-3 9l-4 12v15v12v14v16v15v16v17l2 16v17l2 14l1 15l2 14v6zM180 627l-9 11l3 18l15 -4l2 2l9 -12l-5 -13zM125 357l-16 2l1 10l3 13l2 10l2 14l3 12l5 12l5 11l5 11l4 12l7 10l7 10l9 8l10 6l11 6l9 5l12 5l11 4l12 1
l12 2l10 2l12 1l11 2h13h11l13 -4l10 -5l11 -7l8 -9l8 -9l6 -14l6 -13l3 -13l3 -15l1 -14l2 -11v-16v-14v-11v-13v-13l-2 -13l-1 -12l-2 -13v-9h2l-2 -10v-5l-1 -12v-14l-2 -14l-1 -15l-2 -14v-15l-2 -16v-17v-16v-15v-16v-14v-12v-13l4 -10l3 -12l1 -9l4 -7l5 -8l9 -6l8 -6
l8 -1l12 -2l13 -1l11 -2l-2 -16l-11 2l-13 1l-12 2l-12 3l-12 6l-11 10l-7 10l-6 11l-1 10l-7 -9l-10 -9l-12 -6l-8 -6l-11 -7l-13 -4l-11 -6l-12 -1l-12 -2h-14h-10h-11h-11h-11l-16 3l-11 6l-12 4l-10 8l-9 8l-8 7l-9 9l-7 9l-7 14l-7 13l-1 13l-2 11v11v13l2 13l2 13
l8 13l7 9l8 8l9 10l8 6l9 8l12 6l10 5l14 5l11 2l14 5l13 1l9 3l15 3h11l10 4l13 4h9l11 4l11 5l11 4l7 4l7 7l6 8l6 7v5v13l2 13l1 12l2 13v11v13v11v14v14l-2 11l-1 14l-3 13l-3 13l-4 11l-6 12l-6 7l-6 7l-9 5l-8 5l-9 2h-9h-11l-11 -2l-12 -1l-10 -2l-12 -2l-10 -1
l-9 -2l-10 -5l-9 -5l-11 -6l-8 -6l-7 -4l-5 -10l-7 -8l-4 -10l-5 -11l-5 -11l-3 -10l-3 -12l-2 -12l-2 -12l-3 -11zM342 646l-10 -12l-12 12l8 14l12 -10l-4 -2z" />
    <glyph glyph-name="aring" unicode="&#xe5;" horiz-adv-x="532" 
d="M345 265l-8 -8l-11 -6l-11 -4l-11 -5l-13 -6h-11l-9 -4l-14 -4h-11l-13 -3l-11 -3l-11 -1l-14 -5l-11 -2l-12 -3l-8 -5l-12 -6l-7 -6l-8 -6l-7 -8l-8 -8l-5 -9l-8 -9v-9l-2 -13v-11v-9l2 -11l1 -11l5 -9l7 -14l5 -7l7 -7l8 -7l9 -8l8 -6l10 -4l11 -4l12 -3h9h11h11h10h12
l12 2l10 1l9 4l11 4l9 7l10 6l10 6l8 7l8 8l11 -9l-3 9l-4 12v15v12v14v16v15v16v17l2 16v17l2 14l1 15l2 14v6zM228 730l3 -3l-11 -8l-7 -8l-3 -9l-7 -12l-5 -11l-3 -11v-13v-11v-10l2 -9l6 -8l11 -5l9 -4l10 -3h9h11h11h10l7 4l11 6l8 7l6 7l8 9l5 9l4 10l3 10v12v10l-2 7
l-5 7l-8 11l-7 7l-7 5l-10 5l-11 4l-9 3h-11h-10h-10l-5 -3zM215 735l-2 1l6 11l13 7h14h10h13l13 -3l11 -6l12 -5l9 -7l9 -9l8 -11l7 -9l4 -13v-12v-14l-3 -14l-6 -10l-5 -13l-10 -9l-6 -9l-12 -9l-11 -6l-11 -6h-14h-11h-11h-11l-14 3l-11 6l-13 7l-10 12l-4 15v12v11v15
l3 15l7 13l7 10l3 11l11 12zM125 357l-16 2l1 10l3 13l2 10l2 14l3 12l5 12l5 11l5 11l4 12l7 10l7 10l9 8l10 6l11 6l9 5l12 5l11 4l12 1l12 2l10 2l12 1l11 2h13h11l13 -4l10 -5l11 -7l8 -9l8 -9l6 -14l6 -13l3 -13l3 -15l1 -14l2 -11v-16v-14v-11v-13v-13l-2 -13l-1 -12
l-2 -13v-9h2l-2 -10v-5l-1 -12v-14l-2 -14l-1 -15l-2 -14v-15l-2 -16v-17v-16v-15v-16v-14v-12v-13l4 -10l3 -12l1 -9l4 -7l5 -8l9 -6l8 -6l8 -1l12 -2l13 -1l11 -2l-2 -16l-11 2l-13 1l-12 2l-12 3l-12 6l-11 10l-7 10l-6 11l-1 10l-7 -9l-10 -9l-12 -6l-8 -6l-11 -7
l-13 -4l-11 -6l-12 -1l-12 -2h-14h-10h-11h-11h-11l-16 3l-11 6l-12 4l-10 8l-9 8l-8 7l-9 9l-7 9l-7 14l-7 13l-1 13l-2 11v11v13l2 13l2 13l8 13l7 9l8 8l9 10l8 6l9 8l12 6l10 5l14 5l11 2l14 5l13 1l9 3l15 3h11l10 4l13 4h9l11 4l11 5l11 4l7 4l7 7l6 8l6 7v5v13l2 13
l1 12l2 13v11v13v11v14v14l-2 11l-1 14l-3 13l-3 13l-4 11l-6 12l-6 7l-6 7l-9 5l-8 5l-9 2h-9h-11l-11 -2l-12 -1l-10 -2l-12 -2l-10 -1l-9 -2l-10 -5l-9 -5l-11 -6l-8 -6l-7 -4l-5 -10l-7 -8l-4 -10l-5 -11l-5 -11l-3 -10l-3 -12l-2 -12l-2 -12l-3 -11z" />
    <glyph glyph-name="ae" unicode="&#xe6;" horiz-adv-x="856" 
d="M386 372l11 -3l-2 -10l-2 -10l-1 -13l-2 -4v-8v-14l2 -16v-14v-14v-1h12h11h10h14h14h12h14h13h14h12h14h13h15l12 -2l12 -1h14h14h13h15l14 -2h11h14h11h11h10l11 3h11h6l-2 4l-3 11l-3 9l-4 11l-1 11l-5 9l-2 12l-6 10l-4 14l-4 10l-7 13l-8 9l-7 8l-8 13l-8 12l-11 12
l-10 12l-13 8l-14 10l-15 9l-15 6l-16 6l-15 4l-17 2l-9 1h-11h-15h-17l-12 -1l-17 -5l-12 -5l-13 -5l-9 -7l-9 -6l-7 -7l-5 -7l-6 -10l-5 -9l-4 -11l-1 -9l-3 -11v-11v-11v-2zM372 298l-4 -6l-9 -8l-9 -8l-10 -8l-12 -7l-12 -4l-13 -5l-11 -2l-12 -3l-11 -1l-14 -2h-14
l-15 -2l-13 -1l-12 -2l-17 -1h-12l-11 -2l-9 -1l-10 -5l-13 -2l-8 -6l-13 -5l-8 -7l-11 -8l-8 -9l-10 -8l-7 -10l-6 -11l-6 -12l-4 -10l-1 -12v-13l3 -14l1 -13l7 -15l6 -13l7 -13l13 -13l10 -11l14 -8l13 -7l14 -3h15h14l16 1l13 4l17 4l14 3l13 4l13 6l12 7l12 4l8 9l13 7
l8 10l9 10l8 11l7 10l8 14l6 11l6 13l4 15l6 14l5 13l3 15l5 14l1 13l3 12v13v10v15l-1 11v9zM84 355h-16v12l3 16l7 14l8 12l9 14l11 12l13 14l13 11l14 12l16 7l10 5l15 7l12 3l14 5l10 3l16 2l17 1h15h14l17 -1l12 -2l15 -5l16 -12l8 -15l7 -9l4 -14l5 -11l6 -13l5 10
l5 11l6 10l7 9l9 9l9 6l11 9l15 5l12 5l19 7l16 1h17h15h11l11 -1l17 -2l17 -4l18 -8l15 -6l17 -9l14 -10l15 -10l12 -14l11 -12l10 -14l8 -11l5 -8l8 -9l9 -15l6 -13l2 -13l6 -10l4 -12l5 -11l1 -11l4 -9l3 -11l3 -13l-2 -16l-16 -6h-11l-11 -3h-12h-11h-11h-14h-13l-14 2
h-13h-13h-14h-14l-14 1l-12 2h-13h-13h-14h-12h-14h-13h-14h-12h-14h-14h-10h-11h-11h-1v-11v-14v-13v-12v-14v-13v-11v-11v-10v-10v-12v-11l1 -11l5 -14l2 -9l6 -7l7 -9l8 -9l6 -7l7 -6l9 -6l12 -6l10 -6l13 -4l9 -3l13 -3l13 -5h12l12 -1h14h13l11 1l12 3l11 5l12 2l14 5
l9 6l11 5l8 6l7 5l7 8l10 6l5 7l9 13l7 9l5 8l6 8l5 10l6 11l6 11l5 12l5 10l10 10l12 -10l-8 -10l-5 -8l-5 -10l-6 -13l-6 -11l-5 -10l-6 -10l-7 -8l-7 -9l-9 -13l-7 -9l-10 -6l-5 -8l-9 -7l-10 -6l-11 -5l-9 -6l-18 -7l-12 -2l-9 -5l-16 -3l-13 -1h-13h-14l-12 1h-14
l-15 5l-13 3l-11 3l-13 6l-12 6l-12 6l-11 8l-9 6l-6 9l-8 9l-7 9l-8 9l-4 13l-5 14l-1 15v11v12v10v10v11v8l-5 -11l-4 -14l-6 -15l-6 -13l-6 -13l-8 -14l-9 -12l-8 -11l-9 -10l-10 -12l-13 -7l-10 -11l-14 -4l-10 -7l-15 -6l-15 -6l-14 -3l-17 -4l-15 -4l-18 -1h-14h-17
l-18 3l-15 9l-16 10l-12 11l-13 15l-9 15l-6 15l-9 17l-1 15l-3 14v15l1 16l6 12l6 14l6 11l9 12l10 10l10 9l11 8l10 9l13 5l10 6l13 4l12 5l11 1l11 2h14l15 1l12 2l13 1l15 2h14l14 2l11 1l10 3l11 2l13 5l10 2l8 7l10 6l9 8l7 6l5 9l7 11l2 6v2v11v11v11v4l-3 13l-4 12
l-1 14l-3 13l-4 11l-5 11l-4 12l-7 9l-6 13l-12 8l-11 3l-10 2l-15 1h-14h-15l-15 -1l-14 -2l-10 -3l-14 -5l-10 -3l-15 -5l-10 -5l-14 -7l-12 -10l-11 -11l-13 -14l-11 -10l-7 -12l-8 -12l-5 -12l-3 -12v-10z" />
    <glyph glyph-name="ccedilla" unicode="&#xe7;" horiz-adv-x="466" 
d="M367 337l-16 -4l-3 13v11l-2 14l-1 13l-3 11l-4 10l-1 11l-4 8l-6 16l-5 8l-6 11l-6 8l-7 11l-6 7l-9 8l-8 7l-11 4l-8 7h-11l-12 2h-10h-9l-13 -2l-13 -8l-9 -5l-9 -8l-12 -10l-7 -10l-8 -10l-10 -11l-8 -13l-9 -13l-8 -15l-5 -15l-5 -16l-6 -17l-5 -13l-3 -16v-10
l-2 -14l-1 -16v-17l-2 -15v-15v-14v-14v-15l2 -15l1 -16l2 -15l1 -14l2 -16l3 -14l2 -12l3 -12l4 -10l3 -13l7 -12l8 -10l8 -6l10 -9l10 -6l7 -6l12 -3l12 -4l16 -6l11 -1l11 -2h13h12l9 2l11 6l10 4l6 8l10 5l10 11l7 10l7 12l5 12l4 8l1 10l5 12l2 10l3 11l3 13l1 14l4 14
l1 11l2 11l16 -2l-2 -11l-1 -11l-4 -14l-1 -14l-3 -15l-3 -11l-2 -10l-5 -12l-1 -10l-6 -10l-5 -12l-7 -14l-9 -12l-12 -13l-10 -5l-6 -8l-14 -6l-11 -6l-13 -4h-14h-6l2 -1l-7 -17l-11 -12l-8 -9l-9 -9l-5 -10l-5 -9h9h11l16 -1l16 -6l12 -6l9 -7l9 -8l7 -9l6 -14l1 -17
l-4 -15l-9 -14l-8 -9l-15 -9l-11 -4l-11 -6l-15 -3l-12 -3l-13 -3l-13 -2h-13l-12 3l-12 8l-9 12l-5 12l16 6l3 -10l7 -8l6 -6l8 -1h9l11 2l13 3l12 3l13 3l11 4l11 4l11 7l6 7l7 10l2 11l-1 11l-4 10l-5 7l-7 6l-7 5l-10 6l-14 4l-12 1h-11h-14l-11 1l-6 15l7 8l6 9l7 12
l9 9l8 9l9 10l5 11l-6 1l-13 1l-18 6l-10 4l-16 5l-9 8l-10 6l-10 9l-8 6l-12 12l-7 16l-5 13l-4 12l-3 12l-2 14l-3 14l-2 16l-1 14l-2 15l-1 16l-2 15v17v14v14v17l2 15v15l1 18l2 14v10l3 18l5 15l6 17l5 16l7 15l8 17l9 13l10 15l10 11l8 10l7 10l14 12l9 8l11 7l15 8
l17 4h11h12l12 -2l15 -2l10 -7l11 -4l10 -9l11 -8l6 -9l9 -11l6 -10l6 -11l5 -10l6 -16l6 -10l1 -11l4 -10l3 -13l1 -13l2 -14v-11z" />
    <glyph glyph-name="egrave" unicode="&#xe8;" 
d="M123 301l5 1h14h15h10h12h11h13l16 -1l14 -2h12h12h14h14h13h11h12h13h11l12 -1h13h14l10 -4l3 -2l-2 5v14v10v16l-3 10l-4 16l-3 13l-5 8l-5 10l-5 11l-2 9l-7 10l-10 12l-7 9l-7 8l-6 7l-6 5l-9 5l-11 6l-8 5l-9 2l-10 2l-15 1l-15 2h-15l-9 -3l-10 -4l-12 -8l-8 -5
l-9 -8l-8 -8l-6 -10l-7 -11l-6 -11l-5 -12l-4 -11l-7 -12l-2 -13l-6 -14l-1 -13l-5 -17l-2 -13zM122 284v-10v-14v-16v-15v-14v-15l1 -13l3 -12l2 -16l3 -13l4 -13l6 -14l6 -12l3 -13l8 -13l6 -8l7 -11l10 -9l9 -11l9 -5l8 -6l9 -2l11 -3l10 -2l11 -3l11 -3l9 -2h10h11h9
l13 6l13 6l8 7l8 6l7 7l9 11l9 9l6 10l6 11l4 10l3 10l3 13l5 10v9v11v11h16v-11v-11v-13l-5 -12l-3 -11l-3 -12l-6 -12l-6 -11l-8 -12l-9 -9l-9 -11l-9 -9l-8 -6l-10 -9l-15 -6l-15 -8h-13h-11h-12l-11 2l-11 3l-11 3l-10 2l-11 3l-13 4l-8 6l-11 7l-11 11l-10 11l-9 11
l-6 10l-8 15l-5 13l-4 12l-6 14l-6 15l-3 15l-2 16l-3 12l-1 15v15v14v15v16v14v14l1 15l3 14l2 15l5 15l1 15l6 14l4 15l7 12l2 11l7 14l6 11l7 11l8 12l8 10l11 8l10 7l12 8l12 6l13 3h17l17 -2l15 -1l12 -2l11 -4l10 -5l11 -6l9 -5l10 -7l6 -9l7 -8l7 -9l10 -12l9 -12
l4 -11l3 -11l5 -8l5 -10l5 -15l4 -16l3 -12v-18v-10v-14l-2 -17l-19 -2l-10 4h-10h-13l-12 1h-11h-13h-12h-11h-13h-14h-14h-12h-14l-14 2l-14 1h-13h-11h-12h-10h-15h-12zM178 697l14 6l4 -9l6 -10l10 -10l9 -14l11 -13l7 -13l7 -11l8 -8l8 -10l8 -9l7 -8l-12 -10l-7 8
l-8 9l-8 10l-8 8l-9 13l-7 13l-9 11l-9 14l-10 10l-8 12z" />
    <glyph glyph-name="eacute" unicode="&#xe9;" 
d="M123 301l5 1h14h15h10h12h11h13l16 -1l14 -2h12h12h14h14h13h11h12h13h11l12 -1h13h14l10 -4l3 -2l-2 5v14v10v16l-3 10l-4 16l-3 13l-5 8l-5 10l-5 11l-2 9l-7 10l-10 12l-7 9l-7 8l-6 7l-6 5l-9 5l-11 6l-8 5l-9 2l-10 2l-15 1l-15 2h-15l-9 -3l-10 -4l-12 -8l-8 -5
l-9 -8l-8 -8l-6 -10l-7 -11l-6 -11l-5 -12l-4 -11l-7 -12l-2 -13l-6 -14l-1 -13l-5 -17l-2 -13zM122 284v-10v-14v-16v-15v-14v-15l1 -13l3 -12l2 -16l3 -13l4 -13l6 -14l6 -12l3 -13l8 -13l6 -8l7 -11l10 -9l9 -11l9 -5l8 -6l9 -2l11 -3l10 -2l11 -3l11 -3l9 -2h10h11h9
l13 6l13 6l8 7l8 6l7 7l9 11l9 9l6 10l6 11l4 10l3 10l3 13l5 10v9v11v11h16v-11v-11v-13l-5 -12l-3 -11l-3 -12l-6 -12l-6 -11l-8 -12l-9 -9l-9 -11l-9 -9l-8 -6l-10 -9l-15 -6l-15 -8h-13h-11h-12l-11 2l-11 3l-11 3l-10 2l-11 3l-13 4l-8 6l-11 7l-11 11l-10 11l-9 11
l-6 10l-8 15l-5 13l-4 12l-6 14l-6 15l-3 15l-2 16l-3 12l-1 15v15v14v15v16v14v14l1 15l3 14l2 15l5 15l1 15l6 14l4 15l7 12l2 11l7 14l6 11l7 11l8 12l8 10l11 8l10 7l12 8l12 6l13 3h17l17 -2l15 -1l12 -2l11 -4l10 -5l11 -6l9 -5l10 -7l6 -9l7 -8l7 -9l10 -12l9 -12
l4 -11l3 -11l5 -8l5 -10l5 -15l4 -16l3 -12v-18v-10v-14l-2 -17l-19 -2l-10 4h-10h-13l-12 1h-11h-13h-12h-11h-13h-14h-14h-12h-14l-14 2l-14 1h-13h-11h-12h-10h-15h-12zM197 572l-8 14l10 7l13 10l7 7l6 8l8 10l9 8l8 9l14 15l6 8l6 8l11 11l8 9l8 9l12 -10l-8 -9l-8 -9
l-11 -11l-6 -8l-6 -8l-14 -15l-8 -11l-9 -8l-8 -8l-6 -8l-7 -9l-15 -12z" />
    <glyph glyph-name="ecircumflex" unicode="&#xea;" 
d="M123 301l5 1h14h15h10h12h11h13l16 -1l14 -2h12h12h14h14h13h11h12h13h11l12 -1h13h14l10 -4l3 -2l-2 5v14v10v16l-3 10l-4 16l-3 13l-5 8l-5 10l-5 11l-2 9l-7 10l-10 12l-7 9l-7 8l-6 7l-6 5l-9 5l-11 6l-8 5l-9 2l-10 2l-15 1l-15 2h-15l-9 -3l-10 -4l-12 -8l-8 -5
l-9 -8l-8 -8l-6 -10l-7 -11l-6 -11l-5 -12l-4 -11l-7 -12l-2 -13l-6 -14l-1 -13l-5 -17l-2 -13zM122 284v-10v-14v-16v-15v-14v-15l1 -13l3 -12l2 -16l3 -13l4 -13l6 -14l6 -12l3 -13l8 -13l6 -8l7 -11l10 -9l9 -11l9 -5l8 -6l9 -2l11 -3l10 -2l11 -3l11 -3l9 -2h10h11h9
l13 6l13 6l8 7l8 6l7 7l9 11l9 9l6 10l6 11l4 10l3 10l3 13l5 10v9v11v11h16v-11v-11v-13l-5 -12l-3 -11l-3 -12l-6 -12l-6 -11l-8 -12l-9 -9l-9 -11l-9 -9l-8 -6l-10 -9l-15 -6l-15 -8h-13h-11h-12l-11 2l-11 3l-11 3l-10 2l-11 3l-13 4l-8 6l-11 7l-11 11l-10 11l-9 11
l-6 10l-8 15l-5 13l-4 12l-6 14l-6 15l-3 15l-2 16l-3 12l-1 15v15v14v15v16v14v14l1 15l3 14l2 15l5 15l1 15l6 14l4 15l7 12l2 11l7 14l6 11l7 11l8 12l8 10l11 8l10 7l12 8l12 6l13 3h17l17 -2l15 -1l12 -2l11 -4l10 -5l11 -6l9 -5l10 -7l6 -9l7 -8l7 -9l10 -12l9 -12
l4 -11l3 -11l5 -8l5 -10l5 -15l4 -16l3 -12v-18v-10v-14l-2 -17l-19 -2l-10 4h-10h-13l-12 1h-11h-13h-12h-11h-13h-14h-14h-12h-14l-14 2l-14 1h-13h-11h-12h-10h-15h-12zM156 573l-12 12l14 13l11 14l7 9l9 9l9 7l7 11l8 9l8 8l8 9l9 9l14 11l10 9l8 8l9 6l15 -6l2 -7
l7 -11l8 -8l10 -20l14 -17l7 -11l7 -8l7 -8l10 -14l8 -8l6 -8l7 -6l-10 -12l-9 8l-6 8l-8 8l-10 14l-7 8l-7 8l-7 11l-16 19l-10 18l-6 8l-9 13l-1 4l-1 -1l-6 -8l-12 -9l-14 -11l-7 -7l-8 -9l-8 -8l-8 -9l-7 -11l-11 -9l-7 -7l-7 -9l-11 -14z" />
    </font>
</defs>
</svg>
